<svg xmlns="http://www.w3.org/2000/svg" viewBox="0 0 500 500"><g id="freepik--Floor--inject-2"><path d="M416.38,252.49c-91-51.93-238-51.93-328.46,0S-2,388.62,89,440.55s238.06,51.93,328.47,0S507.38,304.42,416.38,252.49Z" style="fill:#f5f5f5"></path></g><g id="freepik--Shadows--inject-2"><path id="freepik--Shadow--inject-2" d="M253.32,309.1c37.27,21.52,37.27,56.4,0,77.92s-97.7,21.52-135,0-37.27-56.4,0-77.92S216.05,287.58,253.32,309.1Z" style="fill:#e6e6e6"></path><path id="freepik--shadow--inject-2" d="M408,332.63c12.74,7.44,12.74,19.5,0,26.94s-33.41,7.44-46.16,0-12.74-19.5,0-26.94S395.29,325.19,408,332.63Z" style="fill:#e6e6e6"></path></g><g id="freepik--Plant--inject-2"><g id="freepik--plant--inject-2"><g id="freepik--Pot--inject-2"><g id="freepik--pot--inject-2"><path d="M364.49,348.13c-10.94-11.3-17.37-41.63-6.7-50.59h54.33c10.68,8.95,4.25,39.27-6.69,50.58l-.3.31-.37.37c-.31.3-.64.6-1,.89l-.26.21c-.27.21-.54.42-.83.63-.47.33-.94.64-1.42.91-9,5.26-23.6,5.26-32.6,0h0a14.88,14.88,0,0,1-1.42-.92c-.27-.19-.52-.39-.77-.59a3.92,3.92,0,0,1-.32-.25c-.34-.28-.66-.57-1-.86l-.43-.43C364.66,348.3,364.57,348.22,364.49,348.13Z" style="fill:#37474f"></path><path d="M407.41,293.93c12.39,7.24,12.39,19,0,26.21s-32.5,7.24-44.89,0-12.4-19,0-26.21S395,286.69,407.41,293.93Z" style="fill:#455a64"></path><path d="M401.44,297.41c9.11,5.32,9.11,13.93,0,19.25s-23.86,5.31-33,0-9.11-13.93,0-19.25S392.34,292.1,401.44,297.41Z" style="fill:#263238"></path><path d="M368.48,306.55c9.1-5.32,23.86-5.32,33,0a15.22,15.22,0,0,1,5.46,5.05,15.24,15.24,0,0,1-5.46,5.06c-9.1,5.31-23.86,5.31-33,0A15.24,15.24,0,0,1,363,311.6,15.22,15.22,0,0,1,368.48,306.55Z" style="fill:#37474f"></path></g><g id="freepik--Plants--inject-2"><path d="M400.57,224.33,386,239.41l14.82-9.36a43.83,43.83,0,0,1-.78,15.31,97.6,97.6,0,0,0-11.14,10.33l11.47-6.37s1.88,7.86.16,20.46c-.45,3.3-3.23,9.85-4.89,14.69a51,51,0,0,1-2.72,6.53,2.93,2.93,0,0,1-.19.4q-4.47-1.81-9.23-3.46c-2.48-3.84-6.34-13.61-8.35-21.76C367.47,235,389,213.67,407.48,205.06,407.48,205.06,402,214.22,400.57,224.33Z" style="fill:#37474f"></path><path d="M387.1,227.44c-2.89,3.79-4.26,8.46-5.17,13.06a64.6,64.6,0,0,0-1.1,14.08,59.91,59.91,0,0,0,7.07,27h0a.46.46,0,0,1-.19.63.45.45,0,0,1-.62-.18h0a60.52,60.52,0,0,1-6.72-27.48,65.8,65.8,0,0,1,1.33-14.14C382.69,235.85,384.15,231.18,387.1,227.44Z" style="fill:#e0e0e0"></path><path d="M336.19,236.45s0,0,0,0c.34.59,5.92,10.25,13.52,28.47l17,5.91-13.28,0,5,12.18L375,289.6l-13.81-.19s1.41,13.77,10.05,20.93c4.77,4,7.06,4.43,9.15,3.64,2.54-1,4.3-4.53,6.23-10s2-17.12-1.37-29.06a35.11,35.11,0,0,0-4.07-9.07C370.92,249.46,348.1,238.38,336.19,236.45Z" style="fill:#455a64"></path><path d="M353.45,245.4c8.34,5.56,15.93,12.51,21.34,21.09a48.46,48.46,0,0,1,6.13,13.83,45.9,45.9,0,0,1,1.26,15,0,0,0,0,1-.05,0s0,0-.05-.05A58.6,58.6,0,0,0,380,280.57a54.48,54.48,0,0,0-5.85-13.67c-5.19-8.54-12.56-15.63-20.72-21.42a0,0,0,0,1,0-.07A0,0,0,0,1,353.45,245.4Z" style="fill:#e0e0e0"></path><path d="M444.74,242.37h0a43.54,43.54,0,0,0-5.27.25,83.8,83.8,0,0,0-20.14,4.9c-2.41.9-4.82,1.91-7.19,3-1.19.57-2.37,1.17-3.53,1.8A58.35,58.35,0,0,0,393.18,264a37.07,37.07,0,0,0-5.31,7.47c-.19.35-.39.69-.57,1.05h0c-.45.92-.85,1.82-1.23,2.72-4.45,10.06-4.83,17-4.55,24.79.22,6,2.26,12.87,3.43,14a2.72,2.72,0,0,0,.52.39c1.71,1.09,4.44.46,9.53-2.39,10.2-5.7,14.2-20.15,14.2-20.15L395,289.48l18.21-3.63,7.39-11.54L407,271.84,425.51,269c11.21-17.22,18.74-26.05,19.2-26.59l0,0Z" style="fill:#455a64"></path><path d="M439.47,242.62a83.8,83.8,0,0,0-20.14,4.9c-2.41.9-4.82,1.91-7.19,3-1.19.57-2.37,1.17-3.53,1.8A58.35,58.35,0,0,0,393.18,264a37.07,37.07,0,0,0-5.31,7.47c-.19.35-.39.69-.57,1.05h0c-.45.92-.85,1.82-1.23,2.72-4.45,10.06-4.83,17-4.55,24.79.22,6,2.26,12.87,3.43,14a2.72,2.72,0,0,0,.52.39,3.21,3.21,0,0,0,1.12.42c-1.25-9.32,3.33-32.93,10.26-42.64,7.22-10.1,24.33-24.76,47.86-29.81l0,0A40.63,40.63,0,0,0,439.47,242.62Z" style="opacity:0.2"></path><path d="M386.54,314.85a79.49,79.49,0,0,1,1.33-20.59,66.67,66.67,0,0,1,6.83-19.53c3.49-6.08,8.5-11.05,13.83-15.45a77.82,77.82,0,0,1,17.74-10.63.06.06,0,0,1,.08,0,.07.07,0,0,1,0,.08,100.87,100.87,0,0,0-17.05,11.42,74,74,0,0,0-7.5,7,45.28,45.28,0,0,0-6.26,8,66,66,0,0,0-7.07,19.18,80,80,0,0,0-1.79,20.47.06.06,0,0,1,0,.06A.05.05,0,0,1,386.54,314.85Z" style="fill:#e0e0e0"></path></g></g></g></g><g id="freepik--Pictures--inject-2"><g id="freepik--Picture--inject-2"><g id="freepik--Frame--inject-2"><polygon points="148.34 113.88 150.57 115.21 196.31 88.8 194.08 87.47 148.34 113.88" style="fill:#fafafa"></polygon><polygon points="194.08 87.47 150.57 112.59 150.57 67.02 194.09 41.91 194.08 87.47" style="fill:#fff"></polygon><path d="M200.52,33.32,146.36,64.59v57.9l54.16-31.27ZM196.31,88.8l-45.74,26.41V67L196.31,40.6Z" style="fill:#f0f0f0"></path><polygon points="196.31 88.8 194.08 87.47 194.09 41.91 196.31 40.6 196.31 88.8" style="fill:#e0e0e0"></polygon><polygon points="200.52 33.32 198.26 32.02 144.1 63.29 146.36 64.59 200.52 33.32" style="fill:#fafafa"></polygon><polygon points="144.1 63.29 146.36 64.59 146.36 122.5 144.1 121.2 144.1 63.29" style="fill:#e0e0e0"></polygon></g><g id="freepik--Land--inject-2"><polygon points="192.38 86.11 152.27 109.27 152.27 97.69 162.3 74.52 168.55 80.31 166.3 90.02 180.15 60.4 192.38 74.53 192.38 86.11" style="fill:#f0f0f0"></polygon><path d="M168.17,63.34a6.57,6.57,0,0,0-3,5.14c0,1.89,1.33,2.66,3,1.71a6.54,6.54,0,0,0,3-5.14C171.14,63.16,169.81,62.39,168.17,63.34Z" style="fill:#f0f0f0"></path></g></g><g id="freepik--picture--inject-2"><g id="freepik--frame--inject-2"><polygon points="69.52 164.18 71.75 165.51 117.49 139.09 115.27 137.76 69.52 164.18" style="fill:#fafafa"></polygon><polygon points="115.27 137.76 71.75 162.88 71.75 117.31 115.27 92.21 115.27 137.76" style="fill:#fff"></polygon><path d="M121.7,83.62,67.54,114.88v57.91l54.16-31.27Zm-4.21,55.47L71.75,165.51v-48.2L117.49,90.9Z" style="fill:#f0f0f0"></path><polygon points="117.49 139.09 115.27 137.76 115.27 92.21 117.49 90.9 117.49 139.09" style="fill:#e0e0e0"></polygon><polygon points="121.7 83.61 119.44 82.32 65.28 113.59 67.54 114.88 121.7 83.61" style="fill:#fafafa"></polygon><polygon points="65.28 113.59 67.54 114.88 67.54 172.79 65.28 171.5 65.28 113.59" style="fill:#e0e0e0"></polygon></g><g id="freepik--land--inject-2"><polygon points="113.57 136.4 73.45 159.56 73.45 147.98 83.48 124.82 89.73 130.61 87.48 140.32 101.33 110.69 113.57 124.82 113.57 136.4" style="fill:#f0f0f0"></polygon><path d="M89.35,113.64a6.54,6.54,0,0,0-3,5.14c0,1.89,1.33,2.66,3,1.71a6.57,6.57,0,0,0,3-5.14C92.32,113.46,91,112.69,89.35,113.64Z" style="fill:#f0f0f0"></path></g></g></g><g id="freepik--Character--inject-2"><g id="freepik--character--inject-2"><g id="freepik--Bottom--inject-2"><path d="M213.73,367.13l9.68-19.07,30.93.91-35.47,39.88s-11.9-2.14-13.82-8.35S210.45,369.19,213.73,367.13Z" style="fill:#ffbda7"></path><path d="M202,376.75a10.16,10.16,0,0,0-2.06,3.42c-.54,1.3.81,6.78.59,9.5s-.64,3.51-1.22,7c-.64,3.84-2.5,7.61,2.19,16.2s10.12,12,14.41,13.51a10.3,10.3,0,0,0,4.86.19s4.65-2.91,3.28-5.73S202,376.75,202,376.75Z"></path><path d="M226.08,382.36c0,1-1,2.69-1.36,3.57-1.28,3-1.41,6.63-1.42,9.82,0,15.11,7.21,21.32.5,28.34-2,1.88-6.75,2.43-15.72-5.28-4.59-3.93-8.6-13.12-8.06-17.76s1.92-7.86,2.16-11.39-1.49-9.67-.22-12.91a13.62,13.62,0,0,1,3.75-4.81c1.21-1.12,4-2.84,5.27-3.93s1.84-2.16,3-1.32L212.71,369c-1.83,4-1,4.41-.58,6.27a30.16,30.16,0,0,1,.26,6.17c1.35-2.65,1.68-4.8,3.73-4.84s2.27-.2,5.63,1.89S226,381.5,226.08,382.36Z" style="fill:#455a64"></path><path d="M208.08,418.81c-4.59-3.93-8.6-13.12-8.06-17.76a40,40,0,0,1,.83-4.55c0,.31,0,.62,0,.88q0,.87.12,1.74a13.3,13.3,0,0,0,2.05,6.44c1.19,1.64,4,5.8,6.46,5.41,1.39-.23,2.29-1.81,2.51-3.47.09-.69.11-2.53.11-2.53a21.86,21.86,0,0,1,6.86,1.31c4,1.63,4,2.18,4,2.18a9.57,9.57,0,0,0,.51,3.13,8,8,0,0,0,1.94,2.83,5.24,5.24,0,0,0,1.05.54c.53,3.37.18,6.18-2.63,9.13C221.82,426,217.05,426.52,208.08,418.81Z" style="fill:#37474f"></path><path d="M223.3,395.75a50.47,50.47,0,0,0,1.43,11.78c-.58,4-1.77,4.11-2.32,2.22s.41-10.4,1-17.39C223.33,393.52,223.31,394.66,223.3,395.75Z" style="fill:#37474f"></path><path d="M209.79,374.27a8.24,8.24,0,0,1,.35-5.6c.31-.23.61-.46.84-.66,1.35-1.18,1.84-2.16,3-1.32L212.71,369c-1.83,4-1,4.41-.58,6.27a30.16,30.16,0,0,1,.26,6.17c-.21,6.59-1.14,9-.64,15.06s2.5,9.85,1.73,10.36-2.61.17-3.88-4.54-.77-13.14,0-17.24S210.6,376.75,209.79,374.27Z" style="fill:#37474f"></path><path d="M211.74,405.47a.55.55,0,0,0,.33.11c4.35,0,6.79.62,10.64,3.65a.61.61,0,0,0,.75-1c-4.07-3.2-6.75-3.9-11.38-3.91a.6.6,0,0,0-.61.6A.61.61,0,0,0,211.74,405.47Z" style="fill:#ebebeb"></path><path d="M211.49,400.36a.72.72,0,0,0,.33.11c4.52.13,7.17.87,11.24,4.06a.61.61,0,0,0,.88-.11.62.62,0,0,0-.11-.87c-4.3-3.36-7.18-4.19-12-4.33a.62.62,0,0,0-.64.61A.61.61,0,0,0,211.49,400.36Z" style="fill:#ebebeb"></path><path d="M210.28,394.92a.67.67,0,0,0,.37.11c5,.15,8.08,1.06,12.57,4.58a.69.69,0,0,0,.85-1.08c-4.73-3.7-8.1-4.71-13.38-4.87a.69.69,0,0,0-.71.67A.73.73,0,0,0,210.28,394.92Z" style="fill:#ebebeb"></path><path d="M210.13,390.09a.66.66,0,0,0,.36.11c4.89.14,7.88,1,12.3,4.47a.68.68,0,0,0,.94-.11.67.67,0,0,0-.12-.95c-4.63-3.62-7.9-4.6-13.08-4.75a.67.67,0,0,0-.69.65A.68.68,0,0,0,210.13,390.09Z" style="fill:#ebebeb"></path><path d="M210.93,385.2a.64.64,0,0,0,.36.11c4.89.14,7.88,1,12.3,4.47a.67.67,0,0,0,.94-.11.68.68,0,0,0-.12-.95c-4.64-3.63-7.9-4.6-13.08-4.75a.67.67,0,0,0-.69.65A.68.68,0,0,0,210.93,385.2Z" style="fill:#ebebeb"></path><path d="M193.81,299.23s41.92-10,61.57-9.91c20.05.13,24.61,13.7,20.87,26.82-5.51,19.33-42.71,56.78-47.19,61.25-2.74.1-13.26-7-14.13-12.63l11.28-25.84-35,10.22c-36.11-1.09-51.1-19.9-68.19-36.94Z" style="fill:#455a64"></path><path d="M241.11,313.32s-6.65,1.19-11.57,9.73a99.13,99.13,0,0,0-8,17.24l4.68-1.37C231,326.09,236.11,316.68,241.11,313.32Z" style="fill:#37474f"></path><path d="M246.28,316.87c1.92-2.34,2.88-3.51,2.49-4.84a1.67,1.67,0,0,0-1.52-1.12c-3-.5-10.09,2.47-14.07,8.11l-2.84,5.59-40.62,12,.22.76,40.79-12.06.16-.05,3-5.84c3.64-5.16,10.45-8.2,13.26-7.74.5.08.8.27.89.57.27.92-.6,2-2.35,4.1a91.45,91.45,0,0,0-10.41,15.45c-5.62,10.28-12.78,31.27-15,39.65l.76.21c2.2-8.12,9.47-29.41,15-39.48A89.67,89.67,0,0,1,246.28,316.87Z" style="fill:#37474f"></path><path d="M185.85,335.87a22.15,22.15,0,0,0,7.92-14.22s.77,10.45-4.75,16.92Z" style="fill:#37474f"></path><polygon points="218.24 361.81 232.33 370 240.08 373.28 234.48 389.78 210.08 382.57 218.24 361.81" style="fill:#ffbda7"></polygon><path d="M269.9,376.62c5.67,1.24,9.31,2.83,12.28,5.66s4.26,6,2.55,10.23-5.28,9.55-10.43,10.07-8.5-.25-13.65-2.06Z"></path><path d="M228,388c.19,1.61,7.43,3.71,15,5.93,8.08,2.37,10.3,4.4,16.9,6.43,7.55,2.32,10.24,2.09,15.42-.29s10.64-11.22,4.83-17.62c-4.74-5.21-9.92-6-17.72-6.79A142.29,142.29,0,0,1,244,372.79c-5.73-1.23-10.79-4.28-11.69-2.8.83.26,7,2.83,6.12,3.95-.18.53-1,.51-2.5.16a2.38,2.38,0,0,0-1.95.22,3.75,3.75,0,0,0-1.12,1.9,43.38,43.38,0,0,0-1,4.55c-.26,1.06-.18.46-.41,1.52s-.81,3-.54,4c.17.6.65.73,1.17.95s1.25.49,1.75.76c.2.11.6.52.53.77-.1.41-1.11.39-1.54.28s-1.14-.16-1.66-.26S229.35,388.35,228,388Z" style="fill:#455a64"></path><path d="M257.29,399.56c1.09.35,7.91,2.28,9.62.19,1.85-2.26-3.73-4.5-3.73-4.5s-1.55-4.67,3.1-12.64c1.13.62,5.3-.09,4.84-2.54s-7.93-4.34-8-4.37c7.46.77,12.44,1.66,17,6.72,5.81,6.4.36,15.25-4.83,17.62s-7.87,2.61-15.42.29C259.12,400.1,258,399.82,257.29,399.56Z" style="fill:#37474f"></path><path d="M263.78,394.66c2.79.46,1.36,3.16-2.64,3-6-.24-11.36-2.76-18.16-3.76-7.53-2.22-15.15-4.18-15-6,1.33.27,4.19.95,4.19.95.56.14,2,.43,2,.43,5.67,1.44,12.12,4.18,18.11,4.81C257.56,394.63,261,394.2,263.78,394.66Z" style="fill:#37474f"></path><path d="M266,383.58c-2.65-1-3.26-2.14-8.36-3.56s-13.89-4.8-19.32-6.9a61.64,61.64,0,0,1-6-3.13c.67-1.06,3.84-.69,7.17.74s5.38,2.34,8.63,3.42c6.4,2.57,13.43,3.87,17.11,5.48S268.69,384.59,266,383.58Z" style="fill:#37474f"></path><path d="M266.3,382.88a.7.7,0,0,1-.11.23,21.49,21.49,0,0,0-2.65,12.46.72.72,0,0,1-.56.77.58.58,0,0,1-.64-.59c-.55-8.15,2.72-13.15,2.9-13.42a.57.57,0,0,1,.85-.16A.71.71,0,0,1,266.3,382.88Z" style="fill:#f0f0f0"></path><path d="M261.05,380.2a.62.62,0,0,1-.1.22,29.42,29.42,0,0,0-3.39,14.75.7.7,0,0,1-.58.74.6.6,0,0,1-.63-.61A30.32,30.32,0,0,1,260,379.67a.58.58,0,0,1,.84-.2A.71.71,0,0,1,261.05,380.2Z" style="fill:#f0f0f0"></path><path d="M252.87,395.41a.71.71,0,0,1-.5.52.58.58,0,0,1-.68-.54c-1.09-8.54,3.1-17.39,3.32-17.7a.58.58,0,0,1,.85-.17.74.74,0,0,1,.09,1c0,.07-4.08,8.71-3.06,16.65A.93.93,0,0,1,252.87,395.41Z" style="fill:#f0f0f0"></path><path d="M248.07,393.34a.66.66,0,0,1-.48.5.57.57,0,0,1-.69-.52,25.37,25.37,0,0,1,3.78-16.9.56.56,0,0,1,.85-.1.74.74,0,0,1,.05,1A24.3,24.3,0,0,0,248.09,393,.65.65,0,0,1,248.07,393.34Z" style="fill:#f0f0f0"></path><path d="M242.06,391.86a.71.71,0,0,1-.48.51.58.58,0,0,1-.7-.51c-1.38-8.85,3.73-16.68,4-17a.56.56,0,0,1,.85-.12.71.71,0,0,1,.07.95c-.06.07-5,7.65-3.7,15.86A.81.81,0,0,1,242.06,391.86Z" style="fill:#ebebeb"></path><path d="M227.26,366.55s-23.19-17.2-35-25.19c-6.58-4.44-11.48-5.66-17-5.77l18.52-36.36L123,312.2s-7,26.54-1,42.22,21.83,20.68,29.4,21.27c8.87.68,21.2-.61,25.35-1.1l.6.45c8.49,6.15,45.35,12.6,45.35,12.6S228.91,377.52,227.26,366.55Z" style="fill:#455a64"></path><path d="M223.78,385.66c.11-.23.23-.47.35-.74-12.35-2.54-32.92-7-43-13.49a72.34,72.34,0,0,0-8.26-4.9c-1.18-.38-4.81-.29-7.84-.44l-2.12-.1c-13.26-.74-22.12-3.77-27.1-9.26-5.71-6.29-5.26-15.11-4.9-22.2.06-1.14.11-2.22.14-3.23.06-2.4.25-5.63.44-9.05.25-4.24.5-8.57.53-11.7l-.79.15c0,3.14-.29,7.49-.53,11.5-.2,3.43-.39,6.66-.44,9.08,0,1-.08,2.07-.14,3.21-.35,6.85-.83,16.23,5.1,22.78,5.13,5.65,14.17,8.76,27.64,9.51l2.14.1c3,.15,6.87.1,7.66.43.62.26,4.25,2.34,8,4.79C190.84,378.64,211.35,383.1,223.78,385.66Z" style="fill:#37474f"></path><path d="M130.79,339l-.08-.79c10.07-1.1,11.34-7.05,11.22-13.31-.15-6.94-.66-16-.66-16.06l.79,0c0,.09.52,9.13.66,16.09C142.85,331.18,141.53,337.8,130.79,339Z" style="fill:#37474f"></path><path d="M172,370.57c-4.52,1-18.88,3.4-29.91,0A34.88,34.88,0,0,1,122,354.42c6,15.69,21.83,20.68,29.4,21.27,8.66.67,20.6-.55,25-1.06l.33,0A40.48,40.48,0,0,1,172,370.57Z" style="fill:#37474f"></path><path d="M205.15,345.07a53.78,53.78,0,0,0-15.65-9.58c-9.08-3.36-32.8.1-32.8.1,15.73-.22,23.67-.18,28,1.78,5.34,2.41,13.28,8,15.1,9.26Z" style="fill:#37474f"></path></g><g id="freepik--Top--inject-2"><path d="M161.85,184.6c-2.43-.51-5.11-.73-7.36-1.59-2.91-1.1-5.75-2.41-8.58-3.7-4.34-2-6.43-4.58-9.07-8.42-.51-.75-3.91-7-4.83-7-4.46,0-7.12,2-9.7,4.71s-4.11,6.19-5.72,9.56c-1.36,2.85-3,6.16-5.19,8.42s-6.28,3-9.49,3.22c-3.44.22-6.9-.09-10.34.12a22.55,22.55,0,0,0-11.19,3.38,13.46,13.46,0,0,0-6.14,9.65,11.9,11.9,0,0,0,5,10.52c1.5,1.06,3.26,1.81,4.43,3.22,1.43,1.74,1.69,4.16,1.6,6.41s-.48,4.51-.1,6.74a10.17,10.17,0,0,0,8.22,8.11c3.82.6,7.85-1,11.53.14,2.44.78,4.34,2.68,6.53,4,6.86,4.18,14.65,2.54,21.62-.42,3-1.26,6.5-2.42,9.13-4.3,3-2.14,6.18-4.17,9.85-4.9,8.65-1.74,17.5-1.13,25.29-6,3.53-2.22,5.7-6.54,7.22-10.29s1.44-7.21.95-11a22,22,0,0,0-8.39-14.61c-3-2.19-6.56-3.28-10-4.44-1.66-.55-3.21-1-4.92-1.37Z" style="fill:#37474f"></path><path d="M310.25,250a6.74,6.74,0,0,0-3.85-1c-2.2,0-4.28.77-6.42,1.12-3.28.52-9,1.44-12.22.47-1.67-.5-1.82-1.29-.66-1.79a32.82,32.82,0,0,0,5-2.07,5.9,5.9,0,0,0,2.83-3.87,2.05,2.05,0,0,0-.22-1.44c-.4-.58-.85-.46-1.38-.29a12.65,12.65,0,0,1-1.73.36l-3.59.66c-7,1.35-14.13,3.28-19.63,8a36.51,36.51,0,0,1-11.77,6.34c-7.17,2.48-29,9.89-29,9.89s-14.64-13.72-22.67-22c-9.21-9.45-13.84-14.09-18.72-17.43-5.64-3.86-10.55-3.72-15.28-4.11l6.56,33.81s31.4,24.43,36.47,28.32c6.13,4.69,8.11,7.3,18.3,3.36,11.05-4.28,12.4-5.8,21.08-10.18,11.22-5.66,13-6.9,17.4-8.58,4.87-1.84,5.5-1.22,9.77-1a31.47,31.47,0,0,0,9-.66,29.51,29.51,0,0,0,7.52-2.31c1-.47,2.6-1,3.29-2s.83-1.94,1.59-2.75,2.11-1.4,2.86-2.4a11.31,11.31,0,0,0,1.15-2.69c.59-1.45,1.79-2,3.14-2.56a4.7,4.7,0,0,0,1.82-1.07C311.52,251.22,311,250.49,310.25,250Z" style="fill:#ffbda7"></path><path d="M170.86,222.7c5.78.11,9.79.43,14.37,3.25s9.77,8,16.1,14.21S227.67,266,227.67,266l16.1-5.15s-1.52,4.19.57,10.24a19.16,19.16,0,0,0,5.69,8.74,104.52,104.52,0,0,1-16.49,8.33c-10.23,4.18-12.77,2.54-16.33,0S176.47,257,176.47,257Z" style="fill:#455a64"></path><path d="M285.29,251.84a13.19,13.19,0,0,1-11.83,6.3s4.62,1.32,7.33-.25C284,256,284.46,254.65,285.29,251.84Z" style="fill:#f0997a"></path><path d="M124.4,304.28c1.35-5.8,2-7.74,2.47-11.69.51-4.14-2.46-14-6.19-24.13-6.48-17.66,2.76-32.67,5.14-40.54,6.05-1.6,14.84-3.53,14.84-3.53s15,.61,21.77-2.19l8.43.61c5.16,4.95,17.28,13.36,21.68,23.37,3,6.7,2.22,16-2.71,23.59.11,7.15.52,18.65.52,18.65s1.19,4.71,2.71,10.95c-1.14,11.83-16.55,26.46-38.25,28.77-25.45,2.7-34.13-4.1-34.13-4.1S120.67,320.43,124.4,304.28Z" style="fill:#7E57C2"></path><path d="M166.59,274s-5.69,7.66-17.68,6.82c-12.37-.86-15.19-11-15.19-11s0,13.38,14.81,14.42C162.15,285.19,166.59,274,166.59,274Z" style="opacity:0.2"></path><path d="M137.85,212.6c-.24-3.5-4.37-7.58-8.38-13.35-3.41-4.89-9.3-15-7.28-23.12,1-3.84,4.06-8.89,9.31-9.41.73-5.45,2.18-8.68,6.94-12.36,3.48-2.7,7.09-4.32,14.93-5,11.21-1,17.17,3.51,23.07,9.27,3.91,3.82,9.31.39,9.69-1.38,1.48,3.91.58,8.06-4.6,10.57,5.7,1.38,9.3,14.67-1.88,21.19Z" style="fill:#37474f"></path><path d="M168.06,163.75c2.36,1.36,8.16,6.24,10.82,22.61,2.78,17-2.85,23.16-5.21,25S167.34,214,160.81,214c0,0,.26,2.46.57,4.86s5.35,2.53,5.35,2.53,5.77,5.11,5.34,8.66c-.56,4.6-12,10.13-24,6.53-5.68-1.71-12.67-8.78-13.88-10,0,0,4.82-2,4.43-5.64-.5-4.76-1.52-16-1.52-16s-2.3,2.43-6.35.64c-5.46-2.42-7.44-8.88-5.09-12.92,2.45-4.2,7.79-4.16,11.35.59,2.94,3.92,8.66-3.27,8.58-9.6-.11-7.81-.8-12,3.83-14.93,2.23-1.43,4.6-.77,7.54.23C160.8,170.23,165.61,169.39,168.06,163.75Z" style="fill:#ffbda7"></path><path d="M158.61,199.78l7.83,1.23a3.8,3.8,0,0,1-4.39,3.36A4.16,4.16,0,0,1,158.61,199.78Z" style="fill:#b16668"></path><path d="M159.61,200.84a3.65,3.65,0,0,0-.93.25,4.14,4.14,0,0,0,3.37,3.28,3.83,3.83,0,0,0,2-.22A4,4,0,0,0,159.61,200.84Z" style="fill:#f28f8f"></path><path d="M158.58,185.91a2.11,2.11,0,1,1-2.65-1.5A2.14,2.14,0,0,1,158.58,185.91Z" style="fill:#263238"></path><path d="M174.62,178.26l-5.15-.51a2.48,2.48,0,0,1,2.74-2.35A2.71,2.71,0,0,1,174.62,178.26Z" style="fill:#263238"></path><path d="M156,179.79l-4.72,3.38a2.78,2.78,0,0,1,.56-4A3,3,0,0,1,156,179.79Z" style="fill:#263238"></path><path d="M174.36,182.91a2.11,2.11,0,1,1-2.64-1.5A2.16,2.16,0,0,1,174.36,182.91Z" style="fill:#263238"></path><polygon points="163.55 183.03 166.95 196.19 173.82 192.4 163.55 183.03" style="fill:#f0997a"></polygon><path d="M160.81,214c-8.49-.58-15.82-3.86-19-9a16.61,16.61,0,0,0,4.85,7.64c4.89,4.16,14.49,4.35,14.49,4.35Z" style="fill:#f0997a"></path><path d="M138.56,217.56c0,3.35.55,6.87,2.07,13.27s7.32,18.27,9.74,39,4.62,53.05,3.1,63.55c-5.74,1.77-26.44,4.11-34.51-2.16.63-8,5-27.9,5.94-34.39,1.06-7.49.26-12.91-3.25-21.42s-5.18-15.94-4.26-24.66,8.07-23.17,8.07-23.17,5.43-1.2,7.66-2S138.56,223.45,138.56,217.56Z" style="fill:#37474f"></path><path d="M125.46,227.56c1.69-.45,3.38-.93,5-1.45a34.66,34.66,0,0,0,4.85-1.83l.4.88a22.78,22.78,0,0,1-2.55.81c-.86.22-1.71.42-2.57.61C128.91,227,127.19,227.27,125.46,227.56Z" style="fill:#263238"></path><path d="M164.5,222.28c5.11,3.14,11.41,12.3,16.09,19.65s6.93,18.23,7.56,39.18c.47,15.93,1.57,34.2,1.57,34.2a37.12,37.12,0,0,0,6.07-8.89,23.68,23.68,0,0,0,2.12-8.14s-3.4-3.55-4.1-18.77c-.68-14.71,1.76-21.15.8-27.8-1.26-8.78-6.1-13-11.11-18.19a131,131,0,0,0-12.64-10.82Z" style="fill:#37474f"></path><path d="M146,247.75c-1-4.63,0-11.7.19-14.35s-.27-2.24-2.72-6.12-4.85-7.28-5.19-10.3l-.31-3.17s-1.09.24-1.05,2.88-.35,6.07-2.27,8C134.87,229.12,140.1,240.7,146,247.75Z" style="fill:#263238"></path><path d="M163,222a226.46,226.46,0,0,1,16.65,18.42c-4.11-5.46-4.67-13.14-5.37-16.21s-.57-2.54-3.69-4.11-9.76-6.15-9.76-6.15.3,3,.43,4.08A7.79,7.79,0,0,0,163,222Z" style="fill:#263238"></path><path d="M125.08,228.35c-8.65,2-13.78,4.54-17.33,12.18s-17.22,48.19-19.14,54.22-2.08,10-1.71,16.11c1,17,3.77,38.72,1.09,42.47s-13.7,9.36-16.32,12.48a88.57,88.57,0,0,0-7.25,10.87c-.8,1.53-.39,3.85,5.13,4.27,5.91.44,8.5.6,12.47-3.13,1.63-1.53,3.88-3.72,5.43-5.23,2.42-2.36,9.85-6.79,11.08-7,2-.31-1.47,3.88-3.46,6.13-1.49,1.68-2,4.31-.74,5.62,1,1.06,4.88-2.9,7.9-4.85,6.1-3.94,7.61-8,7.38-12.87s-1.69-13.67-1.51-18.44.11-9,.73-17.51q.65-8.87,1.32-17.74l18.37-43.43S134.2,242.79,125.08,228.35Z" style="fill:#ffbda7"></path><path d="M125.46,227.56c-8.55,2.19-13.6,2.89-18.74,14.06s-15.33,44.17-17.91,51.09-2.33,8.46-2.19,15.36c.12,5.71,1.68,21.32,1.68,21.32a18.21,18.21,0,0,1,10.83-3.95c6.79-.27,9.42,2.59,9.42,2.59l2.13-21.19s14-33.44,17.1-39.67C131.06,260.58,134.92,239.85,125.46,227.56Z" style="fill:#455a64"></path></g></g></g><g id="freepik--Octahedron--inject-2"><g id="freepik--Figure--inject-2"><polygon points="292.34 58.97 292.34 92.89 244.6 120.45 292.34 58.97" style="opacity:0.35000000000000003"></polygon><polygon points="307.03 101.37 354.77 128.94 307.03 190.42 307.03 101.37" style="fill:#7E57C2"></polygon><polygon points="307.03 101.37 354.77 128.94 307.03 190.42 307.03 101.37" style="fill:#fff;opacity:0.2"></polygon><polygon points="307.03 190.42 307.03 101.37 259.29 128.94 307.03 190.42" style="fill:#7E57C2"></polygon><polygon points="365.79 122.57 318.05 95.01 318.05 61.09 365.79 122.57" style="fill:#7E57C2"></polygon><polygon points="307.03 67.45 307.03 101.37 259.29 128.94 307.03 67.45" style="fill:#7E57C2"></polygon><polygon points="307.03 67.45 307.03 101.37 259.29 128.94 307.03 67.45" style="opacity:0.2"></polygon><path d="M307,101.37c.19,7.42.27,14.84.35,22.26l.1,22.27-.1,22.26-.13,11.13L307,190.42l-.22-11.13-.13-11.13-.1-22.26.11-22.27C306.76,116.21,306.84,108.79,307,101.37Z" style="fill:#7E57C2"></path><path d="M307,101.37c.19,7.42.27,14.84.35,22.26l.1,22.27-.1,22.26-.13,11.13L307,190.42l-.22-11.13-.13-11.13-.1-22.26.11-22.27C306.76,116.21,306.84,108.79,307,101.37Z" style="opacity:0.15"></path><path d="M353.9,129.69a.25.25,0,0,1-.12-.47l.49-.28-.49-.29a.25.25,0,1,1,.25-.43l.87.5a.26.26,0,0,1,.12.22.26.26,0,0,1-.12.21l-.87.5A.28.28,0,0,1,353.9,129.69Z" style="fill:#fafafa"></path><path d="M309.6,155.26a.26.26,0,0,1-.22-.12.26.26,0,0,1,.1-.34l1.7-1a.25.25,0,0,1,.34.09.26.26,0,0,1-.09.35l-1.7,1A.31.31,0,0,1,309.6,155.26Zm3.41-2a.26.26,0,0,1-.22-.13.26.26,0,0,1,.09-.34l1.71-1a.25.25,0,0,1,.25.43l-1.71,1A.17.17,0,0,1,313,153.3Zm3.41-2a.26.26,0,0,1-.22-.13.25.25,0,0,1,.09-.34l1.71-1a.25.25,0,0,1,.25.43l-1.71,1A.19.19,0,0,1,316.42,151.33Zm3.41-2a.25.25,0,0,1-.22-.12.26.26,0,0,1,.09-.35l1.7-1a.25.25,0,1,1,.25.43l-1.7,1Zm3.4-2a.24.24,0,0,1-.21-.12.25.25,0,0,1,.09-.34l1.7-1a.25.25,0,0,1,.34.09.26.26,0,0,1-.09.35l-1.7,1A.28.28,0,0,1,323.23,147.39Zm3.41-2a.25.25,0,0,1-.12-.47l1.7-1a.25.25,0,0,1,.25.43l-1.7,1A.22.22,0,0,1,326.64,145.43Zm3.41-2a.26.26,0,0,1-.22-.13.25.25,0,0,1,.09-.34l1.71-1a.25.25,0,0,1,.25.43l-1.71,1A.19.19,0,0,1,330.05,143.46Zm3.41-2a.25.25,0,0,1-.22-.12.26.26,0,0,1,.09-.35l1.71-1a.25.25,0,0,1,.25.43l-1.71,1Zm3.4-2a.24.24,0,0,1-.21-.12.25.25,0,0,1,.09-.34l1.7-1a.26.26,0,0,1,.35.09.27.27,0,0,1-.1.35l-1.7,1A.28.28,0,0,1,336.86,139.52Zm3.41-2a.25.25,0,0,1-.12-.47l1.7-1a.25.25,0,1,1,.25.43l-1.7,1A.28.28,0,0,1,340.27,137.56Zm3.41-2a.25.25,0,0,1-.12-.47l1.7-1a.25.25,0,0,1,.25.43l-1.7,1A.22.22,0,0,1,343.68,135.59Zm3.41-2a.25.25,0,0,1-.22-.12.26.26,0,0,1,.09-.35l1.71-1a.25.25,0,0,1,.25.43l-1.71,1A.27.27,0,0,1,347.09,133.62Zm3.41-2a.25.25,0,0,1-.22-.12.25.25,0,0,1,.09-.34l1.71-1a.25.25,0,0,1,.34.09.27.27,0,0,1-.09.35l-1.71,1A.27.27,0,0,1,350.5,131.65Z" style="fill:#fafafa"></path><path d="M307,156.75a.19.19,0,0,1-.12,0l-.87-.5a.25.25,0,0,1,.25-.43l.74.43.74-.43a.25.25,0,0,1,.25.43l-.86.5A.22.22,0,0,1,307,156.75Z" style="fill:#fafafa"></path><path d="M304.46,155.26l-.12,0-1.71-1a.26.26,0,0,1-.09-.35.25.25,0,0,1,.34-.09l1.71,1a.25.25,0,0,1,.09.34A.25.25,0,0,1,304.46,155.26Zm-3.41-2a.19.19,0,0,1-.12,0l-1.71-1a.25.25,0,0,1,.25-.43l1.71,1a.25.25,0,0,1,.09.34A.26.26,0,0,1,301.05,153.3Zm-3.41-2a.19.19,0,0,1-.12,0l-1.7-1a.25.25,0,1,1,.25-.43l1.7,1a.25.25,0,0,1,.09.34A.26.26,0,0,1,297.64,151.33Zm-3.4-2a.28.28,0,0,1-.13,0l-1.7-1a.25.25,0,0,1,.25-.43l1.7,1a.26.26,0,0,1,.09.35A.24.24,0,0,1,294.24,149.36Zm-3.41-2a.31.31,0,0,1-.13,0l-1.7-1a.26.26,0,0,1-.09-.35.25.25,0,0,1,.34-.09l1.7,1a.25.25,0,0,1,.09.34A.24.24,0,0,1,290.83,147.39Zm-3.41-2a.17.17,0,0,1-.12,0l-1.71-1a.25.25,0,1,1,.25-.43l1.71,1a.25.25,0,0,1,.09.34A.26.26,0,0,1,287.42,145.43Zm-3.41-2a.19.19,0,0,1-.12,0l-1.71-1a.25.25,0,0,1,.25-.43l1.71,1a.25.25,0,0,1,.09.34A.26.26,0,0,1,284,143.46Zm-3.41-2-.12,0-1.7-1A.25.25,0,1,1,279,140l1.7,1a.26.26,0,0,1,.09.35A.25.25,0,0,1,280.6,141.49Zm-3.4-2a.28.28,0,0,1-.13,0l-1.7-1a.26.26,0,0,1-.09-.35.24.24,0,0,1,.34-.09l1.7,1a.25.25,0,0,1,.09.34A.24.24,0,0,1,277.2,139.52Zm-3.41-2a.33.33,0,0,1-.13,0l-1.7-1a.25.25,0,0,1,.25-.43l1.7,1a.25.25,0,0,1-.12.47Zm-3.41-2a.22.22,0,0,1-.13,0l-1.7-1a.25.25,0,0,1,.25-.43l1.7,1a.25.25,0,0,1,.1.34A.26.26,0,0,1,270.38,135.59Zm-3.41-2a.27.27,0,0,1-.12,0l-1.71-1a.25.25,0,1,1,.25-.43l1.71,1a.26.26,0,0,1,.09.35A.25.25,0,0,1,267,133.62Zm-3.41-2a.27.27,0,0,1-.12,0l-1.71-1a.27.27,0,0,1-.09-.35.25.25,0,0,1,.34-.09l1.71,1a.25.25,0,0,1,.09.34A.25.25,0,0,1,263.56,131.65Z" style="fill:#fafafa"></path><path d="M260.16,129.69a.28.28,0,0,1-.13,0l-.86-.5a.24.24,0,0,1-.13-.21.25.25,0,0,1,.13-.22l.86-.5a.25.25,0,0,1,.25.43l-.49.29.49.28a.25.25,0,0,1-.12.47Z" style="fill:#fafafa"></path><path d="M261.86,127.7a.25.25,0,0,1-.22-.12.26.26,0,0,1,.1-.34l1.7-1a.25.25,0,0,1,.25.43l-1.7,1A.31.31,0,0,1,261.86,127.7Zm3.41-2a.25.25,0,0,1-.22-.12.25.25,0,0,1,.09-.34l1.71-1a.24.24,0,0,1,.34.1.25.25,0,0,1-.09.34l-1.71,1A.27.27,0,0,1,265.27,125.73Zm3.41-2a.26.26,0,0,1-.22-.13.25.25,0,0,1,.09-.34l1.71-1a.25.25,0,0,1,.34.09.26.26,0,0,1-.09.34l-1.71,1A.19.19,0,0,1,268.68,123.77Zm3.4-2a.26.26,0,0,1-.21-.13.25.25,0,0,1,.09-.34l1.7-1a.25.25,0,1,1,.25.43l-1.7,1A.28.28,0,0,1,272.08,121.8Zm3.41-2a.24.24,0,0,1-.21-.12.26.26,0,0,1,.09-.35l1.7-1a.25.25,0,0,1,.25.43l-1.7,1A.28.28,0,0,1,275.49,119.83Zm3.41-2a.25.25,0,0,1-.22-.12.26.26,0,0,1,.1-.34l1.7-1a.25.25,0,0,1,.34.09.26.26,0,0,1-.09.35l-1.7,1A.31.31,0,0,1,278.9,117.86Zm3.41-2a.26.26,0,0,1-.22-.13.25.25,0,0,1,.09-.34l1.71-1a.25.25,0,0,1,.25.43l-1.71,1A.28.28,0,0,1,282.31,115.9Zm3.41-2a.26.26,0,0,1-.22-.13.25.25,0,0,1,.09-.34l1.71-1a.25.25,0,0,1,.25.43l-1.71,1A.19.19,0,0,1,285.72,113.93Zm3.4-2a.25.25,0,0,1-.21-.12.26.26,0,0,1,.09-.35l1.7-1a.25.25,0,1,1,.25.43l-1.7,1A.28.28,0,0,1,289.12,112Zm3.41-2a.24.24,0,0,1-.21-.12.25.25,0,0,1,.09-.34l1.7-1a.25.25,0,0,1,.34.09.26.26,0,0,1-.09.35l-1.7,1A.28.28,0,0,1,292.53,110Zm3.41-2a.26.26,0,0,1-.22-.12.26.26,0,0,1,.1-.34l1.7-1a.26.26,0,0,1,.34.1.25.25,0,0,1-.09.34l-1.7,1A.31.31,0,0,1,295.94,108Zm3.41-2a.26.26,0,0,1-.22-.13.26.26,0,0,1,.09-.34l1.71-1a.25.25,0,0,1,.25.43l-1.71,1A.17.17,0,0,1,299.35,106.06Zm3.41-2a.26.26,0,0,1-.22-.13.25.25,0,0,1,.09-.34l1.71-1a.25.25,0,0,1,.25.43l-1.71,1A.27.27,0,0,1,302.76,104.09Z" style="fill:#fafafa"></path><path d="M307.9,102.12a.28.28,0,0,1-.13,0l-.74-.43-.74.43a.25.25,0,1,1-.25-.43l.87-.5a.23.23,0,0,1,.25,0l.86.5a.24.24,0,0,1,.09.34A.24.24,0,0,1,307.9,102.12Z" style="fill:#fafafa"></path><path d="M352.2,127.7l-.12,0-1.71-1a.25.25,0,1,1,.25-.43l1.71,1a.24.24,0,0,1,.09.34A.25.25,0,0,1,352.2,127.7Zm-3.41-2a.27.27,0,0,1-.12,0l-1.71-1a.25.25,0,0,1-.09-.34.24.24,0,0,1,.34-.1l1.71,1a.25.25,0,0,1,.09.34A.25.25,0,0,1,348.79,125.73Zm-3.41-2a.19.19,0,0,1-.12,0l-1.7-1a.25.25,0,1,1,.25-.43l1.7,1a.25.25,0,0,1,.09.34A.26.26,0,0,1,345.38,123.77Zm-3.4-2a.2.2,0,0,1-.13,0l-1.7-1a.25.25,0,1,1,.25-.43l1.7,1a.25.25,0,0,1-.12.47Zm-3.41-2a.31.31,0,0,1-.13,0l-1.7-1a.25.25,0,1,1,.25-.43l1.7,1a.27.27,0,0,1,.1.35A.25.25,0,0,1,338.57,119.83Zm-3.41-2a.27.27,0,0,1-.12,0l-1.71-1a.26.26,0,0,1-.09-.35.25.25,0,0,1,.34-.09l1.71,1a.25.25,0,0,1,.09.34A.25.25,0,0,1,335.16,117.86Zm-3.41-2a.28.28,0,0,1-.12,0l-1.71-1a.25.25,0,1,1,.25-.43l1.71,1a.25.25,0,0,1,.09.34A.26.26,0,0,1,331.75,115.9Zm-3.41-2a.19.19,0,0,1-.12,0l-1.7-1a.25.25,0,1,1,.25-.43l1.7,1a.25.25,0,0,1,.09.34A.26.26,0,0,1,328.34,113.93Zm-3.4-2a.28.28,0,0,1-.13,0l-1.7-1a.25.25,0,0,1,.25-.43l1.7,1a.26.26,0,0,1,.09.35A.24.24,0,0,1,324.94,112Zm-3.41-2a.31.31,0,0,1-.13,0l-1.7-1a.26.26,0,0,1-.09-.35.25.25,0,0,1,.34-.09l1.7,1a.26.26,0,0,1,.1.34A.25.25,0,0,1,321.53,110Zm-3.41-2a.27.27,0,0,1-.12,0l-1.71-1a.25.25,0,0,1-.09-.34.26.26,0,0,1,.34-.1l1.71,1a.25.25,0,0,1,.09.34A.25.25,0,0,1,318.12,108Zm-3.41-2a.19.19,0,0,1-.12,0l-1.71-1a.26.26,0,0,1-.09-.34.25.25,0,0,1,.34-.09l1.71,1a.25.25,0,0,1,.09.34A.26.26,0,0,1,314.71,106.06Zm-3.4-2a.28.28,0,0,1-.13,0l-1.7-1a.25.25,0,1,1,.25-.43l1.7,1a.25.25,0,0,1,.09.34A.24.24,0,0,1,311.31,104.09Z" style="fill:#fafafa"></path><path d="M307,155.86a.25.25,0,0,1-.25-.25v-2a.25.25,0,0,1,.5,0v2A.25.25,0,0,1,307,155.86Zm0-4a.25.25,0,0,1-.25-.25v-2a.25.25,0,0,1,.5,0v2A.25.25,0,0,1,307,151.86Zm0-4a.25.25,0,0,1-.25-.25v-2a.25.25,0,0,1,.5,0v2A.25.25,0,0,1,307,147.86Zm0-4a.25.25,0,0,1-.25-.25v-2a.25.25,0,0,1,.5,0v2A.25.25,0,0,1,307,143.86Zm0-4a.25.25,0,0,1-.25-.25v-2a.25.25,0,0,1,.5,0v2A.25.25,0,0,1,307,139.86Zm0-4a.25.25,0,0,1-.25-.25v-2a.25.25,0,0,1,.5,0v2A.25.25,0,0,1,307,135.86Zm0-4a.25.25,0,0,1-.25-.25v-2a.25.25,0,0,1,.5,0v2A.25.25,0,0,1,307,131.86Zm47.74-2.67a.28.28,0,0,1-.2-.1l-1.22-1.58a.25.25,0,0,1,.39-.31l1.23,1.58a.25.25,0,0,1-.05.35A.22.22,0,0,1,354.77,129.19ZM307,127.86a.25.25,0,0,1-.25-.25v-2a.25.25,0,0,1,.5,0v2A.25.25,0,0,1,307,127.86ZM352.32,126a.26.26,0,0,1-.2-.1l-1.23-1.58a.25.25,0,0,1,.05-.35.24.24,0,0,1,.35,0l1.22,1.58a.26.26,0,0,1-.19.41ZM307,123.86a.25.25,0,0,1-.25-.25v-2a.25.25,0,0,1,.5,0v2A.25.25,0,0,1,307,123.86Zm42.83-1a.26.26,0,0,1-.19-.1l-1.23-1.58a.26.26,0,0,1,0-.35.24.24,0,0,1,.35,0l1.23,1.58a.24.24,0,0,1,0,.35A.25.25,0,0,1,349.86,122.87Zm-42.83-3a.25.25,0,0,1-.25-.25v-2a.25.25,0,0,1,.5,0v2A.25.25,0,0,1,307,119.86Zm40.38-.15a.28.28,0,0,1-.2-.1L346,118a.25.25,0,0,1,.39-.31l1.23,1.58a.25.25,0,0,1-.05.35A.22.22,0,0,1,347.41,119.71ZM345,116.55a.26.26,0,0,1-.2-.1l-1.23-1.58a.25.25,0,0,1,.05-.35.24.24,0,0,1,.35,0l1.23,1.58a.25.25,0,0,1-.05.35A.22.22,0,0,1,345,116.55ZM307,115.86a.25.25,0,0,1-.25-.25v-2a.25.25,0,0,1,.5,0v2A.25.25,0,0,1,307,115.86Zm35.47-2.47a.26.26,0,0,1-.19-.1l-1.23-1.58a.25.25,0,0,1,.4-.31L342.7,113a.24.24,0,0,1,0,.35A.25.25,0,0,1,342.5,113.39ZM307,111.86a.25.25,0,0,1-.25-.25v-2a.25.25,0,0,1,.5,0v2A.25.25,0,0,1,307,111.86Zm33-1.63a.28.28,0,0,1-.2-.1l-1.22-1.58a.24.24,0,0,1,0-.35.25.25,0,0,1,.35,0l1.23,1.57a.28.28,0,0,1,0,.36A.3.3,0,0,1,340.05,110.23Zm-33-2.37a.25.25,0,0,1-.25-.25v-2a.25.25,0,0,1,.5,0v2A.25.25,0,0,1,307,107.86Zm30.57-.79a.23.23,0,0,1-.2-.1l-1.23-1.58a.25.25,0,0,1,.4-.3l1.23,1.58a.26.26,0,0,1-.05.35A.27.27,0,0,1,337.6,107.07Zm-2.45-3.16a.23.23,0,0,1-.2-.1l-1.23-1.58a.25.25,0,0,1,.4-.3l1.22,1.58a.24.24,0,0,1,0,.35A.3.3,0,0,1,335.15,103.91Zm-28.12,0a.25.25,0,0,1-.25-.25v-2a.25.25,0,0,1,.5,0v2A.25.25,0,0,1,307,103.86Zm25.66-3.11a.22.22,0,0,1-.19-.1l-1.23-1.58a.24.24,0,0,1,0-.35.25.25,0,0,1,.35,0l1.23,1.58a.25.25,0,0,1,0,.35A.3.3,0,0,1,332.69,100.75ZM307,99.86a.25.25,0,0,1-.25-.25v-2a.25.25,0,0,1,.5,0v2A.25.25,0,0,1,307,99.86Zm23.21-2.27a.25.25,0,0,1-.2-.1l-1.22-1.58a.24.24,0,0,1,0-.35.25.25,0,0,1,.35,0l1.23,1.58a.25.25,0,0,1-.05.35A.27.27,0,0,1,330.24,97.59ZM307,95.86a.25.25,0,0,1-.25-.25v-2a.25.25,0,0,1,.5,0v2A.25.25,0,0,1,307,95.86Zm20.76-1.43a.23.23,0,0,1-.2-.1l-1.23-1.58a.25.25,0,0,1,.4-.3L328,94a.24.24,0,0,1,0,.35A.3.3,0,0,1,327.79,94.43ZM307,91.86a.25.25,0,0,1-.25-.25v-2a.25.25,0,0,1,.5,0v2A.25.25,0,0,1,307,91.86Zm18.3-.59a.22.22,0,0,1-.19-.1l-1.23-1.58a.24.24,0,0,1,0-.35.25.25,0,0,1,.35.05l1.23,1.58a.24.24,0,0,1,0,.35A.3.3,0,0,1,325.33,91.27Zm-2.45-3.16a.27.27,0,0,1-.2-.09l-1.22-1.58a.26.26,0,0,1,0-.36.25.25,0,0,1,.35,0l1.23,1.58a.25.25,0,0,1-.05.35A.27.27,0,0,1,322.88,88.11ZM307,87.86a.25.25,0,0,1-.25-.25v-2a.25.25,0,0,1,.5,0v2A.25.25,0,0,1,307,87.86ZM320.43,85a.25.25,0,0,1-.2-.09L319,83.28a.25.25,0,0,1,.05-.35.24.24,0,0,1,.35,0l1.22,1.58a.24.24,0,0,1,0,.35A.21.21,0,0,1,320.43,85ZM307,83.86a.25.25,0,0,1-.25-.25v-2a.25.25,0,0,1,.5,0v2A.25.25,0,0,1,307,83.86ZM318,81.79a.25.25,0,0,1-.19-.09l-1.23-1.58a.26.26,0,0,1,0-.35.26.26,0,0,1,.36,0l1.22,1.58a.24.24,0,0,1,0,.35A.24.24,0,0,1,318,81.79ZM307,79.86a.25.25,0,0,1-.25-.25v-2a.25.25,0,0,1,.5,0v2A.25.25,0,0,1,307,79.86Zm8.49-1.23a.27.27,0,0,1-.2-.09L314.1,77a.25.25,0,0,1,.39-.31l1.23,1.58a.25.25,0,0,1-.05.35A.2.2,0,0,1,315.52,78.63ZM307,75.86a.25.25,0,0,1-.25-.25v-2a.25.25,0,0,1,.5,0v2A.25.25,0,0,1,307,75.86Zm6-.39a.25.25,0,0,1-.2-.09l-1.23-1.58a.25.25,0,0,1,.05-.35.24.24,0,0,1,.35,0l1.23,1.58a.25.25,0,0,1,0,.35A.21.21,0,0,1,313.07,75.47Zm-2.45-3.16a.25.25,0,0,1-.2-.09l-1.23-1.58a.25.25,0,0,1,.05-.35.24.24,0,0,1,.35,0l1.22,1.58a.24.24,0,0,1,0,.35A.23.23,0,0,1,310.62,72.31ZM307,71.86a.25.25,0,0,1-.25-.25v-2a.25.25,0,0,1,.5,0v2A.25.25,0,0,1,307,71.86Zm1.13-2.71a.27.27,0,0,1-.2-.09l-.93-1.2a.26.26,0,0,1-.25-.25v-.16a.25.25,0,0,1,.45-.15l1.13,1.45a.26.26,0,0,1,0,.35A.24.24,0,0,1,308.16,69.15Z" style="fill:#fafafa"></path><path d="M307,155.85a.25.25,0,0,1-.25-.25v-2a.25.25,0,0,1,.5,0v2A.25.25,0,0,1,307,155.85Zm0-4a.25.25,0,0,1-.25-.25v-2a.25.25,0,0,1,.5,0v2A.25.25,0,0,1,307,151.85Zm0-4a.25.25,0,0,1-.25-.25v-2a.25.25,0,0,1,.5,0v2A.25.25,0,0,1,307,147.85Zm0-4a.25.25,0,0,1-.25-.25v-2a.25.25,0,0,1,.5,0v2A.25.25,0,0,1,307,143.85Zm0-4a.25.25,0,0,1-.25-.25v-2a.25.25,0,0,1,.5,0v2A.25.25,0,0,1,307,139.85Zm0-4a.25.25,0,0,1-.25-.25v-2a.25.25,0,0,1,.5,0v2A.25.25,0,0,1,307,135.85Zm0-4a.25.25,0,0,1-.25-.25v-2a.25.25,0,0,1,.5,0v2A.25.25,0,0,1,307,131.85Zm-47.74-2.66a.22.22,0,0,1-.15-.06.25.25,0,0,1-.05-.35l1.23-1.58a.25.25,0,1,1,.39.31l-1.22,1.58A.28.28,0,0,1,259.29,129.19ZM307,127.85a.25.25,0,0,1-.25-.25v-2a.25.25,0,0,1,.5,0v2A.25.25,0,0,1,307,127.85ZM261.74,126a.26.26,0,0,1-.19-.41l1.22-1.58a.24.24,0,0,1,.35,0,.25.25,0,0,1,.05.35l-1.23,1.58A.26.26,0,0,1,261.74,126ZM307,123.85a.25.25,0,0,1-.25-.25v-2a.25.25,0,0,1,.5,0v2A.25.25,0,0,1,307,123.85Zm-42.83-1a.25.25,0,0,1-.16-.06.24.24,0,0,1,0-.35l1.23-1.58a.25.25,0,1,1,.39.31l-1.23,1.58A.26.26,0,0,1,264.2,122.87Zm42.83-3a.25.25,0,0,1-.25-.25v-2a.25.25,0,0,1,.5,0v2A.25.25,0,0,1,307,119.85Zm-40.38-.14a.22.22,0,0,1-.15-.06.25.25,0,0,1-.05-.35l1.23-1.58a.25.25,0,1,1,.39.31l-1.22,1.58A.28.28,0,0,1,266.65,119.71Zm2.45-3.16a.3.3,0,0,1-.15,0,.26.26,0,0,1,0-.36l1.22-1.58a.26.26,0,0,1,.35,0,.25.25,0,0,1,0,.35l-1.23,1.58A.26.26,0,0,1,269.1,116.55Zm37.93-.7a.25.25,0,0,1-.25-.25v-2a.25.25,0,0,1,.5,0v2A.25.25,0,0,1,307,115.85Zm-35.47-2.46a.3.3,0,0,1-.16,0,.26.26,0,0,1,0-.36l1.22-1.57a.27.27,0,0,1,.36,0,.26.26,0,0,1,0,.35l-1.23,1.58A.26.26,0,0,1,271.56,113.39ZM307,111.85a.25.25,0,0,1-.25-.25v-2a.25.25,0,0,1,.5,0v2A.25.25,0,0,1,307,111.85Zm-33-1.62a.27.27,0,0,1-.15,0,.26.26,0,0,1-.05-.35l1.23-1.58a.25.25,0,0,1,.35,0,.24.24,0,0,1,0,.35l-1.22,1.58A.25.25,0,0,1,274,110.23Zm33-2.38a.25.25,0,0,1-.25-.25v-2a.25.25,0,0,1,.5,0v2A.25.25,0,0,1,307,107.85Zm-30.57-.78a.27.27,0,0,1-.15,0,.26.26,0,0,1-.05-.35l1.23-1.58a.25.25,0,0,1,.4.3L276.66,107A.23.23,0,0,1,276.46,107.07Zm2.46-3.16a.3.3,0,0,1-.16,0,.24.24,0,0,1,0-.35l1.22-1.58a.25.25,0,0,1,.4.3l-1.23,1.58A.23.23,0,0,1,278.92,103.91Zm28.11-.06a.25.25,0,0,1-.25-.25v-2a.25.25,0,0,1,.5,0v2A.25.25,0,0,1,307,103.85Zm-25.66-3.1a.3.3,0,0,1-.16,0,.26.26,0,0,1,0-.35l1.23-1.58a.25.25,0,0,1,.35,0,.24.24,0,0,1,0,.35l-1.22,1.58A.25.25,0,0,1,281.37,100.75Zm25.66-.9a.25.25,0,0,1-.25-.25v-2a.25.25,0,0,1,.5,0v2A.25.25,0,0,1,307,99.85Zm-23.21-2.26a.27.27,0,0,1-.15,0,.25.25,0,0,1-.05-.35l1.23-1.58a.25.25,0,0,1,.4.3L284,97.49A.23.23,0,0,1,283.82,97.59ZM307,95.85a.25.25,0,0,1-.25-.25v-2a.25.25,0,0,1,.5,0v2A.25.25,0,0,1,307,95.85Zm-20.76-1.42a.3.3,0,0,1-.15-.05.24.24,0,0,1,0-.35l1.22-1.58a.25.25,0,0,1,.35,0,.27.27,0,0,1,.05.36l-1.23,1.57A.23.23,0,0,1,286.27,94.43ZM307,91.85a.25.25,0,0,1-.25-.25v-2a.25.25,0,0,1,.5,0v2A.25.25,0,0,1,307,91.85Zm-18.3-.58a.3.3,0,0,1-.16,0,.25.25,0,0,1,0-.35l1.23-1.58a.25.25,0,1,1,.39.31l-1.23,1.58A.23.23,0,0,1,288.73,91.27Zm2.45-3.16a.21.21,0,0,1-.15,0,.25.25,0,0,1,0-.35l1.23-1.58a.25.25,0,0,1,.39.31L291.38,88A.27.27,0,0,1,291.18,88.11ZM307,87.85a.25.25,0,0,1-.25-.25v-2a.25.25,0,0,1,.5,0v2A.25.25,0,0,1,307,87.85ZM293.63,85a.23.23,0,0,1-.15,0,.24.24,0,0,1,0-.35L294.66,83a.24.24,0,0,1,.35,0,.25.25,0,0,1,.05.35l-1.23,1.58A.25.25,0,0,1,293.63,85Zm13.4-1.1a.25.25,0,0,1-.25-.25v-2a.25.25,0,0,1,.5,0v2A.25.25,0,0,1,307,83.85Zm-10.94-2.06a.24.24,0,0,1-.16-.05.24.24,0,0,1,0-.35l1.23-1.58a.25.25,0,1,1,.39.31l-1.23,1.58A.23.23,0,0,1,296.09,81.79ZM307,79.85a.25.25,0,0,1-.25-.25v-2a.25.25,0,0,1,.5,0v2A.25.25,0,0,1,307,79.85Zm-8.49-1.22a.21.21,0,0,1-.15,0,.25.25,0,0,1-.05-.35l1.23-1.58A.25.25,0,1,1,300,77l-1.22,1.58A.27.27,0,0,1,298.54,78.63ZM307,75.85a.25.25,0,0,1-.25-.25v-2a.25.25,0,0,1,.5,0v2A.25.25,0,0,1,307,75.85Zm-6-.37a.26.26,0,0,1-.19-.41L302,73.49a.24.24,0,0,1,.35,0,.25.25,0,0,1,.05.35l-1.23,1.58A.26.26,0,0,1,301,75.48Zm2.46-3.16a.25.25,0,0,1-.16-.06.24.24,0,0,1,0-.35l1.23-1.58a.25.25,0,0,1,.39.31l-1.23,1.58A.26.26,0,0,1,303.45,72.32Zm3.58-.47a.25.25,0,0,1-.25-.25v-2a.25.25,0,0,1,.5,0v2A.25.25,0,0,1,307,71.85Zm-1.13-2.69a.22.22,0,0,1-.15-.06.25.25,0,0,1-.05-.35l1.13-1.45a.25.25,0,0,1,.45.15v.15a.25.25,0,0,1-.25.25l-.93,1.21A.28.28,0,0,1,305.9,69.16Z" style="fill:#fafafa"></path><path d="M307,190.67H307a.26.26,0,0,1-.17-.24V188.5a.25.25,0,0,1,.5,0v1.71a.27.27,0,0,1,0,.3l0,.06A.23.23,0,0,1,307,190.67ZM308.3,189a.3.3,0,0,1-.15-.05.24.24,0,0,1,0-.35l1.22-1.58a.25.25,0,0,1,.4.3l-1.23,1.58A.23.23,0,0,1,308.3,189ZM307,186.75a.25.25,0,0,1-.25-.25v-2a.25.25,0,0,1,.5,0v2A.25.25,0,0,1,307,186.75Zm3.73-.88a.3.3,0,0,1-.16-.05.26.26,0,0,1,0-.35l1.23-1.58a.25.25,0,0,1,.35,0,.24.24,0,0,1,0,.35L311,185.77A.25.25,0,0,1,310.76,185.87ZM307,182.75a.25.25,0,0,1-.25-.25v-2a.25.25,0,0,1,.5,0v2A.25.25,0,0,1,307,182.75Zm6.18,0a.27.27,0,0,1-.15-.05.25.25,0,0,1-.05-.35l1.23-1.58a.25.25,0,0,1,.35,0,.24.24,0,0,1,0,.35l-1.22,1.58A.23.23,0,0,1,313.21,182.71Zm2.45-3.16a.3.3,0,0,1-.15-.05.24.24,0,0,1,0-.35l1.22-1.58a.25.25,0,0,1,.35,0,.27.27,0,0,1,0,.36l-1.23,1.57A.23.23,0,0,1,315.66,179.55Zm-8.63-.8a.25.25,0,0,1-.25-.25v-2a.25.25,0,0,1,.5,0v2A.25.25,0,0,1,307,178.75Zm11.09-2.36a.24.24,0,0,1-.16,0,.24.24,0,0,1,0-.35l1.23-1.58a.25.25,0,0,1,.35,0,.26.26,0,0,1,0,.36l-1.23,1.58A.23.23,0,0,1,318.12,176.39ZM307,174.75a.25.25,0,0,1-.25-.25v-2a.25.25,0,0,1,.5,0v2A.25.25,0,0,1,307,174.75Zm13.54-1.52a.21.21,0,0,1-.15,0,.25.25,0,0,1-.05-.35l1.23-1.58a.25.25,0,1,1,.39.31l-1.22,1.58A.27.27,0,0,1,320.57,173.23ZM307,170.75a.25.25,0,0,1-.25-.25v-2a.25.25,0,0,1,.5,0v2A.25.25,0,0,1,307,170.75Zm16-.68a.23.23,0,0,1-.15,0,.24.24,0,0,1,0-.35l1.22-1.58a.24.24,0,0,1,.35,0,.25.25,0,0,1,.05.35L323.22,170A.25.25,0,0,1,323,170.07Zm2.46-3.16a.24.24,0,0,1-.16,0,.24.24,0,0,1,0-.35l1.23-1.58a.25.25,0,1,1,.39.31l-1.23,1.58A.25.25,0,0,1,325.48,166.91ZM307,166.75a.25.25,0,0,1-.25-.25v-2a.25.25,0,0,1,.5,0v2A.25.25,0,0,1,307,166.75Zm20.9-3a.21.21,0,0,1-.15-.05.25.25,0,0,1,0-.35l1.23-1.58a.25.25,0,1,1,.39.31l-1.22,1.58A.27.27,0,0,1,327.93,163.75Zm-20.9-1a.25.25,0,0,1-.25-.25v-2a.25.25,0,0,1,.5,0v2A.25.25,0,0,1,307,162.75Zm23.35-2.16a.23.23,0,0,1-.15-.05.24.24,0,0,1,0-.35l1.22-1.58a.24.24,0,0,1,.35,0,.25.25,0,0,1,.05.35l-1.23,1.58A.25.25,0,0,1,330.38,160.59ZM307,158.75a.25.25,0,0,1-.25-.25v-2a.25.25,0,0,1,.5,0v2A.25.25,0,0,1,307,158.75Zm25.81-1.31a.25.25,0,0,1-.16-.06.24.24,0,0,1,0-.35l1.23-1.58a.24.24,0,0,1,.35,0,.25.25,0,0,1,0,.35L333,157.34A.26.26,0,0,1,332.84,157.44Zm2.45-3.16a.22.22,0,0,1-.15-.06.25.25,0,0,1-.05-.35l1.23-1.58a.25.25,0,1,1,.39.31l-1.22,1.58A.28.28,0,0,1,335.29,154.28Zm2.45-3.16a.22.22,0,0,1-.15-.06.25.25,0,0,1,0-.35l1.23-1.58a.24.24,0,0,1,.35,0,.25.25,0,0,1,.05.35L337.94,151A.26.26,0,0,1,337.74,151.12ZM340.2,148a.25.25,0,0,1-.16-.06.24.24,0,0,1,0-.35l1.22-1.58a.26.26,0,0,1,.36,0,.26.26,0,0,1,0,.35l-1.23,1.58A.26.26,0,0,1,340.2,148Zm2.45-3.16a.2.2,0,0,1-.15-.06.25.25,0,0,1-.05-.35l1.23-1.58a.25.25,0,1,1,.39.31l-1.22,1.58A.28.28,0,0,1,342.65,144.8Zm2.45-3.16a.22.22,0,0,1-.15-.06.25.25,0,0,1-.05-.35l1.23-1.58a.24.24,0,0,1,.35,0,.25.25,0,0,1,0,.35l-1.23,1.58A.26.26,0,0,1,345.1,141.64Zm2.45-3.16a.3.3,0,0,1-.15,0,.24.24,0,0,1,0-.35l1.22-1.58a.25.25,0,1,1,.4.3l-1.23,1.58A.23.23,0,0,1,347.55,138.48Zm2.46-3.16a.3.3,0,0,1-.16,0,.26.26,0,0,1,0-.35l1.23-1.58a.25.25,0,0,1,.35-.05.24.24,0,0,1,0,.35l-1.22,1.58A.25.25,0,0,1,350,135.32Zm2.45-3.16a.27.27,0,0,1-.15,0,.26.26,0,0,1-.05-.35l1.23-1.58a.25.25,0,0,1,.35-.05.24.24,0,0,1,0,.35l-1.22,1.58A.23.23,0,0,1,352.46,132.16Z" style="fill:#fafafa"></path><path d="M307,190.67a.25.25,0,0,1-.2-.1l0-.06a.26.26,0,0,1,0-.3V188.5a.25.25,0,0,1,.5,0v1.92a.26.26,0,0,1-.17.24ZM305.76,189a.23.23,0,0,1-.2-.1l-1.23-1.58a.25.25,0,0,1,.4-.3l1.23,1.58a.25.25,0,0,1,0,.35A.27.27,0,0,1,305.76,189Zm1.27-2.28a.25.25,0,0,1-.25-.25v-2a.25.25,0,0,1,.5,0v2A.25.25,0,0,1,307,186.75Zm-3.73-.88a.23.23,0,0,1-.19-.1l-1.23-1.58a.24.24,0,0,1,0-.35.25.25,0,0,1,.35,0l1.23,1.58a.24.24,0,0,1,0,.35A.3.3,0,0,1,303.3,185.87Zm3.73-3.12a.25.25,0,0,1-.25-.25v-2a.25.25,0,0,1,.5,0v2A.25.25,0,0,1,307,182.75Zm-6.18,0a.25.25,0,0,1-.2-.1L299.43,181a.24.24,0,0,1,0-.35.25.25,0,0,1,.35,0l1.23,1.58a.25.25,0,0,1-.05.35A.27.27,0,0,1,300.85,182.71Zm-2.45-3.16a.25.25,0,0,1-.2-.09L297,177.88a.27.27,0,0,1,0-.36.25.25,0,0,1,.35,0l1.22,1.58a.24.24,0,0,1,0,.35A.3.3,0,0,1,298.4,179.55Zm8.63-.8a.25.25,0,0,1-.25-.25v-2a.25.25,0,0,1,.5,0v2A.25.25,0,0,1,307,178.75Zm-11.09-2.36a.25.25,0,0,1-.19-.09l-1.23-1.58a.26.26,0,0,1,0-.35.26.26,0,0,1,.36,0l1.22,1.58a.24.24,0,0,1,0,.35A.24.24,0,0,1,295.94,176.39ZM307,174.75a.25.25,0,0,1-.25-.25v-2a.25.25,0,0,1,.5,0v2A.25.25,0,0,1,307,174.75Zm-13.54-1.52a.27.27,0,0,1-.2-.09l-1.22-1.58a.25.25,0,0,1,.39-.31l1.23,1.58a.25.25,0,0,1-.05.35A.21.21,0,0,1,293.49,173.23ZM307,170.75a.25.25,0,0,1-.25-.25v-2a.25.25,0,0,1,.5,0v2A.25.25,0,0,1,307,170.75Zm-16-.68a.25.25,0,0,1-.2-.09l-1.23-1.58a.25.25,0,0,1,.05-.35.24.24,0,0,1,.35,0l1.23,1.58a.25.25,0,0,1-.05.35A.21.21,0,0,1,291,170.07Zm-2.46-3.16a.25.25,0,0,1-.19-.09l-1.23-1.58a.25.25,0,0,1,0-.35.24.24,0,0,1,.35,0l1.22,1.58a.24.24,0,0,1,0,.35A.24.24,0,0,1,288.58,166.91Zm18.45-.16a.25.25,0,0,1-.25-.25v-2a.25.25,0,0,1,.5,0v2A.25.25,0,0,1,307,166.75Zm-20.9-3a.27.27,0,0,1-.2-.09l-1.22-1.58a.25.25,0,0,1,.39-.31l1.23,1.58a.26.26,0,0,1,0,.35A.24.24,0,0,1,286.13,163.75Zm20.9-1a.25.25,0,0,1-.25-.25v-2a.25.25,0,0,1,.5,0v2A.25.25,0,0,1,307,162.75Zm-23.35-2.15a.26.26,0,0,1-.2-.1l-1.23-1.58a.25.25,0,0,1,.05-.35.24.24,0,0,1,.35,0l1.23,1.58a.25.25,0,0,1-.05.35A.22.22,0,0,1,283.68,160.6ZM307,158.75a.25.25,0,0,1-.25-.25v-2a.25.25,0,0,1,.5,0v2A.25.25,0,0,1,307,158.75Zm-25.8-1.31a.26.26,0,0,1-.2-.1l-1.23-1.58a.25.25,0,0,1,.05-.35.24.24,0,0,1,.35,0l1.22,1.58a.26.26,0,0,1-.19.41Zm-2.46-3.16a.24.24,0,0,1-.19-.1l-1.23-1.58a.25.25,0,0,1,.39-.31l1.23,1.58a.25.25,0,0,1,0,.35A.25.25,0,0,1,278.77,154.28Zm-2.45-3.16a.28.28,0,0,1-.2-.1l-1.22-1.58a.25.25,0,0,1,.39-.31l1.23,1.58a.25.25,0,0,1,0,.35A.22.22,0,0,1,276.32,151.12ZM273.87,148a.26.26,0,0,1-.2-.1l-1.23-1.58a.25.25,0,0,1,.4-.31l1.22,1.58a.26.26,0,0,1-.19.41Zm-2.46-3.16a.24.24,0,0,1-.19-.1L270,143.12a.24.24,0,0,1,0-.35.26.26,0,0,1,.35,0l1.23,1.58a.26.26,0,0,1,0,.36A.3.3,0,0,1,271.41,144.8ZM269,141.64a.25.25,0,0,1-.2-.1L267.54,140a.24.24,0,0,1,0-.35.25.25,0,0,1,.35,0l1.23,1.58a.26.26,0,0,1-.05.35A.27.27,0,0,1,269,141.64Zm-2.45-3.16a.23.23,0,0,1-.2-.1l-1.23-1.58a.25.25,0,0,1,.4-.3l1.22,1.58a.24.24,0,0,1,0,.35A.3.3,0,0,1,266.51,138.48Zm-2.46-3.16a.22.22,0,0,1-.19-.1l-1.23-1.58a.24.24,0,0,1,0-.35.25.25,0,0,1,.35.05l1.23,1.58a.25.25,0,0,1,0,.35A.3.3,0,0,1,264.05,135.32Zm-2.45-3.16a.25.25,0,0,1-.2-.1l-1.22-1.58a.24.24,0,0,1,0-.35.25.25,0,0,1,.35.05l1.23,1.58a.25.25,0,0,1-.05.35A.27.27,0,0,1,261.6,132.16Z" style="fill:#fafafa"></path><polygon points="296.01 196.78 296.01 162.86 248.27 135.3 296.01 196.78" style="fill:#7E57C2"></polygon><polygon points="296.01 196.78 296.01 162.86 248.27 135.3 296.01 196.78" style="fill:#fff;opacity:0.35000000000000003"></polygon><polygon points="286.12 210.42 286.12 176.5 238.37 148.93 286.12 210.42" style="fill:#7E57C2;opacity:0.25"></polygon><path d="M285,169.63a.54.54,0,0,1-.21,0L237.05,142a.42.42,0,0,1-.2-.27.46.46,0,0,1,.08-.34l47.74-61.48a.41.41,0,0,1,.74.25v89.05a.43.43,0,0,1-.2.36A.54.54,0,0,1,285,169.63Zm-47.13-28.09,46.71,27V81.38Z" style="fill:#7E57C2"></path><path d="M285,169.63a.54.54,0,0,1-.21,0L237.05,142a.42.42,0,0,1-.2-.27.46.46,0,0,1,.08-.34l47.74-61.48a.41.41,0,0,1,.74.25v89.05a.43.43,0,0,1-.2.36A.54.54,0,0,1,285,169.63Zm-47.13-28.09,46.71,27V81.38Z" style="fill:#fff;opacity:0.75"></path><path d="M325.39,137.83a.36.36,0,0,1-.2-.06.4.4,0,0,1-.21-.35v-89a.4.4,0,0,1,.28-.39.4.4,0,0,1,.46.13l47.74,61.49a.43.43,0,0,1,.08.33.41.41,0,0,1-.2.28L325.6,137.77A.39.39,0,0,1,325.39,137.83Zm.42-.41h0Zm0-87.85V136.7l46.71-27Z" style="fill:#7E57C2"></path><path d="M325.39,137.83a.36.36,0,0,1-.2-.06.4.4,0,0,1-.21-.35v-89a.4.4,0,0,1,.28-.39.4.4,0,0,1,.46.13l47.74,61.49a.43.43,0,0,1,.08.33.41.41,0,0,1-.2.28L325.6,137.77A.39.39,0,0,1,325.39,137.83Zm.42-.41h0Zm0-87.85V136.7l46.71-27Z" style="fill:#fff;opacity:0.6000000000000001"></path><path d="M348.34,171.08a.25.25,0,0,1-.16-.05.27.27,0,0,1-.05-.39l35.8-46.11a.27.27,0,0,1,.39,0,.27.27,0,0,1,.05.38L348.56,171A.26.26,0,0,1,348.34,171.08Z" style="fill:#7E57C2"></path><path d="M371.56,151.62a.34.34,0,0,1-.17-.05.28.28,0,0,1-.05-.39L398.62,116a.28.28,0,0,1,.44.34l-27.28,35.14A.28.28,0,0,1,371.56,151.62Z" style="fill:#7E57C2"></path><path d="M222.85,142.22a.27.27,0,0,1-.21-.45l36.43-46.93a.28.28,0,1,1,.44.34l-36.44,46.93A.27.27,0,0,1,222.85,142.22Z" style="fill:#7E57C2"></path><path d="M209.51,143.35a.29.29,0,0,1-.17-.06.27.27,0,0,1,0-.39l29.83-38.43a.28.28,0,1,1,.44.34l-29.84,38.43A.27.27,0,0,1,209.51,143.35Z" style="fill:#7E57C2"></path><path d="M318.05,197.19a.27.27,0,0,1-.13,0,.41.41,0,0,1-.28-.39V162.86a.4.4,0,0,1,.2-.36l47.74-27.56a.42.42,0,0,1,.52.08.41.41,0,0,1,0,.53L318.38,197A.41.41,0,0,1,318.05,197.19Zm.41-34.09v32.48l45.71-58.87Z" style="fill:#7E57C2"></path><path d="M318.05,197.19a.27.27,0,0,1-.13,0,.41.41,0,0,1-.28-.39V162.86a.4.4,0,0,1,.2-.36l47.74-27.56a.42.42,0,0,1,.52.08.41.41,0,0,1,0,.53L318.38,197A.41.41,0,0,1,318.05,197.19Zm.41-34.09v32.48l45.71-58.87Z" style="fill:#fff;opacity:0.6000000000000001"></path></g></g></svg>