<svg xmlns="http://www.w3.org/2000/svg" viewBox="0 0 500 500"><g id="freepik--check-mark--inject-3"><g id="freepik--check-mark--inject-3"><g id="freepik--Circle--inject-3"><path d="M380.82,146.17h0l-.16-.08h0l-38.12-21.94,0,0-.23-.11h0c-17.81-9-41.57-6.29-67.13,10.23-51.34,33.2-90.46,109.62-87.38,170.69,1.53,30.43,13.27,51.3,31,60.48h0l.15.08h0l38.13,21.95h0l.18.1h0c17.81,9,41.59,6.33,67.17-10.21,51.34-33.2,90.46-109.62,87.38-170.69C410.3,176.22,398.56,155.35,380.82,146.17Z" style="fill:#37474f"></path><path d="M255.77,386.76,219,365.5h0l-.18-.11c-17.73-9.2-29.46-30.07-31-60.46-1.37-27.24,5.66-57.51,18.4-85.62l.25-.62,37.88,22.56c-12.76,28.11-19.77,58.38-18.4,85.62C227.4,356.66,238.67,377.28,255.77,386.76Z" style="fill:#263238"></path><path d="M324.45,377.34c51.34-33.2,90.46-109.62,87.38-170.69S364.63,123,313.29,156.2,222.82,265.82,225.9,326.88,273.11,410.54,324.45,377.34Z" style="fill:#455a64"></path></g><path id="freepik--shadow--inject-3" d="M367.93,141.43,303.58,274l-13.85-15a22.77,22.77,0,0,0-33.45,30.89l36.49,39.53a22.65,22.65,0,0,0,15.49,7.28c.42,0,.84,0,1.26,0a23.11,23.11,0,0,0,3.3-.24A22.73,22.73,0,0,0,330,323.88l73.8-152C396.23,155,383.63,144.54,367.93,141.43Z" style="fill:#37474f"></path><path d="M420.19,97.77c-.4-.23-.82-.45-1.24-.65a19.79,19.79,0,0,0-26.42,9.14L310.65,274.92l-4.66-5a19.23,19.23,0,0,0-4.64-3.71c-2.44-1.4-12.82-7.41-14.5-8.38a19.77,19.77,0,0,0-24.42,30.53l36.49,39.52a19.65,19.65,0,0,0,4.71,3.75c2.38,1.35,12.72,7.35,14.42,8.33a19.77,19.77,0,0,0,27.69-8.47l96.87-199.53a19.8,19.8,0,0,0-7.89-25.76Z" style="fill:#7E57C2"></path><path d="M420.19,97.77c-.4-.23-.82-.45-1.24-.65a19.79,19.79,0,0,0-26.42,9.14L310.65,274.92l-4.66-5a19.23,19.23,0,0,0-4.64-3.71c-2.44-1.4-12.82-7.41-14.5-8.38a19.77,19.77,0,0,0-24.42,30.53l36.49,39.52a19.65,19.65,0,0,0,4.71,3.75c2.38,1.35,12.72,7.35,14.42,8.33a19.77,19.77,0,0,0,27.69-8.47l96.87-199.53a19.8,19.8,0,0,0-7.89-25.76Z" style="opacity:0.15"></path><path d="M318,339.92c-1.68-1-12-7-14.41-8.33a19.7,19.7,0,0,1-4.71-3.75l-36.49-39.52a19.7,19.7,0,0,1-3.77-6l14.51,8.37a19.21,19.21,0,0,0,3.79,6l36.48,39.52A20.11,20.11,0,0,0,318,339.92Z" style="opacity:0.15"></path><path d="M411.63,108.56a19.76,19.76,0,0,0-4.58,6.08L322.83,288.12l-12.18-13.2,81.88-168.66a19.52,19.52,0,0,1,4.59-6.08Z" style="opacity:0.15"></path><path id="freepik--Check--inject-3" d="M433.47,105.5a19.81,19.81,0,0,0-26.42,9.14L322.83,288.12,306,269.88a19.76,19.76,0,0,0-29,26.82l36.48,39.53a19.77,19.77,0,0,0,32.3-4.78l96.87-199.53A19.79,19.79,0,0,0,433.47,105.5Z" style="fill:#7E57C2"></path></g></g></svg>