<svg xmlns="http://www.w3.org/2000/svg" viewBox="0 0 500 500"><g id="freepik--Gears--inject-2"><g id="freepik--gears--inject-2"><path d="M103.25,56.88h0L97.6,53.63h0a.6.6,0,0,0-.58,0l-3.86,1.74a1.63,1.63,0,0,1,.11-.94l4.46-9a1,1,0,0,0-.4-1.31l-4.83-2.8h0l-5.62-3.23a1,1,0,0,0-1.33.31L80,46.79a1.7,1.7,0,0,1-.74.56l-.42-4.24a.64.64,0,0,0-.28-.5h0l-5.67-3.24h0a.6.6,0,0,0-.6,0l-7.51,4.34a2,2,0,0,0-.9,1.4l-.75,8.36a2.83,2.83,0,0,1-.78,1.56,45,45,0,0,0-4.18,4.41,1.43,1.43,0,0,1-1.47.42l-4.82-1.68a1.16,1.16,0,0,0-1.35.5L45,68.28a1.18,1.18,0,0,0,.25,1.43L49.08,73a1.43,1.43,0,0,1,.38,1.49,45.41,45.41,0,0,0-1.74,5.82,2.76,2.76,0,0,1-1,1.45L39.9,86.63a2,2,0,0,0-.77,1.48v8.67a.63.63,0,0,0,.27.56h0l5.65,3.24h0a.6.6,0,0,0,.58,0l3.86-1.74a1.63,1.63,0,0,1-.11.94l-4.46,9a1,1,0,0,0,.4,1.3L52.11,114h0l3.68,2.12a1,1,0,0,0,1.33-.31l5.55-8.35a1.7,1.7,0,0,1,.74-.56l.42,4.24a.63.63,0,0,0,.29.51h0l5.64,3.24h0a.62.62,0,0,0,.61,0l7.51-4.34a2,2,0,0,0,.9-1.4l.75-8.36a2.83,2.83,0,0,1,.78-1.56,43.78,43.78,0,0,0,4.17-4.41A1.44,1.44,0,0,1,86,94.32L90.8,96a1.16,1.16,0,0,0,1.35-.5l5.53-9.56a1.19,1.19,0,0,0-.25-1.43l-3.86-3.33a1.43,1.43,0,0,1-.38-1.49,45.41,45.41,0,0,0,1.74-5.82,2.76,2.76,0,0,1,1-1.45l6.86-4.83a2,2,0,0,0,.77-1.48V57.44A.63.63,0,0,0,103.25,56.88ZM61.46,86.06c0-8.1,5.68-17.94,12.69-22,2.74-1.58,5.27-2,7.35-1.53,1.07,1.49,1.64,3.76,1.64,6.72,0,8.1-5.68,17.94-12.68,22-2.75,1.58-5.07,2.09-6.9,1.66A10.34,10.34,0,0,1,61.46,86.06Z" style="fill:#7E57C2"></path><path d="M103.25,56.88h0L97.6,53.63h0a.6.6,0,0,0-.58,0l-3.86,1.74a1.63,1.63,0,0,1,.11-.94l4.46-9a1,1,0,0,0-.4-1.31l-4.83-2.8h0l-5.62-3.23a1,1,0,0,0-1.33.31L80,46.79a1.7,1.7,0,0,1-.74.56l-.42-4.24a.64.64,0,0,0-.28-.5h0l-5.67-3.24h0a.6.6,0,0,0-.6,0l-7.51,4.34a2,2,0,0,0-.9,1.4l-.75,8.36a2.83,2.83,0,0,1-.78,1.56,45,45,0,0,0-4.18,4.41,1.43,1.43,0,0,1-1.47.42l-4.82-1.68a1.16,1.16,0,0,0-1.35.5L45,68.28a1.18,1.18,0,0,0,.25,1.43L49.08,73a1.43,1.43,0,0,1,.38,1.49,45.41,45.41,0,0,0-1.74,5.82,2.76,2.76,0,0,1-1,1.45L39.9,86.63a2,2,0,0,0-.77,1.48v8.67a.63.63,0,0,0,.27.56h0l5.65,3.24h0a.6.6,0,0,0,.58,0l3.86-1.74a1.63,1.63,0,0,1-.11.94l-4.46,9a1,1,0,0,0,.4,1.3L52.11,114h0l3.68,2.12a1,1,0,0,0,1.33-.31l5.55-8.35a1.7,1.7,0,0,1,.74-.56l.42,4.24a.63.63,0,0,0,.29.51h0l5.64,3.24h0a.62.62,0,0,0,.61,0l7.51-4.34a2,2,0,0,0,.9-1.4l.75-8.36a2.83,2.83,0,0,1,.78-1.56,43.78,43.78,0,0,0,4.17-4.41A1.44,1.44,0,0,1,86,94.32L90.8,96a1.16,1.16,0,0,0,1.35-.5l5.53-9.56a1.19,1.19,0,0,0-.25-1.43l-3.86-3.33a1.43,1.43,0,0,1-.38-1.49,45.41,45.41,0,0,0,1.74-5.82,2.76,2.76,0,0,1,1-1.45l6.86-4.83a2,2,0,0,0,.77-1.48V57.44A.63.63,0,0,0,103.25,56.88ZM61.46,86.06c0-8.1,5.68-17.94,12.69-22,2.74-1.58,5.27-2,7.35-1.53,1.07,1.49,1.64,3.76,1.64,6.72,0,8.1-5.68,17.94-12.68,22-2.75,1.58-5.07,2.09-6.9,1.66A10.34,10.34,0,0,1,61.46,86.06Z" style="fill:#fff;opacity:0.2"></path><path d="M53.43,98.08a.79.79,0,0,0-1.11-.52l-2.81,1.27a1.72,1.72,0,0,1-.13.94l-4.46,9a1,1,0,0,0,.4,1.32l6.79,3.9L51,113.3a1,1,0,0,1-.39-1.3L55,103a1.85,1.85,0,0,0-.1-1.62A15,15,0,0,1,53.43,98.08Zm16.28,16.75a.84.84,0,0,1-.23-.48l-.73-7.3a.79.79,0,0,0-1-.71,14.89,14.89,0,0,1-3.62.37,2,2,0,0,0-.72.16l.43,4.24a.59.59,0,0,0,.29.5h0Z" style="opacity:0.1"></path><path d="M86.83,71.4c0,8.1-5.67,17.94-12.68,22-4.43,2.56-8.33,2.19-10.6-.47,1.82.44,4.16-.07,6.91-1.66,7-4,12.68-13.88,12.68-22,0-3-.57-5.23-1.64-6.72C84.73,63.33,86.83,66.48,86.83,71.4Z" style="opacity:0.1"></path><path d="M86.85,38.12a1,1,0,0,0-1.33.32L80,46.79a1.34,1.34,0,0,1-.36.35l5.65,3.25a1.3,1.3,0,0,0,.37-.37l5.55-8.35a1,1,0,0,1,1.21-.36ZM97.59,53.63h0a.65.65,0,0,0-.58,0l-3.86,1.75a2,2,0,0,0,.23.68,15.44,15.44,0,0,1,1.43,3.15l.06.16a.81.81,0,0,0,.2.35l.09.09a.94.94,0,0,0,.22.12.81.81,0,0,0,.41,0A.7.7,0,0,0,96,59.9l6.68-3a.58.58,0,0,1,.17-.06.45.45,0,0,1,.23,0,.36.36,0,0,1,.19.07h0ZM72.86,39.35a.63.63,0,0,0-.6.06l-7.51,4.34a2,2,0,0,0-.76.9l5.64,3.24a2,2,0,0,1,.76-.9l7.51-4.34a.69.69,0,0,1,.58-.08ZM47.29,81.24a2.38,2.38,0,0,1-.53.56L39.9,86.63a2.09,2.09,0,0,0-.45.52l5.63,3.24a1.7,1.7,0,0,1,.47-.52l6.86-4.82a2.86,2.86,0,0,0,.53-.56Zm4.17-23.08a1.19,1.19,0,0,0-1,.56L45,68.28a1.13,1.13,0,0,0-.12.7l5.64,3.25a1.18,1.18,0,0,1,.13-.71L56.15,62A1.15,1.15,0,0,1,57,61.4Z" style="fill:#7E57C2"></path><path d="M86.85,38.12a1,1,0,0,0-1.33.32L80,46.79a1.34,1.34,0,0,1-.36.35l5.65,3.25a1.3,1.3,0,0,0,.37-.37l5.55-8.35a1,1,0,0,1,1.21-.36ZM97.59,53.63h0a.65.65,0,0,0-.58,0l-3.86,1.75a2,2,0,0,0,.23.68,15.44,15.44,0,0,1,1.43,3.15l.06.16a.81.81,0,0,0,.2.35l.09.09a.94.94,0,0,0,.22.12.81.81,0,0,0,.41,0A.7.7,0,0,0,96,59.9l6.68-3a.58.58,0,0,1,.17-.06.45.45,0,0,1,.23,0,.36.36,0,0,1,.19.07h0ZM72.86,39.35a.63.63,0,0,0-.6.06l-7.51,4.34a2,2,0,0,0-.76.9l5.64,3.24a2,2,0,0,1,.76-.9l7.51-4.34a.69.69,0,0,1,.58-.08ZM47.29,81.24a2.38,2.38,0,0,1-.53.56L39.9,86.63a2.09,2.09,0,0,0-.45.52l5.63,3.24a1.7,1.7,0,0,1,.47-.52l6.86-4.82a2.86,2.86,0,0,0,.53-.56Zm4.17-23.08a1.19,1.19,0,0,0-1,.56L45,68.28a1.13,1.13,0,0,0-.12.7l5.64,3.25a1.18,1.18,0,0,1,.13-.71L56.15,62A1.15,1.15,0,0,1,57,61.4Z" style="fill:#fff;opacity:0.7000000000000001"></path><path d="M103.52,66.11V57.44a.56.56,0,0,0-.86-.55L96,59.9a.8.8,0,0,1-1.12-.52,14.73,14.73,0,0,0-1.49-3.31,1.85,1.85,0,0,1-.1-1.62l4.46-9a1,1,0,0,0-.4-1.31l-4.83-2.8a1,1,0,0,0-1.33.32L85.61,50a1.84,1.84,0,0,1-1.45.72,14.89,14.89,0,0,0-3.62.37.79.79,0,0,1-1-.71l-.73-7.3a.56.56,0,0,0-.91-.46L70.39,47a2,2,0,0,0-.89,1.4l-.75,8.35A2.81,2.81,0,0,1,68,58.31a44.94,44.94,0,0,0-4.17,4.41,1.43,1.43,0,0,1-1.47.42L57.5,61.46a1.18,1.18,0,0,0-1.36.5l-5.52,9.56A1.19,1.19,0,0,0,50.86,73l3.87,3.33a1.45,1.45,0,0,1,.38,1.49,43.87,43.87,0,0,0-1.74,5.82,2.82,2.82,0,0,1-1,1.45l-6.86,4.83a2,2,0,0,0-.77,1.48V100a.55.55,0,0,0,.85.55l6.69-3a.79.79,0,0,1,1.11.52,15.19,15.19,0,0,0,1.49,3.31A1.85,1.85,0,0,1,55,103l-4.45,9a1,1,0,0,0,.39,1.3l4.84,2.79a1,1,0,0,0,1.33-.31l5.55-8.35a1.87,1.87,0,0,1,1.46-.72,14.81,14.81,0,0,0,3.61-.37.8.8,0,0,1,1,.71l.73,7.3a.56.56,0,0,0,.9.46l7.51-4.34a2,2,0,0,0,.9-1.4l.75-8.36a2.83,2.83,0,0,1,.78-1.56,43.78,43.78,0,0,0,4.17-4.41A1.44,1.44,0,0,1,86,94.32L90.8,96a1.16,1.16,0,0,0,1.35-.5l5.53-9.56a1.19,1.19,0,0,0-.25-1.43l-3.86-3.33a1.43,1.43,0,0,1-.38-1.49,45.41,45.41,0,0,0,1.74-5.82,2.76,2.76,0,0,1,1-1.45l6.86-4.83A2,2,0,0,0,103.52,66.11ZM74.15,93.38c-7,4.05-12.69.77-12.69-7.32s5.68-17.94,12.69-22,12.69-.77,12.69,7.32S81.16,89.33,74.15,93.38Z" style="fill:#7E57C2"></path><g style="opacity:0.55"><path d="M103.52,66.11V57.44a.56.56,0,0,0-.86-.55L96,59.9a.8.8,0,0,1-1.12-.52,14.73,14.73,0,0,0-1.49-3.31,1.85,1.85,0,0,1-.1-1.62l4.46-9a1,1,0,0,0-.4-1.31l-4.83-2.8a1,1,0,0,0-1.33.32L85.61,50a1.84,1.84,0,0,1-1.45.72,14.89,14.89,0,0,0-3.62.37.79.79,0,0,1-1-.71l-.73-7.3a.56.56,0,0,0-.91-.46L70.39,47a2,2,0,0,0-.89,1.4l-.75,8.35A2.81,2.81,0,0,1,68,58.31a44.94,44.94,0,0,0-4.17,4.41,1.43,1.43,0,0,1-1.47.42L57.5,61.46a1.18,1.18,0,0,0-1.36.5l-5.52,9.56A1.19,1.19,0,0,0,50.86,73l3.87,3.33a1.45,1.45,0,0,1,.38,1.49,43.87,43.87,0,0,0-1.74,5.82,2.82,2.82,0,0,1-1,1.45l-6.86,4.83a2,2,0,0,0-.77,1.48V100a.55.55,0,0,0,.85.55l6.69-3a.79.79,0,0,1,1.11.52,15.19,15.19,0,0,0,1.49,3.31A1.85,1.85,0,0,1,55,103l-4.45,9a1,1,0,0,0,.39,1.3l4.84,2.79a1,1,0,0,0,1.33-.31l5.55-8.35a1.87,1.87,0,0,1,1.46-.72,14.81,14.81,0,0,0,3.61-.37.8.8,0,0,1,1,.71l.73,7.3a.56.56,0,0,0,.9.46l7.51-4.34a2,2,0,0,0,.9-1.4l.75-8.36a2.83,2.83,0,0,1,.78-1.56,43.78,43.78,0,0,0,4.17-4.41A1.44,1.44,0,0,1,86,94.32L90.8,96a1.16,1.16,0,0,0,1.35-.5l5.53-9.56a1.19,1.19,0,0,0-.25-1.43l-3.86-3.33a1.43,1.43,0,0,1-.38-1.49,45.41,45.41,0,0,0,1.74-5.82,2.76,2.76,0,0,1,1-1.45l6.86-4.83A2,2,0,0,0,103.52,66.11ZM74.15,93.38c-7,4.05-12.69.77-12.69-7.32s5.68-17.94,12.69-22,12.69-.77,12.69,7.32S81.16,89.33,74.15,93.38Z" style="fill:#fff"></path><path d="M56.29,116.59a1.36,1.36,0,0,1-.68-.18l-4.83-2.79a1.38,1.38,0,0,1-.54-1.79l4.45-9a1.5,1.5,0,0,0-.08-1.27,15.2,15.2,0,0,1-1.53-3.39.47.47,0,0,0-.25-.31.42.42,0,0,0-.36,0l-6.68,3a1,1,0,0,1-1,0,1,1,0,0,1-.42-.86V91.35a2.45,2.45,0,0,1,.92-1.78l6.87-4.83A2.47,2.47,0,0,0,53,83.51a45.34,45.34,0,0,1,1.75-5.87,1.07,1.07,0,0,0-.27-1.08l-3.87-3.33a1.54,1.54,0,0,1-.32-1.89l5.52-9.57a1.55,1.55,0,0,1,1.8-.66l4.82,1.68a1.07,1.07,0,0,0,1.07-.3A46,46,0,0,1,67.71,58a2.36,2.36,0,0,0,.67-1.32l.75-8.36a2.4,2.4,0,0,1,1.08-1.68l7.51-4.34a.93.93,0,0,1,1.46.75l.73,7.29a.41.41,0,0,0,.17.32.45.45,0,0,0,.38.07,15.49,15.49,0,0,1,3.71-.38,1.5,1.5,0,0,0,1.14-.56l5.55-8.35a1.38,1.38,0,0,1,1.82-.42l4.84,2.79a1.39,1.39,0,0,1,.54,1.79l-4.46,9a1.5,1.5,0,0,0,.09,1.27,15.67,15.67,0,0,1,1.53,3.39.47.47,0,0,0,.25.31.46.46,0,0,0,.36,0l6.68-3a1,1,0,0,1,1,0,1,1,0,0,1,.42.86v8.67a2.42,2.42,0,0,1-.93,1.78L96.1,72.72A2.41,2.41,0,0,0,95.29,74a45.34,45.34,0,0,1-1.75,5.87,1.07,1.07,0,0,0,.27,1.08l3.87,3.34A1.55,1.55,0,0,1,98,86.12l-5.53,9.57a1.53,1.53,0,0,1-1.79.66l-4.82-1.68a1.07,1.07,0,0,0-1.07.3,46.1,46.1,0,0,1-4.21,4.46,2.41,2.41,0,0,0-.66,1.32l-.75,8.35a2.4,2.4,0,0,1-1.08,1.69l-7.51,4.34a.92.92,0,0,1-1.46-.75l-.73-7.29a.44.44,0,0,0-.17-.32.47.47,0,0,0-.39-.07,14.92,14.92,0,0,1-3.7.38,1.46,1.46,0,0,0-1.14.56L57.44,116A1.39,1.39,0,0,1,56.29,116.59ZM52.67,97.11a1.19,1.19,0,0,1,.46.1,1.22,1.22,0,0,1,.65.75,14.77,14.77,0,0,0,1.46,3.24,2.21,2.21,0,0,1,.11,2l-4.45,9a.64.64,0,0,0,.25.82l4.83,2.8a.64.64,0,0,0,.84-.2l5.56-8.35a2.11,2.11,0,0,1,1.77-.89,14.42,14.42,0,0,0,3.52-.36,1.23,1.23,0,0,1,1,.19,1.16,1.16,0,0,1,.47.84l.73,7.3a.33.33,0,0,0,.11.23.28.28,0,0,0,.25-.05l7.51-4.34a1.64,1.64,0,0,0,.71-1.11l.75-8.36a3.22,3.22,0,0,1,.9-1.8,43.42,43.42,0,0,0,4.14-4.38A1.82,1.82,0,0,1,86.1,94l4.82,1.69a.82.82,0,0,0,.91-.34l5.53-9.57a.81.81,0,0,0-.17-1l-3.86-3.33a1.78,1.78,0,0,1-.48-1.89,46,46,0,0,0,1.72-5.78,3.1,3.1,0,0,1,1.11-1.67l6.86-4.83a1.69,1.69,0,0,0,.61-1.18V57.44a.28.28,0,0,0-.08-.24.27.27,0,0,0-.26,0l-6.68,3a1.15,1.15,0,0,1-1,0,1.2,1.2,0,0,1-.66-.76,14.62,14.62,0,0,0-1.45-3.23,2.18,2.18,0,0,1-.12-2l4.46-9a.64.64,0,0,0-.25-.82l-4.84-2.8a.65.65,0,0,0-.84.2l-5.55,8.35a2.26,2.26,0,0,1-1.77.89,14.6,14.6,0,0,0-3.53.36,1.21,1.21,0,0,1-1-.19,1.15,1.15,0,0,1-.47-.84l-.74-7.3a.29.29,0,0,0-.1-.23.28.28,0,0,0-.25,0l-7.51,4.34a1.65,1.65,0,0,0-.72,1.11l-.75,8.36a3.13,3.13,0,0,1-.9,1.8A44.43,44.43,0,0,0,64.08,63a1.83,1.83,0,0,1-1.88.53L57.37,61.8a.82.82,0,0,0-.91.34l-5.52,9.57a.81.81,0,0,0,.16,1L55,76a1.81,1.81,0,0,1,.48,1.9,43.81,43.81,0,0,0-1.72,5.77,3.07,3.07,0,0,1-1.11,1.67l-6.86,4.83a1.65,1.65,0,0,0-.61,1.18V100a.28.28,0,0,0,.08.24.25.25,0,0,0,.25,0l6.69-3A1.25,1.25,0,0,1,52.67,97.11Zm15.81-1.62a6.9,6.9,0,0,1-3.49-.9c-2.51-1.45-3.9-4.48-3.9-8.53,0-8.2,5.78-18.2,12.87-22.3,3.51-2,6.83-2.34,9.34-.89s3.91,4.48,3.91,8.53c0,8.2-5.78,18.2-12.88,22.3h0A11.86,11.86,0,0,1,68.48,95.49ZM79.81,62.71a11.19,11.19,0,0,0-5.48,1.69c-6.89,4-12.5,13.69-12.5,21.66,0,3.77,1.25,6.58,3.53,7.89s5.33,1,8.6-.89c6.9-4,12.51-13.69,12.51-21.66,0-3.77-1.26-6.58-3.53-7.89A6.23,6.23,0,0,0,79.81,62.71Z" style="fill:#fff"></path></g><path d="M150.58,48a3.55,3.55,0,0,1,1-1.93l3.91-3.6a2.38,2.38,0,0,0,.66-1.93l-.74-4.26a.84.84,0,0,0-.37-.6h0L150.37,33h0a.74.74,0,0,0-.81.08l-1.68,1.1,1.62-4.39a1,1,0,0,0-.45-1.21h0l-4.63-2.68h0a1.34,1.34,0,0,0-.3-.12l-2.95-.66a1.6,1.6,0,0,0-1.67.78l-2.77,5.27a2.72,2.72,0,0,1-1.1,1l-.13-.42a.88.88,0,0,0-.37-.51h0l-4.65-2.68h0a.74.74,0,0,0-.87.12l-4.42,3.47a2.47,2.47,0,0,0-.84,1.87l.27,4.2a3.32,3.32,0,0,1-.69,2c-.72.87-1.41,1.78-2,2.72a2.31,2.31,0,0,1-1.8.91l-2.83-.14a1.81,1.81,0,0,0-1.63,1l-2.67,6a1.14,1.14,0,0,0,.45,1.44h0L116.56,54a1.4,1.4,0,0,1,.07.81,26.74,26.74,0,0,0-.49,2.86,3.55,3.55,0,0,1-1,1.93l-3.91,3.6a2.37,2.37,0,0,0-.65,1.93l.73,4.26a.81.81,0,0,0,.35.58h0l4.66,2.69h0a.74.74,0,0,0,.8-.08l1.68-1.11-1.62,4.4a1,1,0,0,0,.39,1.19h0l4.66,2.69v0a1.11,1.11,0,0,0,.33.15l2.94.66a1.59,1.59,0,0,0,1.67-.78L130,74.47a2.72,2.72,0,0,1,1.1-1l.13.42a.83.83,0,0,0,.38.51h0l4.61,2.66h0l0,0h0a.78.78,0,0,0,.84-.14l4.42-3.47a2.47,2.47,0,0,0,.84-1.87l-.27-4.2a3.32,3.32,0,0,1,.69-2,33.94,33.94,0,0,0,2.05-2.72,2.28,2.28,0,0,1,1.8-.91l2.84.14a1.81,1.81,0,0,0,1.63-1l2.66-6a1.12,1.12,0,0,0-.59-1.51l-2.29-1a1.42,1.42,0,0,1-.79-1.58A26.74,26.74,0,0,0,150.58,48ZM127,61c-.86-5,2.31-12.15,7.1-15.91a9.69,9.69,0,0,1,5-2.25,7.48,7.48,0,0,1,.55,1.85c.87,5-2.31,12.15-7.1,15.91a9.5,9.5,0,0,1-5,2.24A7.36,7.36,0,0,1,127,61Z" style="fill:#7E57C2"></path><path d="M150.58,48a3.55,3.55,0,0,1,1-1.93l3.91-3.6a2.38,2.38,0,0,0,.66-1.93l-.74-4.26a.84.84,0,0,0-.37-.6h0L150.37,33h0a.74.74,0,0,0-.81.08l-1.68,1.1,1.62-4.39a1,1,0,0,0-.45-1.21h0l-4.63-2.68h0a1.34,1.34,0,0,0-.3-.12l-2.95-.66a1.6,1.6,0,0,0-1.67.78l-2.77,5.27a2.72,2.72,0,0,1-1.1,1l-.13-.42a.88.88,0,0,0-.37-.51h0l-4.65-2.68h0a.74.74,0,0,0-.87.12l-4.42,3.47a2.47,2.47,0,0,0-.84,1.87l.27,4.2a3.32,3.32,0,0,1-.69,2c-.72.87-1.41,1.78-2,2.72a2.31,2.31,0,0,1-1.8.91l-2.83-.14a1.81,1.81,0,0,0-1.63,1l-2.67,6a1.14,1.14,0,0,0,.45,1.44h0L116.56,54a1.4,1.4,0,0,1,.07.81,26.74,26.74,0,0,0-.49,2.86,3.55,3.55,0,0,1-1,1.93l-3.91,3.6a2.37,2.37,0,0,0-.65,1.93l.73,4.26a.81.81,0,0,0,.35.58h0l4.66,2.69h0a.74.74,0,0,0,.8-.08l1.68-1.11-1.62,4.4a1,1,0,0,0,.39,1.19h0l4.66,2.69v0a1.11,1.11,0,0,0,.33.15l2.94.66a1.59,1.59,0,0,0,1.67-.78L130,74.47a2.72,2.72,0,0,1,1.1-1l.13.42a.83.83,0,0,0,.38.51h0l4.61,2.66h0l0,0h0a.78.78,0,0,0,.84-.14l4.42-3.47a2.47,2.47,0,0,0,.84-1.87l-.27-4.2a3.32,3.32,0,0,1,.69-2,33.94,33.94,0,0,0,2.05-2.72,2.28,2.28,0,0,1,1.8-.91l2.84.14a1.81,1.81,0,0,0,1.63-1l2.66-6a1.12,1.12,0,0,0-.59-1.51l-2.29-1a1.42,1.42,0,0,1-.79-1.58A26.74,26.74,0,0,0,150.58,48ZM127,61c-.86-5,2.31-12.15,7.1-15.91a9.69,9.69,0,0,1,5-2.25,7.48,7.48,0,0,1,.55,1.85c.87,5-2.31,12.15-7.1,15.91a9.5,9.5,0,0,1-5,2.24A7.36,7.36,0,0,1,127,61Z" style="fill:#fff;opacity:0.2"></path><path d="M122.64,70.33a1.13,1.13,0,0,0-1.57-.35l-2.23,1.47-1.62,4.39a1,1,0,0,0,.39,1.19l4.6,2.66a1,1,0,0,1-.34-1.17l2-5.4a2,2,0,0,0-.45-1.86A7,7,0,0,1,122.64,70.33Zm13.59,6.73a.82.82,0,0,1-.37-.51l-1-3.31a1,1,0,0,0-1.39-.64,12.16,12.16,0,0,1-1.82.61,2.07,2.07,0,0,0-.57.23l.13.43a.87.87,0,0,0,.38.51h0Z" style="opacity:0.1"></path><path d="M137.25,63.24c-4.13,3.25-8.1,2.94-9.66-.44a9.61,9.61,0,0,0,5-2.24c4.79-3.76,8-10.88,7.1-15.91a7.7,7.7,0,0,0-.55-1.84c2.62-.23,4.65,1.35,5.2,4.52C145.22,52.36,142,59.48,137.25,63.24Z" style="opacity:0.1"></path><path d="M120.91,43.69a2.09,2.09,0,0,1-.81.18l-2.85-.14a1.75,1.75,0,0,0-1.17.43l4.65,2.68a1.75,1.75,0,0,1,1.17-.43l2.85.14a2,2,0,0,0,.81-.16Zm9.58-15.15a.78.78,0,0,0-.87.12l-4.42,3.48a2.43,2.43,0,0,0-.73,1.15L129.12,36a2.36,2.36,0,0,1,.73-1.15l4.41-3.47a.76.76,0,0,1,.88-.12h0ZM115.14,59.62l-3.87,3.55a2.31,2.31,0,0,0-.6,1.11L115.31,67a2.24,2.24,0,0,1,.61-1.1l3.87-3.55Zm29.29-33.75a.76.76,0,0,0-.31-.11l-2.94-.67a1.61,1.61,0,0,0-1.67.77l-2.77,5.28a2.32,2.32,0,0,1-.63.71l4.65,2.68a2.46,2.46,0,0,0,.63-.71l2.77-5.28a1.59,1.59,0,0,1,1.67-.77l2.94.66a2.09,2.09,0,0,1,.3.11Zm5.94,7.1h0a.76.76,0,0,0-.81.08l-1.68,1.11-.38,1A2,2,0,0,0,148,37a7.87,7.87,0,0,1,.76.93,2.05,2.05,0,0,0,.2.23l.17.13a1.25,1.25,0,0,0,.39.15.92.92,0,0,0,.52,0,.85.85,0,0,0,.28-.12l3.91-2.58a1.3,1.3,0,0,1,.3-.13.51.51,0,0,1,.32,0l.19,0Z" style="fill:#7E57C2"></path><path d="M120.91,43.69a2.09,2.09,0,0,1-.81.18l-2.85-.14a1.75,1.75,0,0,0-1.17.43l4.65,2.68a1.75,1.75,0,0,1,1.17-.43l2.85.14a2,2,0,0,0,.81-.16Zm9.58-15.15a.78.78,0,0,0-.87.12l-4.42,3.48a2.43,2.43,0,0,0-.73,1.15L129.12,36a2.36,2.36,0,0,1,.73-1.15l4.41-3.47a.76.76,0,0,1,.88-.12h0ZM115.14,59.62l-3.87,3.55a2.31,2.31,0,0,0-.6,1.11L115.31,67a2.24,2.24,0,0,1,.61-1.1l3.87-3.55Zm29.29-33.75a.76.76,0,0,0-.31-.11l-2.94-.67a1.61,1.61,0,0,0-1.67.77l-2.77,5.28a2.32,2.32,0,0,1-.63.71l4.65,2.68a2.46,2.46,0,0,0,.63-.71l2.77-5.28a1.59,1.59,0,0,1,1.67-.77l2.94.66a2.09,2.09,0,0,1,.3.11Zm5.94,7.1h0a.76.76,0,0,0-.81.08l-1.68,1.11-.38,1A2,2,0,0,0,148,37a7.87,7.87,0,0,1,.76.93,2.05,2.05,0,0,0,.2.23l.17.13a1.25,1.25,0,0,0,.39.15.92.92,0,0,0,.52,0,.85.85,0,0,0,.28-.12l3.91-2.58a1.3,1.3,0,0,1,.3-.13.51.51,0,0,1,.32,0l.19,0Z" style="fill:#fff;opacity:0.7000000000000001"></path><path d="M156.11,40.51l-.74-4.26a.7.7,0,0,0-1.16-.51l-3.91,2.57a1.14,1.14,0,0,1-1.57-.35A7.87,7.87,0,0,0,148,37a2,2,0,0,1-.46-1.87l2-5.39a1,1,0,0,0-.73-1.34l-2.94-.66a1.59,1.59,0,0,0-1.67.78l-2.77,5.28a2.91,2.91,0,0,1-1.68,1.25,16,16,0,0,0-1.81.6,1,1,0,0,1-1.39-.63l-1-3.31a.73.73,0,0,0-1.24-.39l-4.42,3.47a2.47,2.47,0,0,0-.84,1.87l.26,4.2a3.31,3.31,0,0,1-.68,2,33.94,33.94,0,0,0-2,2.72,2.28,2.28,0,0,1-1.8.91l-2.84-.14a1.83,1.83,0,0,0-1.63,1l-2.66,6a1.13,1.13,0,0,0,.59,1.52l2.29,1a1.42,1.42,0,0,1,.79,1.58,27.17,27.17,0,0,0-.49,2.86,3.68,3.68,0,0,1-1,1.94l-3.91,3.59a2.39,2.39,0,0,0-.66,1.93l.74,4.27a.7.7,0,0,0,1.16.5L121.07,70a1.14,1.14,0,0,1,1.57.35,8.9,8.9,0,0,0,.76.94,1.94,1.94,0,0,1,.46,1.86l-2,5.39a1,1,0,0,0,.73,1.34l2.94.66a1.59,1.59,0,0,0,1.67-.78L130,74.47a2.88,2.88,0,0,1,1.68-1.26,14.19,14.19,0,0,0,1.81-.6,1,1,0,0,1,1.39.63l1,3.31a.73.73,0,0,0,1.24.39l4.42-3.47a2.47,2.47,0,0,0,.84-1.87l-.27-4.2a3.32,3.32,0,0,1,.69-2,33.94,33.94,0,0,0,2.05-2.72,2.28,2.28,0,0,1,1.8-.91l2.84.14a1.81,1.81,0,0,0,1.63-1l2.66-6a1.12,1.12,0,0,0-.59-1.51l-2.29-1a1.42,1.42,0,0,1-.79-1.58,26.74,26.74,0,0,0,.49-2.86,3.55,3.55,0,0,1,1-1.93l3.91-3.6A2.38,2.38,0,0,0,156.11,40.51ZM137.25,63.25C132.47,67,127.89,66,127,61s2.31-12.15,7.1-15.91,9.36-2.74,10.23,2.28S142,59.48,137.25,63.25Z" style="fill:#7E57C2"></path><g style="opacity:0.55"><path d="M156.11,40.51l-.74-4.26a.7.7,0,0,0-1.16-.51l-3.91,2.57a1.14,1.14,0,0,1-1.57-.35A7.87,7.87,0,0,0,148,37a2,2,0,0,1-.46-1.87l2-5.39a1,1,0,0,0-.73-1.34l-2.94-.66a1.59,1.59,0,0,0-1.67.78l-2.77,5.28a2.91,2.91,0,0,1-1.68,1.25,16,16,0,0,0-1.81.6,1,1,0,0,1-1.39-.63l-1-3.31a.73.73,0,0,0-1.24-.39l-4.42,3.47a2.47,2.47,0,0,0-.84,1.87l.26,4.2a3.31,3.31,0,0,1-.68,2,33.94,33.94,0,0,0-2,2.72,2.28,2.28,0,0,1-1.8.91l-2.84-.14a1.83,1.83,0,0,0-1.63,1l-2.66,6a1.13,1.13,0,0,0,.59,1.52l2.29,1a1.42,1.42,0,0,1,.79,1.58,27.17,27.17,0,0,0-.49,2.86,3.68,3.68,0,0,1-1,1.94l-3.91,3.59a2.39,2.39,0,0,0-.66,1.93l.74,4.27a.7.7,0,0,0,1.16.5L121.07,70a1.14,1.14,0,0,1,1.57.35,8.9,8.9,0,0,0,.76.94,1.94,1.94,0,0,1,.46,1.86l-2,5.39a1,1,0,0,0,.73,1.34l2.94.66a1.59,1.59,0,0,0,1.67-.78L130,74.47a2.88,2.88,0,0,1,1.68-1.26,14.19,14.19,0,0,0,1.81-.6,1,1,0,0,1,1.39.63l1,3.31a.73.73,0,0,0,1.24.39l4.42-3.47a2.47,2.47,0,0,0,.84-1.87l-.27-4.2a3.32,3.32,0,0,1,.69-2,33.94,33.94,0,0,0,2.05-2.72,2.28,2.28,0,0,1,1.8-.91l2.84.14a1.81,1.81,0,0,0,1.63-1l2.66-6a1.12,1.12,0,0,0-.59-1.51l-2.29-1a1.42,1.42,0,0,1-.79-1.58,26.74,26.74,0,0,0,.49-2.86,3.55,3.55,0,0,1,1-1.93l3.91-3.6A2.38,2.38,0,0,0,156.11,40.51ZM137.25,63.25C132.47,67,127.89,66,127,61s2.31-12.15,7.1-15.91,9.36-2.74,10.23,2.28S142,59.48,137.25,63.25Z" style="fill:#fff"></path><path d="M125.83,81a1.72,1.72,0,0,1-.39,0l-2.94-.66a1.43,1.43,0,0,1-1-.72,1.48,1.48,0,0,1-.07-1.22l2-5.39a1.48,1.48,0,0,0-.36-1.39,7.06,7.06,0,0,1-.8-1,.69.69,0,0,0-1-.23l-3.91,2.57a1.2,1.2,0,0,1-1.17.15,1.21,1.21,0,0,1-.69-1l-.74-4.26a2.85,2.85,0,0,1,.8-2.34l3.91-3.6a3.07,3.07,0,0,0,.81-1.65,29.09,29.09,0,0,1,.5-2.91,1,1,0,0,0-.52-1.06l-2.29-1a1.58,1.58,0,0,1-.86-.88,1.55,1.55,0,0,1,0-1.23l2.67-6A2.29,2.29,0,0,1,121.93,46l2.83.14a1.81,1.81,0,0,0,1.4-.71c.66-1,1.35-1.88,2.08-2.75a2.85,2.85,0,0,0,.58-1.71l-.26-4.2a2.92,2.92,0,0,1,1-2.26L134,31a1.19,1.19,0,0,1,2,.62l1,3.31a.54.54,0,0,0,.28.34.64.64,0,0,0,.51,0,16.36,16.36,0,0,1,1.87-.62,2.4,2.4,0,0,0,1.38-1l2.77-5.28a2.08,2.08,0,0,1,2.18-1l2.94.66a1.45,1.45,0,0,1,1,.72,1.48,1.48,0,0,1,.07,1.22l-2,5.39a1.48,1.48,0,0,0,.36,1.39,7.86,7.86,0,0,1,.8,1,.69.69,0,0,0,1,.23L154,35.36a1.15,1.15,0,0,1,1.86.81l.74,4.26a2.85,2.85,0,0,1-.8,2.34l-3.91,3.6A3.19,3.19,0,0,0,151,48a26.23,26.23,0,0,1-.49,2.9,1,1,0,0,0,.52,1.06l2.29,1a1.58,1.58,0,0,1,.86.88,1.55,1.55,0,0,1,0,1.23l-2.67,6a2.29,2.29,0,0,1-2.07,1.27l-2.83-.14a1.89,1.89,0,0,0-1.4.71c-.66,1-1.36,1.89-2.08,2.75a2.85,2.85,0,0,0-.58,1.71l.26,4.2a2.92,2.92,0,0,1-1,2.26l-4.41,3.47a1.19,1.19,0,0,1-2-.62l-1-3.3a.52.52,0,0,0-.29-.35.62.62,0,0,0-.5,0,16.36,16.36,0,0,1-1.87.62,2.4,2.4,0,0,0-1.38,1L127.61,80A2.05,2.05,0,0,1,125.83,81Zm-4.16-11.66a1.65,1.65,0,0,1,1.34.73,7.86,7.86,0,0,0,.72.88,2.4,2.4,0,0,1,.56,2.34l-2,5.39a.56.56,0,0,0,0,.46.54.54,0,0,0,.39.27l2.94.66a1.15,1.15,0,0,0,1.17-.54l2.77-5.28a3.3,3.3,0,0,1,2-1.48,15.72,15.72,0,0,0,1.76-.58,1.53,1.53,0,0,1,1.24,0,1.44,1.44,0,0,1,.76.91l1,3.31a.37.37,0,0,0,.2.27.35.35,0,0,0,.32-.11l4.42-3.47a2,2,0,0,0,.66-1.48l-.26-4.2a3.73,3.73,0,0,1,.79-2.36c.71-.84,1.39-1.74,2-2.67a2.66,2.66,0,0,1,2.19-1.11l2.84.14a1.36,1.36,0,0,0,1.19-.73l2.67-6a.7.7,0,0,0,0-.53.67.67,0,0,0-.37-.37l-2.29-1a1.88,1.88,0,0,1-1-2.1,27.1,27.1,0,0,0,.48-2.81,4,4,0,0,1,1.1-2.22l3.91-3.6a1.92,1.92,0,0,0,.52-1.51h0l-.74-4.27a.36.36,0,0,0-.15-.28.37.37,0,0,0-.31.08l-3.91,2.57a1.57,1.57,0,0,1-2.19-.47,8.88,8.88,0,0,0-.72-.88,2.36,2.36,0,0,1-.56-2.33l2-5.4a.53.53,0,0,0-.41-.73l-2.94-.66a1.15,1.15,0,0,0-1.17.54L141.79,34a3.35,3.35,0,0,1-2,1.49,12.48,12.48,0,0,0-1.76.58,1.53,1.53,0,0,1-1.24,0,1.44,1.44,0,0,1-.76-.91l-1-3.31a.37.37,0,0,0-.2-.27.35.35,0,0,0-.32.11l-4.42,3.47a2,2,0,0,0-.66,1.48l.26,4.2a3.73,3.73,0,0,1-.79,2.36,32.45,32.45,0,0,0-2,2.68,2.76,2.76,0,0,1-2.19,1.1l-2.84-.14a1.36,1.36,0,0,0-1.19.74l-2.67,6a.7.7,0,0,0,0,.53.72.72,0,0,0,.37.38l2.29,1a1.88,1.88,0,0,1,1,2.1,27.1,27.1,0,0,0-.48,2.81,4,4,0,0,1-1.1,2.22l-3.91,3.6a1.92,1.92,0,0,0-.52,1.51l.74,4.27a.36.36,0,0,0,.15.28.37.37,0,0,0,.31-.08l3.91-2.57A1.51,1.51,0,0,1,121.67,69.34ZM131.75,66a5.26,5.26,0,0,1-1.87-.33A5.62,5.62,0,0,1,126.57,61c-.89-5.16,2.37-12.49,7.27-16.34,2.7-2.12,5.49-2.87,7.65-2a5.59,5.59,0,0,1,3.31,4.6c.89,5.16-2.37,12.49-7.27,16.34h0A9.64,9.64,0,0,1,131.75,66Zm7.86-22.74a8.83,8.83,0,0,0-5.21,2.17c-4.66,3.67-7.77,10.61-6.93,15.48a4.65,4.65,0,0,0,2.74,3.9c1.85.72,4.32,0,6.76-1.89,4.66-3.67,7.77-10.61,6.93-15.48a4.65,4.65,0,0,0-2.74-3.9A4.18,4.18,0,0,0,139.61,43.23Z" style="fill:#fff"></path></g></g></g><g id="freepik--Device--inject-2"><g id="freepik--Laptop--inject-2"><path d="M42.79,312.77a11,11,0,0,0,5.12,8.49l119.77,69.16a11.31,11.31,0,0,0,10.23,0L364.74,282.55a9.61,9.61,0,0,0,0-17L245,196.4a11.31,11.31,0,0,0-10.23,0L47.91,304.27A11,11,0,0,0,42.79,312.77Z" style="fill:#ebebeb"></path><path d="M47.91,310.18l119.77,69.15a11.31,11.31,0,0,0,10.23,0L364.74,271.46c2.83-1.63,2.83-4.27,0-5.9L245,196.4a11.31,11.31,0,0,0-10.23,0L47.91,304.27C45.08,305.9,45.08,308.55,47.91,310.18Z" style="fill:#fafafa"></path><path d="M172.8,380.57v11.07a10.39,10.39,0,0,1-5.12-1.22L47.9,321.26a9.59,9.59,0,0,1-.52-16.66c-2.29,1.65-2.11,4.06.52,5.58l119.78,69.16A10.51,10.51,0,0,0,172.8,380.57Z" style="fill:#e6e6e6"></path><path d="M236.76,34.29c-2.39-1.91-6.5-1.89-9.33-.26L40.6,141.9a11.28,11.28,0,0,0-5.12,8.86V297.08h0c0,3.27,2,6.85,4.89,8,3,1.16,4.74.85,7.56-.78h0L234.74,196.4a11.3,11.3,0,0,0,5.12-8.86V41.22C239.86,38,239.27,36.28,236.76,34.29Z" style="fill:#f0f0f0"></path><path d="M239.86,41.22c0-3.26-2.3-4.58-5.12-3L47.9,146.14A10.4,10.4,0,0,0,44.29,150L37,145.72h0a10.46,10.46,0,0,1,3.62-3.83L227.43,34c2.82-1.64,6.95-1.67,9.33.26S239.86,38,239.86,41.22Z" style="fill:#7E57C2"></path><path d="M239.86,41.22c0-3.26-2.3-4.58-5.12-3L47.9,146.14A10.4,10.4,0,0,0,44.29,150L37,145.72h0a10.46,10.46,0,0,1,3.62-3.83L227.43,34c2.82-1.64,6.95-1.67,9.33.26S239.86,38,239.86,41.22Z" style="fill:#fff;opacity:0.65"></path><path d="M42.81,301.3l0-146.31a10.39,10.39,0,0,1,1.5-5h0L37,145.72a10.33,10.33,0,0,0-1.5,5V297.09c0,3.27,2,6.85,4.89,8,3,1.16,4.73.85,7.55-.78C45.1,305.89,42.81,304.56,42.81,301.3Z" style="fill:#7E57C2"></path><path d="M42.81,301.3l0-146.31a10.39,10.39,0,0,1,1.5-5h0L37,145.72a10.33,10.33,0,0,0-1.5,5V297.09c0,3.27,2,6.85,4.89,8,3,1.16,4.73.85,7.55-.78C45.1,305.89,42.81,304.56,42.81,301.3Z" style="fill:#fff;opacity:0.45"></path><path d="M50.66,152,230.46,48.26c1.69-1,3.07-.19,3.07,1.77V186.11a6.77,6.77,0,0,1-3.07,5.31L50.66,295.2c-1.7,1-3.07.19-3.07-1.77V157.35A6.77,6.77,0,0,1,50.66,152Z" style="fill:#e0e0e0"></path><path d="M50.66,152a6.77,6.77,0,0,0-3.07,5.31V291.06L225.33,188.47a6.78,6.78,0,0,0,3.07-5.32V49.45Z" style="fill:#fff"></path><path d="M63.71,305.14,235.4,206a5.34,5.34,0,0,1,4.83,0l6.25,3.51c1.33.77,1.33,2,0,2.79L74.76,311.42a5.32,5.32,0,0,1-4.82,0l-6.23-3.49C62.38,307.16,62.38,305.91,63.71,305.14Z" style="fill:#e0e0e0"></path><path d="M80.57,315.08,252.26,216a4.91,4.91,0,0,1,4.41-.24l44.69,25.8c1.1.64.91,1.78-.42,2.55l-171.49,99a4.91,4.91,0,0,1-4.41.24L80.16,317.62C79.05,317,79.24,315.85,80.57,315.08Z" style="fill:#e0e0e0"></path><path d="M229.34,257.59l5.38-3.1c.23-.13.25-.33,0-.45l-5.14-3a.83.83,0,0,0-.78,0l-5.38,3.1c-.22.13-.24.33,0,.45l5.14,3A.86.86,0,0,0,229.34,257.59Zm-7.85-10.74L216.12,250c-.23.13-.25.33-.05.45l5.14,3a.89.89,0,0,0,.78,0l5.38-3.1c.23-.13.25-.34,0-.45l-5.15-3A.86.86,0,0,0,221.49,246.85Zm-17.36,10-9.1,5.25c-.23.14-.25.34-.05.45l5.14,3a.88.88,0,0,0,.79,0l9.09-5.26c.23-.13.25-.33.05-.45l-5.14-3A.89.89,0,0,0,204.13,256.88Zm9.51-5.49-5.38,3.1c-.23.14-.25.34,0,.45l5.15,3a.86.86,0,0,0,.78,0l5.37-3.11c.23-.13.25-.33.05-.45l-5.14-3A.89.89,0,0,0,213.64,251.39Zm-21.09,12.18-5.38,3.1c-.23.13-.25.33,0,.45l5.15,3a.86.86,0,0,0,.78,0l5.37-3.1c.23-.13.25-.33.05-.45l-5.14-3A.83.83,0,0,0,192.55,263.57Zm-7.86,4.53-5.38,3.11c-.22.13-.24.33,0,.45l5.14,3a.89.89,0,0,0,.78,0l5.38-3.1c.23-.14.25-.34,0-.46l-5.14-3A.86.86,0,0,0,184.69,268.1Zm20.16,12.12,5.37-3.11c.23-.13.25-.33.05-.45l-5.14-3a.89.89,0,0,0-.78,0l-5.38,3.1c-.23.14-.25.34-.05.46l5.15,3A.86.86,0,0,0,204.85,280.22ZM197,284.75l5.38-3.1c.23-.13.25-.33,0-.45l-5.14-3a.83.83,0,0,0-.78,0l-5.38,3.1c-.22.13-.24.33,0,.45l5.14,3A.83.83,0,0,0,197,284.75Zm-7.86,4.54,5.38-3.1c.23-.14.25-.34.05-.45l-5.15-3a.86.86,0,0,0-.78,0l-5.37,3.11c-.23.13-.25.33,0,.45l5.14,3A.89.89,0,0,0,189.13,289.29Zm-7.85,4.54,5.37-3.11c.23-.13.25-.33,0-.45l-5.14-3a.89.89,0,0,0-.78,0l-5.38,3.1c-.23.13-.25.34-.05.45l5.15,3A.86.86,0,0,0,181.28,293.83Zm40.21-31.7,5.37-3.1c.23-.14.25-.34,0-.46l-5.15-3a.86.86,0,0,0-.78,0l-5.37,3.11c-.23.13-.25.33-.05.45l5.14,3A.92.92,0,0,0,221.49,262.13Zm-8.78,13.55,12-6.92c.23-.13.25-.34,0-.45l-12.49-7.21a.86.86,0,0,0-.78,0l-6.2,3.58c-.23.14-.25.34-.05.46l6.62,3.81c.2.12.18.32-.05.45l-5,2.87c-.23.13-.25.33-.05.45l5.14,3A.88.88,0,0,0,212.71,275.68Zm-35.88-3-5.37,3.1c-.23.13-.25.34-.05.45l5.14,3a.88.88,0,0,0,.79,0l5.37-3.11c.23-.13.25-.33,0-.45l-5.15-3A.86.86,0,0,0,176.83,272.64ZM169,277.17l-5.38,3.11c-.23.13-.25.33,0,.45l5.14,3a.86.86,0,0,0,.78,0l5.37-3.1c.23-.13.25-.34.05-.45l-5.14-3A.86.86,0,0,0,169,277.17ZM125.5,325.61a.89.89,0,0,0,.78,0l5.38-3.1c.22-.14.25-.34,0-.46l-5.14-3a.86.86,0,0,0-.78,0l-5.38,3.11c-.23.13-.25.33,0,.45Zm-19.38-12.15-5.37,3.11c-.23.13-.25.33,0,.45l5.14,3a.89.89,0,0,0,.78,0l5.38-3.1c.23-.14.25-.34,0-.45l-5.15-3A.86.86,0,0,0,106.12,313.46Zm10,9.1a.89.89,0,0,0,.78,0l5.37-3.1c.23-.13.25-.34.05-.45l-5.14-3a.88.88,0,0,0-.79,0L111,319.14c-.23.13-.25.33,0,.45Zm21.67,4.87,5.38-3.1c.23-.13.25-.33,0-.45l-5.14-3a.83.83,0,0,0-.78,0l-5.38,3.1c-.22.13-.24.33,0,.45l5.14,3A.83.83,0,0,0,137.76,327.43ZM129.13,332a.89.89,0,0,0,.78,0l5.37-3.1c.23-.14.25-.34.05-.46l-5.15-3a.86.86,0,0,0-.78,0L124,328.58c-.23.13-.25.33,0,.45ZM114,308.93,108.6,312c-.22.13-.25.33,0,.45l5.14,3a.83.83,0,0,0,.78,0l5.38-3.1c.23-.13.25-.33,0-.45l-5.14-3A.86.86,0,0,0,114,308.93Zm39.28-22.68-5.37,3.1c-.23.13-.25.33,0,.45l5.14,3a.83.83,0,0,0,.78,0l5.38-3.1c.23-.13.25-.33.05-.45l-5.15-3A.83.83,0,0,0,153.26,286.25Zm-31.42,18.14-5.38,3.1c-.23.14-.25.34,0,.46l5.15,3a.86.86,0,0,0,.78,0l5.37-3.11c.23-.13.25-.33.05-.45l-5.14-3A.89.89,0,0,0,121.84,304.39Zm39.28-22.68-5.38,3.1c-.22.14-.24.34,0,.45l5.14,3a.86.86,0,0,0,.78,0L167,285.1c.23-.13.25-.33,0-.45l-5.14-3A.89.89,0,0,0,161.12,281.71Zm-15.71,9.07L140,293.89c-.23.13-.25.33-.05.45l5.15,3a.89.89,0,0,0,.78,0l5.37-3.1c.23-.14.25-.34.05-.46l-5.14-3A.86.86,0,0,0,145.41,290.78Zm-7.86,4.54-5.38,3.1c-.22.13-.25.34,0,.45l5.14,3a.86.86,0,0,0,.78,0l5.38-3.11c.23-.13.25-.33,0-.45l-5.14-3A.86.86,0,0,0,137.55,295.32Zm-7.86,4.53L124.32,303c-.23.13-.25.33,0,.45l5.14,3a.86.86,0,0,0,.78,0l5.38-3.1c.23-.13.25-.34.05-.45l-5.15-3A.86.86,0,0,0,129.69,299.85Zm35.87,3,5.38-3.11c.23-.13.25-.33.05-.45l-5.15-3a.89.89,0,0,0-.78,0l-5.37,3.1c-.23.14-.25.34-.05.46l5.14,3A.89.89,0,0,0,165.56,302.9Zm73.3-66.07-5.37,3.1c-.23.13-.25.33-.05.45l5.14,3a.83.83,0,0,0,.78,0l5.38-3.1c.23-.13.25-.33,0-.45l-5.14-3A.83.83,0,0,0,238.86,236.83Zm-9.51,5.49-5.38,3.1c-.22.13-.24.33,0,.45l5.14,3a.83.83,0,0,0,.78,0l5.38-3.1c.23-.13.25-.33,0-.45l-5.14-3A.86.86,0,0,0,229.35,242.32Zm17.37-10-5.38,3.1c-.23.14-.25.34,0,.46l5.14,3a.86.86,0,0,0,.78,0l5.37-3.11c.23-.13.25-.33,0-.45l-5.14-3A.89.89,0,0,0,246.72,232.29Zm-43.43,40.34,5.38-3.1c.22-.13.25-.33,0-.45l-5.14-3a.83.83,0,0,0-.78,0l-5.38,3.1c-.23.13-.25.33,0,.45l5.14,3A.83.83,0,0,0,203.29,272.63Zm52.06-44.9a.86.86,0,0,0-.78,0l-5.37,3.11c-.23.13-.25.33,0,.45l5.15,3a.86.86,0,0,0,.78,0l5.37-3.1c.23-.13.25-.34.05-.45Zm-81.93,70.63,5.38-3.1c.23-.13.25-.34,0-.45l-5.14-3a.86.86,0,0,0-.78,0L167.54,295c-.22.13-.25.33,0,.45l5.14,3A.86.86,0,0,0,173.42,298.36Zm96.35-55.63,5.38-3.1c.22-.13.24-.33,0-.45l-5.14-3a.86.86,0,0,0-.78,0l-5.38,3.1c-.23.13-.25.34,0,.45l5.14,3A.83.83,0,0,0,269.77,242.73Zm-15.2.3,5.37-3.1c.23-.14.25-.34.05-.45l-5.15-3a.86.86,0,0,0-.78,0l-5.37,3.11c-.23.13-.25.33-.05.45l5.15,3A.89.89,0,0,0,254.57,243ZM262.7,232a.83.83,0,0,0-.78,0l-5.37,3.1c-.23.13-.25.33-.05.45l5.14,3a.86.86,0,0,0,.78,0l5.38-3.1c.23-.13.25-.33,0-.45Zm1.66-1,12.49,7.22a.89.89,0,0,0,.78,0l5.37-3.1c.23-.14.25-.34.05-.46l-12.49-7.21a.89.89,0,0,0-.78,0l-5.38,3.1C264.17,230.7,264.15,230.9,264.36,231Zm-18.15,10.06-5.38,3.1c-.23.13-.25.34,0,.45l5.14,3a.86.86,0,0,0,.78,0l5.38-3.11c.22-.13.24-.33,0-.45L247,241A.86.86,0,0,0,246.21,241.07Zm-59.13,34.14-5.38,3.1c-.23.13-.25.34,0,.45l5.15,3a.86.86,0,0,0,.78,0L193,278.6c.23-.13.25-.33.05-.45l-5.14-3A.86.86,0,0,0,187.08,275.21Zm74-27.91a.86.86,0,0,0,.78,0l5.38-3.1c.23-.13.25-.34,0-.45l-5.15-3a.86.86,0,0,0-.78,0L256,243.88c-.23.13-.25.33-.05.45Zm-66.2,23.37-5.37,3.11c-.23.13-.25.33-.05.45l5.14,3a.89.89,0,0,0,.78,0l5.38-3.1c.23-.14.25-.34.05-.45l-5.15-3A.86.86,0,0,0,194.93,270.67Zm-61.57,50.4a.86.86,0,0,0,.78,0l5.37-3.1c.23-.13.25-.33.05-.45l-5.14-3a.83.83,0,0,0-.78,0l-5.38,3.1c-.23.13-.25.33,0,.45Zm-9.14-9.57-5.37,3.1c-.23.13-.25.34,0,.45l5.14,3a.83.83,0,0,0,.78,0l5.38-3.1c.23-.13.25-.33,0-.45l-5.14-3A.86.86,0,0,0,124.22,311.5Zm17.77,5,5.38-3.11c.23-.13.25-.33,0-.45l-5.15-3a.89.89,0,0,0-.78,0l-5.37,3.1c-.23.13-.25.34-.05.45l5.14,3A.86.86,0,0,0,142,316.51Zm7.86-4.54,5.38-3.1c.23-.14.25-.34,0-.45l-5.14-3a.86.86,0,0,0-.78,0L144,308.58c-.22.13-.25.33,0,.45l5.14,3A.89.89,0,0,0,149.85,312Zm7.86-4.54,5.37-3.1c.23-.13.25-.33,0-.45l-5.14-3a.86.86,0,0,0-.78,0l-5.38,3.1c-.23.13-.25.33-.05.45l5.15,3A.83.83,0,0,0,157.71,307.43ZM132.08,307l-5.38,3.11c-.23.13-.25.33,0,.45l5.14,3a.86.86,0,0,0,.78,0l5.38-3.11c.22-.13.24-.33,0-.45l-5.14-3A.89.89,0,0,0,132.08,307Zm7.85-4.53-5.37,3.1c-.23.13-.25.33-.05.45l5.15,3a.86.86,0,0,0,.78,0l5.37-3.1c.23-.13.25-.33.05-.45l-5.14-3A.85.85,0,0,0,139.93,302.43Zm31.43-18.15-5.37,3.1c-.23.14-.25.34-.05.46l5.14,3a.86.86,0,0,0,.78,0l5.38-3.11c.23-.13.25-.33,0-.45l-5.15-3A.89.89,0,0,0,171.36,284.28Zm-7.86,4.54-5.37,3.1c-.23.13-.25.33,0,.45l5.15,3a.83.83,0,0,0,.78,0l5.37-3.1c.23-.13.25-.33.05-.45l-5.14-3A.88.88,0,0,0,163.5,288.82Zm15.72-9.08-5.38,3.11c-.23.13-.25.33,0,.45l5.14,3a.86.86,0,0,0,.78,0l5.38-3.1c.22-.13.24-.34,0-.45l-5.14-3A.86.86,0,0,0,179.22,279.74Zm-31.43,18.15-5.37,3.1c-.23.13-.25.34,0,.45l5.14,3a.86.86,0,0,0,.78,0l5.38-3.11c.23-.13.25-.33.05-.45l-5.15-3A.89.89,0,0,0,147.79,297.89Zm7.86-4.54-5.38,3.11c-.23.13-.25.33,0,.45l5.14,3a.89.89,0,0,0,.78,0l5.38-3.1c.22-.14.24-.34,0-.45l-5.14-3A.86.86,0,0,0,155.65,293.35Zm-10,29.55,5.38-3.11c.22-.13.24-.33,0-.45l-5.14-3a.89.89,0,0,0-.78,0l-5.38,3.1c-.23.14-.25.34,0,.45l5.14,3A.86.86,0,0,0,145.62,322.9Zm-41.43-2-5.14-3a.89.89,0,0,0-.78,0l-5.38,3.1c-.23.13-.25.34,0,.45l5.15,3a.86.86,0,0,0,.78,0l5.37-3.11C104.37,321.26,104.39,321.06,104.19,320.94Zm10.24,2.57-5.14-3a.89.89,0,0,0-.78,0l-8.27,4.77c-.23.14-.25.34,0,.46l5.14,3a.86.86,0,0,0,.78,0l8.27-4.78C114.61,323.83,114.63,323.63,114.43,323.51Zm-17.92-8.43-5.14-3a.86.86,0,0,0-.78,0L84,316c-.22.14-.25.34,0,.46l5.14,3a.86.86,0,0,0,.78,0l6.62-3.82C96.7,315.4,96.72,315.19,96.51,315.08Zm5.08-2.93a.86.86,0,0,0,.78,0l5.37-3.1c.23-.13.25-.34.05-.45l-5.14-3a.85.85,0,0,0-.79,0l-5.37,3.1c-.23.13-.25.33,0,.45Zm22.26,14.41-5.15-3a.86.86,0,0,0-.78,0l-10.34,6c-.22.13-.24.33,0,.45l5.14,3a.89.89,0,0,0,.78,0l10.34-6C124,326.88,124.05,326.68,123.85,326.56Zm3.62,6.39-5.14-3a.86.86,0,0,0-.78,0l-6.62,3.82c-.23.13-.25.33,0,.45l5.14,3a.86.86,0,0,0,.78,0l6.62-3.82C127.65,333.27,127.67,333.07,127.47,333ZM160,278.42a.86.86,0,0,0,.78,0l5.38-3.11c.23-.13.25-.33,0-.45l-5.14-3a.86.86,0,0,0-.78,0l-5.37,3.1c-.23.13-.25.34,0,.45Zm-15.71,9.07a.86.86,0,0,0,.78,0l5.37-3.11c.23-.13.25-.33.05-.45l-5.14-3a.89.89,0,0,0-.78,0l-5.38,3.1c-.23.14-.25.34-.05.46Zm-34.85,20.12a.86.86,0,0,0,.78,0l5.38-3.11c.23-.13.25-.33.05-.45l-5.15-3a.89.89,0,0,0-.78,0l-5.37,3.1c-.23.13-.25.34,0,.45ZM152.14,283a.88.88,0,0,0,.79,0l5.37-3.1c.23-.13.25-.34,0-.45l-5.15-3a.86.86,0,0,0-.78,0l-5.37,3.11c-.23.13-.25.33-.05.45ZM136.43,292a.83.83,0,0,0,.78,0l5.38-3.1c.23-.13.25-.33,0-.45l-5.14-3a.86.86,0,0,0-.78,0l-5.38,3.1c-.22.13-.24.33,0,.45Zm-5.1,41.24a.83.83,0,0,0-.78,0l-8.27,4.77c-.23.13-.25.33,0,.45l5.15,3a.83.83,0,0,0,.78,0l8.27-4.77c.22-.13.24-.34,0-.45Zm-6.17-34.73a.83.83,0,0,0,.78,0l5.37-3.1c.23-.13.25-.33.05-.45l-5.14-3a.88.88,0,0,0-.79,0l-5.37,3.1c-.23.13-.25.33,0,.45Zm-7.86,4.54a.89.89,0,0,0,.78,0l5.38-3.1c.22-.14.24-.34,0-.45l-5.14-3a.86.86,0,0,0-.78,0l-5.38,3.11c-.23.13-.25.33,0,.45Zm159.59-53.85a.86.86,0,0,0-.78,0l-13.24,7.64c-.23.13-.25.33,0,.45l5.14,3a.89.89,0,0,0,.78,0L282,252.65c.23-.13.25-.33,0-.45Zm-17.37,10a.83.83,0,0,0-.78,0l-5.38,3.1c-.23.13-.25.33,0,.45l5.14,3a.86.86,0,0,0,.78,0l5.38-3.1c.22-.13.24-.34,0-.45Zm-106,59.1,5.37-3.1c.23-.13.25-.34.05-.45l-5.14-3a.88.88,0,0,0-.79,0L147.6,315c-.23.13-.25.33,0,.45l5.15,3A.89.89,0,0,0,153.48,318.36Zm90.33-50a.88.88,0,0,0-.79,0l-5.37,3.1c-.23.13-.25.33-.05.45l5.14,3a.85.85,0,0,0,.79,0l5.37-3.1c.23-.13.25-.33,0-.45Zm40.93-23.64a.89.89,0,0,0-.78,0l-5.37,3.11c-.23.13-.25.33,0,.45l5.14,3a.89.89,0,0,0,.78,0l5.38-3.1c.23-.14.25-.34.05-.46Zm13-1.56-12.49-7.21a.86.86,0,0,0-.78,0l-5.37,3.11c-.23.13-.25.33-.05.45l12.49,7.21a.86.86,0,0,0,.78,0l5.38-3.1C297.92,243.45,298,243.25,297.74,243.13Zm-83.29,42.15a.88.88,0,0,0-.79,0l-6.61,3.82c-.23.13-.25.33-.05.45l5.15,3a.89.89,0,0,0,.78,0l6.61-3.82c.23-.13.25-.33.05-.45Zm19.84-11.46a.86.86,0,0,0-.78,0l-8.27,4.77c-.23.13-.25.34,0,.45l5.14,3a.86.86,0,0,0,.78,0l8.27-4.78c.23-.13.25-.33.05-.45Zm-38,22a.86.86,0,0,0-.78,0l-44.25,25.55c-.22.13-.25.33,0,.45l5.14,3a.86.86,0,0,0,.78,0l44.25-25.54c.23-.14.25-.34,0-.45Zm-46.73,27a.89.89,0,0,0-.78,0l-6.61,3.82c-.23.13-.25.33,0,.45l5.14,3a.83.83,0,0,0,.78,0l6.62-3.82c.23-.13.25-.33,0-.45Zm55.83-32.23a.89.89,0,0,0-.78,0L198,294.38c-.23.13-.25.33,0,.45l5.15,3a.83.83,0,0,0,.78,0l6.61-3.82c.23-.13.25-.33.05-.45ZM140.43,328a.86.86,0,0,0-.78,0L133,331.86c-.23.13-.25.34-.05.45l5.15,3a.86.86,0,0,0,.78,0l6.61-3.82c.23-.14.25-.34,0-.45Zm83.11-48a.83.83,0,0,0-.78,0l-6.61,3.82c-.23.13-.25.33-.05.45l5.14,3a.89.89,0,0,0,.78,0l6.62-3.82c.23-.13.25-.33.05-.45Zm28.12-16.24a.89.89,0,0,0-.78,0l-5.37,3.1c-.23.14-.25.34,0,.46l5.14,3a.86.86,0,0,0,.78,0l5.38-3.11c.23-.13.25-.33,0-.45Zm17.6-12.28,5.38-3.1c.22-.13.25-.33,0-.45l-5.14-3a.83.83,0,0,0-.78,0l-5.38,3.1c-.23.13-.25.33,0,.45l5.14,3A.86.86,0,0,0,269.26,251.51Zm-32.06,1.55,5.37-3.11c.23-.13.25-.33.05-.45l-5.14-3a.89.89,0,0,0-.78,0l-5.38,3.1c-.23.14-.25.34,0,.45l5.14,3A.86.86,0,0,0,237.2,253.06Zm-20.87,29L232,273c.23-.13.25-.33.05-.45l-5.14-3a.83.83,0,0,0-.78,0l-15.72,9.07c-.23.13-.25.33,0,.45l5.14,3A.86.86,0,0,0,216.33,282.07Zm44.29-26a.89.89,0,0,0,.78,0l5.38-3.1c.23-.14.25-.34.05-.46l-5.15-3a.86.86,0,0,0-.78,0l-5.37,3.11c-.23.13-.25.33-.05.45Zm-6.56-4.27,5.37-3.11c.23-.13.25-.33.05-.45l-5.14-3a.92.92,0,0,0-.79,0l-5.37,3.1c-.23.14-.25.34-.05.45l5.15,3A.86.86,0,0,0,254.06,251.81Zm-45.59,34.8,5.38-3.11c.23-.13.25-.33.05-.45l-5.15-3a.89.89,0,0,0-.78,0l-5.37,3.11c-.23.13-.25.33,0,.45l5.14,3A.86.86,0,0,0,208.47,286.61Zm34.78-20.51a.88.88,0,0,0,.79,0l5.37-3.11c.23-.13.25-.33.05-.45l-5.15-3a.89.89,0,0,0-.78,0l-5.37,3.1c-.23.13-.25.34,0,.45Zm-74.06,43.19,5.38-3.11c.22-.13.24-.33,0-.45l-5.14-3a.86.86,0,0,0-.78,0l-5.38,3.11c-.23.13-.25.33,0,.45l5.14,3A.89.89,0,0,0,169.19,309.29Zm7.86-4.54,5.37-3.1c.23-.13.25-.33.05-.45l-5.14-3a.85.85,0,0,0-.79,0l-5.37,3.1c-.23.13-.25.33,0,.45l5.15,3A.86.86,0,0,0,177.05,304.75Zm-15.72,9.07,5.38-3.1c.23-.13.25-.33,0-.45l-5.14-3a.86.86,0,0,0-.78,0l-5.37,3.1c-.23.13-.25.34-.05.45l5.14,3A.83.83,0,0,0,161.33,313.82Zm31.43-18.14,5.38-3.1c.22-.14.25-.34,0-.45l-5.14-3a.86.86,0,0,0-.78,0l-5.38,3.11c-.23.13-.25.33,0,.45l5.14,3A.89.89,0,0,0,192.76,295.68Zm-7.86,4.54,5.38-3.11c.23-.13.25-.33.05-.45l-5.15-3a.89.89,0,0,0-.78,0l-5.37,3.1c-.23.13-.25.34-.05.45l5.14,3A.86.86,0,0,0,184.9,300.22Zm15.72-9.08L206,288c.23-.13.25-.33,0-.45l-5.14-3a.88.88,0,0,0-.79,0l-5.37,3.1c-.23.13-.25.33-.05.45l5.15,3A.83.83,0,0,0,200.62,291.14ZM243.49,228a.83.83,0,0,0,.78,0l5.38-3.1c.23-.13.25-.33,0-.45l-1.36-.79a.85.85,0,0,0-.79,0l-5.37,3.1c-.23.13-.25.33,0,.45Zm-39.05,24.73a.89.89,0,0,0,.78,0l5.38-3.1c.23-.14.25-.34,0-.46l-5.14-3a.86.86,0,0,0-.78,0l-5.38,3.11c-.22.13-.25.33,0,.45Zm15.71-9.08a.86.86,0,0,0,.78,0l5.38-3.11c.23-.13.25-.33.05-.45l-5.15-3a.89.89,0,0,0-.78,0l-5.37,3.1c-.23.13-.25.34-.05.45Zm-25.3,14.61a.86.86,0,0,0,.78,0l5.37-3.11c.23-.13.25-.33.05-.45l-5.14-3a.89.89,0,0,0-.78,0l-5.38,3.1c-.23.14-.25.34-.05.46Zm17.45-10.07a.86.86,0,0,0,.78,0l5.37-3.1c.23-.13.25-.33.05-.45l-5.14-3a.83.83,0,0,0-.78,0l-5.38,3.1c-.23.13-.25.33,0,.45Zm-33.17,19.15a.89.89,0,0,0,.78,0l5.38-3.1c.23-.14.25-.34.05-.45l-5.15-3a.86.86,0,0,0-.78,0L174,264c-.23.13-.25.33,0,.45Zm7.86-4.54a.83.83,0,0,0,.78,0l5.38-3.1c.23-.13.25-.33,0-.45l-5.14-3a.86.86,0,0,0-.78,0l-5.38,3.1c-.23.13-.25.33,0,.45Zm40.79-25.73a.86.86,0,0,0,.78,0l5.37-3.11c.23-.13.25-.33,0-.45l-1.37-.79a.86.86,0,0,0-.78,0l-5.37,3.1c-.23.13-.25.34-.05.45Zm23.57-13.61a.86.86,0,0,0,.78,0l5.38-3.11c.22-.13.24-.33,0-.45l-1.37-.79a.89.89,0,0,0-.78,0l-5.37,3.1c-.23.14-.25.34-.05.45Zm10.8,6.24a.86.86,0,0,0,.78,0l5.38-3.11c.23-.13.25-.33,0-.45l-5.14-3a.86.86,0,0,0-.78,0l-5.37,3.1c-.23.13-.25.34-.05.45Zm15,17.24,5.37-3.11c.23-.13.25-.33.05-.45l-5.14-3a.92.92,0,0,0-.79,0l-5.37,3.1c-.23.14-.25.34-.05.45l5.15,3A.86.86,0,0,0,277.12,247Zm-41.49-14.4a.92.92,0,0,0,.79,0l5.37-3.1c.23-.14.25-.34.05-.45l-1.37-.79a.86.86,0,0,0-.78,0l-5.38,3.11c-.23.13-.25.33,0,.45Zm-64.35,39.33a.86.86,0,0,0,.78,0l5.37-3.11c.23-.13.25-.33,0-.45l-5.14-3a.89.89,0,0,0-.78,0l-5.38,3.1c-.23.13-.25.34-.05.45Z" style="fill:#fafafa"></path><polygon points="193.78 316.62 194.95 317.3 226 335.22 281.21 303.34 282.36 302.69 250.14 284.09 193.78 316.62" style="fill:#e0e0e0"></polygon><polygon points="193.78 316.62 194.95 317.3 226 335.22 281.21 303.34 282.36 302.69 250.14 284.09 193.78 316.62" style="opacity:0.2"></polygon><polygon points="280.5 303.75 250.14 286.24 195.66 317.71 225.99 335.22 280.5 303.75" style="fill:#e0e0e0"></polygon></g></g><g id="freepik--Screen--inject-2"><g id="freepik--Window--inject-2"><g id="freepik--window--inject-2"><path d="M225,64.66a1.45,1.45,0,0,0-.06-.3.07.07,0,0,0,0-.06,1.23,1.23,0,0,0-.07-.29,1.59,1.59,0,0,0-.19-.42,1.63,1.63,0,0,0-.11-.17.35.35,0,0,0-.1-.11.87.87,0,0,0-.21-.22l0,0-.28-.16a2.37,2.37,0,0,0-2.18.28L58.52,157.14c-1.79,1-3.25,3.56-3.25,7.17V285.66a2.21,2.21,0,0,0,1.17,1.95l.14.09.17.09a.94.94,0,0,0,.28.1,2,2,0,0,0,.41.05,2,2,0,0,0,1.08-.31l.08,0h0l3.1-1.78,160.1-92.17a7.17,7.17,0,0,0,3.25-5.62V65.06C225.06,64.93,225.05,64.79,225,64.66Z" style="fill:#455a64"></path><path d="M224,62.91a2.37,2.37,0,0,0-2.18.28L58.52,157.14a7.19,7.19,0,0,0-3.25,5.62v6.3l-4.14-2.43v-6.22a7.15,7.15,0,0,1,3.24-5.61l163.3-94a2.22,2.22,0,0,1,2.35-.19C220.61,61,223.3,62.55,224,62.91Z" style="fill:#7E57C2"></path><path d="M225.05,65c0-2.05-1.46-2.88-3.24-1.85L58.52,157.14a7.19,7.19,0,0,0-3.25,5.62v6.3L225.05,71.38Z" style="fill:#7E57C2"></path><g style="opacity:0.2"><path d="M221.81,63.19,58.52,157.14a6.63,6.63,0,0,0-2.28,2.41l-4.13-2.39a6.54,6.54,0,0,1,2.26-2.37L217.66,60.84a2.3,2.3,0,0,1,2.36-.19c.58.36,3.28,1.89,4,2.26A2.32,2.32,0,0,0,221.81,63.19Z" style="fill:#fff"></path></g><path d="M51.12,166.64v-6.23a6.72,6.72,0,0,1,1-3.25l4.14,2.38a6.46,6.46,0,0,0-1,3.22v6.3Z" style="opacity:0.15"></path><path d="M212.26,71.71A3.25,3.25,0,0,0,211,74.32c0,1,.55,1.57,1.23,1.18a3.25,3.25,0,0,0,1.24-2.61C213.5,71.84,212.94,71.31,212.26,71.71Z" style="fill:#fff"></path><path d="M216.7,69.14a3.25,3.25,0,0,0-1.23,2.61c0,1,.55,1.58,1.23,1.18a3.25,3.25,0,0,0,1.23-2.61C217.93,69.28,217.38,68.75,216.7,69.14Z" style="fill:#fff"></path><path d="M221.14,66.57a3.25,3.25,0,0,0-1.23,2.61c0,1,.55,1.58,1.23,1.19a3.26,3.26,0,0,0,1.23-2.61C222.37,66.71,221.82,66.18,221.14,66.57Z" style="fill:#fff"></path><path d="M56.44,287.62l-.17-.1-3.42-2A3.42,3.42,0,0,1,51.16,283a3.89,3.89,0,0,1,0-.47V166.63l4.15,2.43V285.65a2.13,2.13,0,0,0,1,1.84l.11.08,0,0Z" style="fill:#263238"></path></g><g id="freepik--Code--inject-2" style="opacity:0.5"><g style="opacity:0.6000000000000001"><path d="M64.48,235.88l4.42-2.55c.44-.26.8-.05.8.46v1.62a1.79,1.79,0,0,1-.8,1.4l-4.42,2.55c-.44.25-.8,0-.8-.47v-1.62A1.75,1.75,0,0,1,64.48,235.88Z" style="fill:#fff"></path><path d="M64.48,242.35l4.42-2.56c.44-.25.8,0,.8.47v1.62a1.77,1.77,0,0,1-.8,1.39l-4.42,2.55c-.44.26-.8.05-.8-.46v-1.62A1.73,1.73,0,0,1,64.48,242.35Z" style="fill:#fff"></path><path d="M64.48,248.81l4.42-2.55c.44-.26.8,0,.8.46v1.63a1.79,1.79,0,0,1-.8,1.39l-4.42,2.55c-.44.26-.8.05-.8-.46V250.2A1.76,1.76,0,0,1,64.48,248.81Z" style="fill:#fff"></path><path d="M64.48,255.28l4.42-2.55c.44-.26.8,0,.8.46v1.63a1.79,1.79,0,0,1-.8,1.39l-4.42,2.55c-.44.26-.8.05-.8-.46v-1.63A1.76,1.76,0,0,1,64.48,255.28Z" style="fill:#fff"></path></g><g style="opacity:0.6000000000000001"><path d="M64.48,203.8l4.42-2.56c.44-.25.8,0,.8.47v1.62a1.76,1.76,0,0,1-.8,1.39l-4.42,2.56c-.44.25-.8.05-.8-.47v-1.62A1.75,1.75,0,0,1,64.48,203.8Z" style="fill:#fff"></path><path d="M64.48,210.26l4.42-2.55c.44-.25.8-.05.8.47v1.62a1.77,1.77,0,0,1-.8,1.39l-4.42,2.55c-.44.26-.8,0-.8-.46v-1.62A1.77,1.77,0,0,1,64.48,210.26Z" style="fill:#fff"></path><path d="M64.48,216.73l4.42-2.55c.44-.26.8-.05.8.46v1.63a1.79,1.79,0,0,1-.8,1.39l-4.42,2.55c-.44.26-.8,0-.8-.46v-1.63A1.76,1.76,0,0,1,64.48,216.73Z" style="fill:#fff"></path><path d="M64.48,223.2l4.42-2.55c.44-.26.8-.05.8.46v1.63a1.79,1.79,0,0,1-.8,1.39l-4.42,2.55c-.44.25-.8,0-.8-.46v-1.63A1.76,1.76,0,0,1,64.48,223.2Z" style="fill:#fff"></path><path d="M64.48,268l4.42-2.55c.44-.26.8-.05.8.46v1.63a1.79,1.79,0,0,1-.8,1.39l-4.42,2.55c-.44.25-.8.05-.8-.47v-1.62A1.75,1.75,0,0,1,64.48,268Z" style="fill:#fff"></path><path d="M64.48,274.43l4.42-2.56c.44-.25.8,0,.8.47V274a1.77,1.77,0,0,1-.8,1.39l-4.42,2.56c-.44.25-.8,0-.8-.47v-1.62A1.75,1.75,0,0,1,64.48,274.43Z" style="fill:#fff"></path></g><g style="opacity:0.6000000000000001"><path d="M64.48,171.72l4.42-2.56c.44-.25.8,0,.8.47v1.62a1.76,1.76,0,0,1-.8,1.39l-4.42,2.56c-.44.25-.8,0-.8-.47v-1.62A1.75,1.75,0,0,1,64.48,171.72Z" style="fill:#fff"></path><path d="M64.48,178.18l4.42-2.55c.44-.25.8,0,.8.47v1.62a1.77,1.77,0,0,1-.8,1.39l-4.42,2.55c-.44.26-.8.05-.8-.46v-1.63A1.76,1.76,0,0,1,64.48,178.18Z" style="fill:#fff"></path><path d="M64.48,184.65l4.42-2.55c.44-.26.8,0,.8.46v1.63a1.79,1.79,0,0,1-.8,1.39l-4.42,2.55c-.44.26-.8.05-.8-.46V186A1.76,1.76,0,0,1,64.48,184.65Z" style="fill:#fff"></path><path d="M64.48,191.12l4.42-2.55c.44-.26.8,0,.8.46v1.62a1.79,1.79,0,0,1-.8,1.4l-4.42,2.55c-.44.25-.8.05-.8-.47v-1.62A1.75,1.75,0,0,1,64.48,191.12Z" style="fill:#fff"></path></g><path d="M215.42,132.31l-33.91,19.58a5,5,0,0,0-2.28,4v51.08c0,1.46,1,2,2.28,1.32l33.91-19.58a5,5,0,0,0,2.28-3.95V133.63C217.7,132.18,216.68,131.59,215.42,132.31Z" style="fill:#37474f"></path><path d="M212.27,171.13l-3.12,1.81a2.48,2.48,0,0,0-1.15,1.91c0,.69.52,1,1.15.59l3.12-1.81a2.47,2.47,0,0,0,1.16-1.91C213.43,171,212.91,170.77,212.27,171.13Z" style="fill:#7E57C2"></path><path d="M212.27,171.13l-3.12,1.81a2.48,2.48,0,0,0-1.15,1.91c0,.69.52,1,1.15.59l3.12-1.81a2.47,2.47,0,0,0,1.16-1.91C213.43,171,212.91,170.77,212.27,171.13Z" style="fill:#fff;opacity:0.6000000000000001"></path><path d="M212.27,139.06l-3.12,1.81a2.48,2.48,0,0,0-1.15,1.91c0,.69.52.95,1.15.58l3.12-1.8a2.48,2.48,0,0,0,1.16-1.91C213.43,139,212.91,138.69,212.27,139.06Z" style="fill:#7E57C2"></path><path d="M212.27,139.06l-3.12,1.81a2.48,2.48,0,0,0-1.15,1.91c0,.69.52.95,1.15.58l3.12-1.8a2.48,2.48,0,0,0,1.16-1.91C213.43,139,212.91,138.69,212.27,139.06Z" style="fill:#fff;opacity:0.6000000000000001"></path><path d="M207.89,148l-3.13,1.8a2.5,2.5,0,0,0-1.15,1.92c0,.68.52.95,1.15.58l3.13-1.81a2.47,2.47,0,0,0,1.15-1.91C209,147.89,208.52,147.63,207.89,148Z" style="fill:#7E57C2"></path><path d="M207.89,148l-3.13,1.8a2.5,2.5,0,0,0-1.15,1.92c0,.68.52.95,1.15.58l3.13-1.81a2.47,2.47,0,0,0,1.15-1.91C209,147.89,208.52,147.63,207.89,148Z" style="fill:#fff;opacity:0.6000000000000001"></path><path d="M207.89,154.39l-3.13,1.81a2.48,2.48,0,0,0-1.15,1.91c0,.69.52.95,1.15.59l3.13-1.81A2.48,2.48,0,0,0,209,155C209,154.29,208.52,154,207.89,154.39Z" style="fill:#7E57C2"></path><path d="M207.89,154.39l-3.13,1.81a2.48,2.48,0,0,0-1.15,1.91c0,.69.52.95,1.15.59l3.13-1.81A2.48,2.48,0,0,0,209,155C209,154.29,208.52,154,207.89,154.39Z" style="fill:#fff;opacity:0.6000000000000001"></path><path d="M212.27,158.3l-3.12,1.81A2.47,2.47,0,0,0,208,162c0,.69.52.95,1.15.58l3.12-1.8a2.48,2.48,0,0,0,1.16-1.92C213.43,158.19,212.91,157.93,212.27,158.3Z" style="fill:#7E57C2"></path><path d="M212.27,158.3l-3.12,1.81A2.47,2.47,0,0,0,208,162c0,.69.52.95,1.15.58l3.12-1.8a2.48,2.48,0,0,0,1.16-1.92C213.43,158.19,212.91,157.93,212.27,158.3Z" style="fill:#fff;opacity:0.6000000000000001"></path><path d="M207.89,167.24l-3.13,1.81a2.47,2.47,0,0,0-1.15,1.91c0,.69.52.95,1.15.58l3.13-1.8a2.5,2.5,0,0,0,1.15-1.92C209,167.13,208.52,166.87,207.89,167.24Z" style="fill:#7E57C2"></path><path d="M207.89,167.24l-3.13,1.81a2.47,2.47,0,0,0-1.15,1.91c0,.69.52.95,1.15.58l3.13-1.8a2.5,2.5,0,0,0,1.15-1.92C209,167.13,208.52,166.87,207.89,167.24Z" style="fill:#fff;opacity:0.6000000000000001"></path><path d="M203.72,144l-19.06,11a2.48,2.48,0,0,0-1.16,1.92c0,.68.52.95,1.16.58l19.06-11a2.48,2.48,0,0,0,1.16-1.92C204.88,143.89,204.36,143.63,203.72,144Z" style="fill:#7E57C2"></path><path d="M203.72,144l-19.06,11a2.48,2.48,0,0,0-1.16,1.92c0,.68.52.95,1.16.58l19.06-11a2.48,2.48,0,0,0,1.16-1.92C204.88,143.89,204.36,143.63,203.72,144Z" style="fill:#fff;opacity:0.8"></path><path d="M203.72,176.07l-19.06,11A2.48,2.48,0,0,0,183.5,189c0,.69.52.95,1.16.58l19.06-11a2.48,2.48,0,0,0,1.16-1.92C204.88,176,204.36,175.7,203.72,176.07Z" style="fill:#7E57C2"></path><path d="M203.72,176.07l-19.06,11A2.48,2.48,0,0,0,183.5,189c0,.69.52.95,1.16.58l19.06-11a2.48,2.48,0,0,0,1.16-1.92C204.88,176,204.36,175.7,203.72,176.07Z" style="fill:#fff;opacity:0.8"></path><path d="M199.34,152.93l-14.68,8.49a2.48,2.48,0,0,0-1.16,1.92c0,.69.52.95,1.16.58l14.68-8.49a2.48,2.48,0,0,0,1.15-1.91C200.49,152.83,200,152.57,199.34,152.93Z" style="fill:#7E57C2"></path><path d="M199.34,152.93l-14.68,8.49a2.48,2.48,0,0,0-1.16,1.92c0,.69.52.95,1.16.58l14.68-8.49a2.48,2.48,0,0,0,1.15-1.91C200.49,152.83,200,152.57,199.34,152.93Z" style="fill:#fff;opacity:0.8"></path><path d="M199.34,159.35l-14.68,8.49a2.47,2.47,0,0,0-1.16,1.91c0,.69.52.95,1.16.59l14.68-8.5a2.47,2.47,0,0,0,1.15-1.91C200.49,159.24,200,159,199.34,159.35Z" style="fill:#7E57C2"></path><path d="M199.34,159.35l-14.68,8.49a2.47,2.47,0,0,0-1.16,1.91c0,.69.52.95,1.16.59l14.68-8.5a2.47,2.47,0,0,0,1.15-1.91C200.49,159.24,200,159,199.34,159.35Z" style="fill:#fff;opacity:0.8"></path><path d="M203.72,163.24l-19.06,11a2.48,2.48,0,0,0-1.16,1.92c0,.69.52,1,1.16.58l19.06-11a2.47,2.47,0,0,0,1.16-1.91C204.88,163.14,204.36,162.88,203.72,163.24Z" style="fill:#7E57C2"></path><path d="M203.72,163.24l-19.06,11a2.48,2.48,0,0,0-1.16,1.92c0,.69.52,1,1.16.58l19.06-11a2.47,2.47,0,0,0,1.16-1.91C204.88,163.14,204.36,162.88,203.72,163.24Z" style="fill:#fff;opacity:0.8"></path><path d="M199.34,172.18l-14.68,8.49a2.45,2.45,0,0,0-1.16,1.91c0,.69.52.95,1.16.58l14.68-8.48a2.5,2.5,0,0,0,1.15-1.92C200.49,172.07,200,171.81,199.34,172.18Z" style="fill:#7E57C2"></path><path d="M199.34,172.18l-14.68,8.49a2.45,2.45,0,0,0-1.16,1.91c0,.69.52.95,1.16.58l14.68-8.48a2.5,2.5,0,0,0,1.15-1.92C200.49,172.07,200,171.81,199.34,172.18Z" style="fill:#fff;opacity:0.8"></path><path d="M212.27,184l-3.12,1.81a2.47,2.47,0,0,0-1.15,1.91c0,.69.52.95,1.15.58l3.12-1.8a2.48,2.48,0,0,0,1.16-1.92C213.43,183.92,212.91,183.66,212.27,184Z" style="fill:#7E57C2"></path><path d="M212.27,184l-3.12,1.81a2.47,2.47,0,0,0-1.15,1.91c0,.69.52.95,1.15.58l3.12-1.8a2.48,2.48,0,0,0,1.16-1.92C213.43,183.92,212.91,183.66,212.27,184Z" style="fill:#fff;opacity:0.6000000000000001"></path><path d="M207.89,180.14l-3.13,1.8a2.5,2.5,0,0,0-1.15,1.92c0,.69.52.95,1.15.58l3.13-1.8a2.5,2.5,0,0,0,1.15-1.92C209,180,208.52,179.77,207.89,180.14Z" style="fill:#7E57C2"></path><path d="M207.89,180.14l-3.13,1.8a2.5,2.5,0,0,0-1.15,1.92c0,.69.52.95,1.15.58l3.13-1.8a2.5,2.5,0,0,0,1.15-1.92C209,180,208.52,179.77,207.89,180.14Z" style="fill:#fff;opacity:0.6000000000000001"></path><path d="M203.72,189l-19.06,11a2.47,2.47,0,0,0-1.16,1.91c0,.69.52,1,1.16.59l19.06-11a2.48,2.48,0,0,0,1.16-1.92C204.88,188.86,204.36,188.6,203.72,189Z" style="fill:#7E57C2"></path><path d="M203.72,189l-19.06,11a2.47,2.47,0,0,0-1.16,1.91c0,.69.52,1,1.16.59l19.06-11a2.48,2.48,0,0,0,1.16-1.92C204.88,188.86,204.36,188.6,203.72,189Z" style="fill:#fff;opacity:0.8"></path><path d="M199.34,185.08l-14.68,8.49a2.45,2.45,0,0,0-1.16,1.91c0,.69.52,1,1.16.58l14.68-8.49a2.47,2.47,0,0,0,1.15-1.91C200.49,185,200,184.71,199.34,185.08Z" style="fill:#7E57C2"></path><path d="M199.34,185.08l-14.68,8.49a2.45,2.45,0,0,0-1.16,1.91c0,.69.52,1,1.16.58l14.68-8.49a2.47,2.47,0,0,0,1.15-1.91C200.49,185,200,184.71,199.34,185.08Z" style="fill:#fff;opacity:0.8"></path><path d="M215.42,79.77,181.51,99.35a5,5,0,0,0-2.28,4v39.16c0,1.46,1,2,2.28,1.32l33.91-19.58a5,5,0,0,0,2.28-4V81.09C217.7,79.63,216.68,79.05,215.42,79.77Z" style="fill:#37474f"></path><path d="M212.27,118.59l-3.12,1.81a2.48,2.48,0,0,0-1.15,1.91c0,.69.52,1,1.15.59l3.12-1.81a2.48,2.48,0,0,0,1.16-1.91C213.43,118.49,212.91,118.22,212.27,118.59Z" style="fill:#7E57C2"></path><path d="M212.27,118.59l-3.12,1.81a2.48,2.48,0,0,0-1.15,1.91c0,.69.52,1,1.15.59l3.12-1.81a2.48,2.48,0,0,0,1.16-1.91C213.43,118.49,212.91,118.22,212.27,118.59Z" style="fill:#fff;opacity:0.6000000000000001"></path><path d="M212.27,86.52l-3.12,1.81A2.47,2.47,0,0,0,208,90.24c0,.69.52,1,1.15.58l3.12-1.8a2.48,2.48,0,0,0,1.16-1.92C213.43,86.41,212.91,86.15,212.27,86.52Z" style="fill:#7E57C2"></path><path d="M212.27,86.52l-3.12,1.81A2.47,2.47,0,0,0,208,90.24c0,.69.52,1,1.15.58l3.12-1.8a2.48,2.48,0,0,0,1.16-1.92C213.43,86.41,212.91,86.15,212.27,86.52Z" style="fill:#fff;opacity:0.6000000000000001"></path><path d="M207.89,95.45l-3.13,1.81a2.5,2.5,0,0,0-1.15,1.91c0,.69.52,1,1.15.59L207.89,98A2.48,2.48,0,0,0,209,96C209,95.35,208.52,95.09,207.89,95.45Z" style="fill:#7E57C2"></path><path d="M207.89,95.45l-3.13,1.81a2.5,2.5,0,0,0-1.15,1.91c0,.69.52,1,1.15.59L207.89,98A2.48,2.48,0,0,0,209,96C209,95.35,208.52,95.09,207.89,95.45Z" style="fill:#fff;opacity:0.6000000000000001"></path><path d="M207.89,101.85l-3.13,1.81a2.48,2.48,0,0,0-1.15,1.91c0,.69.52,1,1.15.59l3.13-1.81a2.48,2.48,0,0,0,1.15-1.91C209,101.75,208.52,101.48,207.89,101.85Z" style="fill:#7E57C2"></path><path d="M207.89,101.85l-3.13,1.81a2.48,2.48,0,0,0-1.15,1.91c0,.69.52,1,1.15.59l3.13-1.81a2.48,2.48,0,0,0,1.15-1.91C209,101.75,208.52,101.48,207.89,101.85Z" style="fill:#fff;opacity:0.6000000000000001"></path><path d="M212.27,105.76l-3.12,1.81a2.47,2.47,0,0,0-1.15,1.91c0,.69.52,1,1.15.58l3.12-1.8a2.48,2.48,0,0,0,1.16-1.92C213.43,105.65,212.91,105.39,212.27,105.76Z" style="fill:#7E57C2"></path><path d="M212.27,105.76l-3.12,1.81a2.47,2.47,0,0,0-1.15,1.91c0,.69.52,1,1.15.58l3.12-1.8a2.48,2.48,0,0,0,1.16-1.92C213.43,105.65,212.91,105.39,212.27,105.76Z" style="fill:#fff;opacity:0.6000000000000001"></path><path d="M207.89,114.7l-3.13,1.8a2.5,2.5,0,0,0-1.15,1.92c0,.69.52,1,1.15.58l3.13-1.8a2.5,2.5,0,0,0,1.15-1.92C209,114.59,208.52,114.33,207.89,114.7Z" style="fill:#7E57C2"></path><path d="M207.89,114.7l-3.13,1.8a2.5,2.5,0,0,0-1.15,1.92c0,.69.52,1,1.15.58l3.13-1.8a2.5,2.5,0,0,0,1.15-1.92C209,114.59,208.52,114.33,207.89,114.7Z" style="fill:#fff;opacity:0.6000000000000001"></path><path d="M203.72,91.46l-19.06,11a2.47,2.47,0,0,0-1.16,1.91c0,.69.52,1,1.16.59l19.06-11A2.48,2.48,0,0,0,204.88,92C204.88,91.35,204.36,91.09,203.72,91.46Z" style="fill:#7E57C2"></path><path d="M203.72,91.46l-19.06,11a2.47,2.47,0,0,0-1.16,1.91c0,.69.52,1,1.16.59l19.06-11A2.48,2.48,0,0,0,204.88,92C204.88,91.35,204.36,91.09,203.72,91.46Z" style="fill:#fff;opacity:0.8"></path><path d="M203.72,123.53l-19.06,11a2.48,2.48,0,0,0-1.16,1.92c0,.68.52.95,1.16.58l19.06-11a2.48,2.48,0,0,0,1.16-1.92C204.88,123.42,204.36,123.16,203.72,123.53Z" style="fill:#7E57C2"></path><path d="M203.72,123.53l-19.06,11a2.48,2.48,0,0,0-1.16,1.92c0,.68.52.95,1.16.58l19.06-11a2.48,2.48,0,0,0,1.16-1.92C204.88,123.42,204.36,123.16,203.72,123.53Z" style="fill:#fff;opacity:0.8"></path><path d="M199.34,100.39l-14.68,8.49a2.48,2.48,0,0,0-1.16,1.92c0,.69.52,1,1.16.58l14.68-8.49a2.48,2.48,0,0,0,1.15-1.91C200.49,100.29,200,100,199.34,100.39Z" style="fill:#7E57C2"></path><path d="M199.34,100.39l-14.68,8.49a2.48,2.48,0,0,0-1.16,1.92c0,.69.52,1,1.16.58l14.68-8.49a2.48,2.48,0,0,0,1.15-1.91C200.49,100.29,200,100,199.34,100.39Z" style="fill:#fff;opacity:0.8"></path><path d="M199.34,106.81l-14.68,8.49a2.47,2.47,0,0,0-1.16,1.91c0,.69.52,1,1.16.59l14.68-8.5a2.47,2.47,0,0,0,1.15-1.91C200.49,106.7,200,106.44,199.34,106.81Z" style="fill:#7E57C2"></path><path d="M199.34,106.81l-14.68,8.49a2.47,2.47,0,0,0-1.16,1.91c0,.69.52,1,1.16.59l14.68-8.5a2.47,2.47,0,0,0,1.15-1.91C200.49,106.7,200,106.44,199.34,106.81Z" style="fill:#fff;opacity:0.8"></path><path d="M203.72,110.7l-19.06,11a2.48,2.48,0,0,0-1.16,1.92c0,.69.52,1,1.16.58l19.06-11a2.47,2.47,0,0,0,1.16-1.91C204.88,110.6,204.36,110.34,203.72,110.7Z" style="fill:#7E57C2"></path><path d="M203.72,110.7l-19.06,11a2.48,2.48,0,0,0-1.16,1.92c0,.69.52,1,1.16.58l19.06-11a2.47,2.47,0,0,0,1.16-1.91C204.88,110.6,204.36,110.34,203.72,110.7Z" style="fill:#fff;opacity:0.8"></path><path d="M199.34,119.64l-14.68,8.49A2.45,2.45,0,0,0,183.5,130c0,.69.52,1,1.16.58l14.68-8.48a2.5,2.5,0,0,0,1.15-1.92C200.49,119.53,200,119.27,199.34,119.64Z" style="fill:#7E57C2"></path><path d="M199.34,119.64l-14.68,8.49A2.45,2.45,0,0,0,183.5,130c0,.69.52,1,1.16.58l14.68-8.48a2.5,2.5,0,0,0,1.15-1.92C200.49,119.53,200,119.27,199.34,119.64Z" style="fill:#fff;opacity:0.8"></path></g><path d="M76,164.25l32.09-18.53c.45-.26.81-.07.81.41a1.73,1.73,0,0,1-.81,1.35L76,166c-.44.26-.81.07-.81-.41A1.76,1.76,0,0,1,76,164.25Z" style="fill:#7E57C2"></path><path d="M76,185.52l94.44-54.44c.45-.26.81-.07.81.41a1.73,1.73,0,0,1-.81,1.35L76,187.29c-.45.25-.81.07-.81-.42A1.75,1.75,0,0,1,76,185.52Z" style="fill:#7E57C2"></path><path d="M111.27,143.9l59.66-34.33c.45-.26.82-.07.82.41a1.74,1.74,0,0,1-.82,1.35l-59.66,34.33c-.45.26-.81.08-.81-.41A1.75,1.75,0,0,1,111.27,143.9Z" style="fill:#7E57C2"></path><path d="M76,169.31l16.25-9.39c.45-.26.81-.08.81.41a1.75,1.75,0,0,1-.81,1.35L76,171.07c-.44.25-.81.07-.81-.42A1.74,1.74,0,0,1,76,169.31Z" style="fill:#7E57C2"></path><path d="M76,169.31l16.25-9.39c.45-.26.81-.08.81.41a1.75,1.75,0,0,1-.81,1.35L76,171.07c-.44.25-.81.07-.81-.42A1.74,1.74,0,0,1,76,169.31Z" style="fill:#fff;opacity:0.6000000000000001"></path><path d="M76,174.33l9.76-5.61c.45-.26.81-.08.81.41a1.75,1.75,0,0,1-.81,1.35L76,176.09c-.44.26-.81.08-.81-.41A1.78,1.78,0,0,1,76,174.33Z" style="fill:#7E57C2"></path><path d="M76,174.33l9.76-5.61c.45-.26.81-.08.81.41a1.75,1.75,0,0,1-.81,1.35L76,176.09c-.44.26-.81.08-.81-.41A1.78,1.78,0,0,1,76,174.33Z" style="fill:#fff;opacity:0.6000000000000001"></path><path d="M95.43,158.1,152,125.53c.45-.26.81-.07.81.41a1.73,1.73,0,0,1-.81,1.35L95.43,159.86c-.45.26-.81.07-.81-.41A1.73,1.73,0,0,1,95.43,158.1Z" style="fill:#7E57C2"></path><path d="M95.43,158.1,152,125.53c.45-.26.81-.07.81.41a1.73,1.73,0,0,1-.81,1.35L95.43,159.86c-.45.26-.81.07-.81-.41A1.73,1.73,0,0,1,95.43,158.1Z" style="fill:#fff;opacity:0.6000000000000001"></path><path d="M84.5,198.84l86.43-49.94c.45-.26.82-.08.82.41a1.74,1.74,0,0,1-.82,1.35L84.5,200.6c-.45.26-.82.08-.82-.41A1.76,1.76,0,0,1,84.5,198.84Z" style="fill:#ffa8a7"></path><path d="M84.5,193.82l86.43-50c.45-.26.82-.08.82.41a1.74,1.74,0,0,1-.82,1.35l-86.43,50c-.45.26-.82.07-.82-.41A1.74,1.74,0,0,1,84.5,193.82Z" style="fill:#ffa8a7"></path><path d="M88.4,167.23l16.08-9.33c.45-.26.81-.07.81.41a1.73,1.73,0,0,1-.81,1.35L88.4,169c-.45.26-.81.07-.81-.41A1.73,1.73,0,0,1,88.4,167.23Z" style="fill:#7E57C2"></path><path d="M88.4,167.23l16.08-9.33c.45-.26.81-.07.81.41a1.73,1.73,0,0,1-.81,1.35L88.4,169c-.45.26-.81.07-.81-.41A1.73,1.73,0,0,1,88.4,167.23Z" style="fill:#fff;opacity:0.6000000000000001"></path><path d="M107.63,156.08l62.83-36c.44-.26.81-.07.81.41a1.76,1.76,0,0,1-.81,1.35l-62.83,36c-.45.26-.82.08-.82-.41A1.76,1.76,0,0,1,107.63,156.08Z" style="fill:#7E57C2"></path><path d="M107.63,156.08l62.83-36c.44-.26.81-.07.81.41a1.76,1.76,0,0,1-.81,1.35l-62.83,36c-.45.26-.82.08-.82-.41A1.76,1.76,0,0,1,107.63,156.08Z" style="fill:#fff;opacity:0.6000000000000001"></path><path d="M76,179.64l28.48-16.34c.45-.26.81-.08.81.41a1.73,1.73,0,0,1-.81,1.35L76,181.4c-.45.26-.81.08-.81-.41A1.75,1.75,0,0,1,76,179.64Z" style="fill:#7E57C2"></path><path d="M76,179.64l28.48-16.34c.45-.26.81-.08.81.41a1.73,1.73,0,0,1-.81,1.35L76,181.4c-.45.26-.81.08-.81-.41A1.75,1.75,0,0,1,76,179.64Z" style="fill:#fff;opacity:0.6000000000000001"></path><path d="M107.63,161.48l62.83-36c.44-.26.81-.08.81.41a1.76,1.76,0,0,1-.81,1.35l-62.83,36c-.45.26-.82.08-.82-.41A1.74,1.74,0,0,1,107.63,161.48Z" style="fill:#7E57C2"></path><path d="M107.63,161.48l62.83-36c.44-.26.81-.08.81.41a1.76,1.76,0,0,1-.81,1.35l-62.83,36c-.45.26-.82.08-.82-.41A1.74,1.74,0,0,1,107.63,161.48Z" style="fill:#fff;opacity:0.6000000000000001"></path><path d="M84.5,203.93l86.43-49.82c.45-.26.82-.07.82.41a1.74,1.74,0,0,1-.82,1.35L84.5,205.69c-.45.26-.82.08-.82-.41A1.76,1.76,0,0,1,84.5,203.93Z" style="fill:#f28f8f"></path><path d="M84.5,209l86.43-49.82c.45-.26.82-.08.82.41a1.74,1.74,0,0,1-.82,1.35L84.5,210.73c-.45.26-.82.08-.82-.41A1.74,1.74,0,0,1,84.5,209Z" style="fill:#f28f8f"></path><path d="M84.5,214l86.43-49.82c.45-.26.82-.08.82.41a1.76,1.76,0,0,1-.82,1.35L84.5,215.77c-.45.26-.82.08-.82-.41A1.74,1.74,0,0,1,84.5,214Z" style="fill:#f28f8f"></path><path d="M84.5,220.7l86.43-49.81c.45-.26.82-.08.82.41a1.76,1.76,0,0,1-.82,1.35L84.5,222.46c-.45.26-.82.07-.82-.41A1.74,1.74,0,0,1,84.5,220.7Z" style="fill:#7E57C2"></path><path d="M76.2,225.42,80,223.26c.44-.26.81-.08.81.41A1.76,1.76,0,0,1,80,225l-3.77,2.16c-.44.26-.81.08-.81-.41A1.76,1.76,0,0,1,76.2,225.42Z" style="fill:#7E57C2"></path><path d="M76.2,225.42,80,223.26c.44-.26.81-.08.81.41A1.76,1.76,0,0,1,80,225l-3.77,2.16c-.44.26-.81.08-.81-.41A1.76,1.76,0,0,1,76.2,225.42Z" style="fill:#fff;opacity:0.6000000000000001"></path><path d="M76.2,197.89,80,195.73c.44-.26.81-.07.81.41a1.76,1.76,0,0,1-.81,1.35l-3.77,2.16c-.44.26-.81.08-.81-.41A1.78,1.78,0,0,1,76.2,197.89Z" style="fill:#7E57C2"></path><path d="M76.2,197.89,80,195.73c.44-.26.81-.07.81.41a1.76,1.76,0,0,1-.81,1.35l-3.77,2.16c-.44.26-.81.08-.81-.41A1.78,1.78,0,0,1,76.2,197.89Z" style="fill:#fff;opacity:0.6000000000000001"></path><path d="M76.2,208.73,80,206.57c.44-.26.81-.08.81.41a1.78,1.78,0,0,1-.81,1.35l-3.77,2.16c-.44.26-.81.07-.81-.41A1.76,1.76,0,0,1,76.2,208.73Z" style="fill:#7E57C2"></path><path d="M76.2,208.73,80,206.57c.44-.26.81-.08.81.41a1.78,1.78,0,0,1-.81,1.35l-3.77,2.16c-.44.26-.81.07-.81-.41A1.76,1.76,0,0,1,76.2,208.73Z" style="fill:#fff;opacity:0.6000000000000001"></path><path d="M76.2,213.76,80,211.6c.44-.26.81-.07.81.41a1.76,1.76,0,0,1-.81,1.35l-3.77,2.16c-.44.26-.81.08-.81-.41A1.78,1.78,0,0,1,76.2,213.76Z" style="fill:#7E57C2"></path><path d="M76.2,213.76,80,211.6c.44-.26.81-.07.81.41a1.76,1.76,0,0,1-.81,1.35l-3.77,2.16c-.44.26-.81.08-.81-.41A1.78,1.78,0,0,1,76.2,213.76Z" style="fill:#fff;opacity:0.6000000000000001"></path><path d="M76.2,218.8,80,216.64c.44-.26.81-.07.81.41A1.76,1.76,0,0,1,80,218.4l-3.77,2.16c-.44.26-.81.08-.81-.41A1.78,1.78,0,0,1,76.2,218.8Z" style="fill:#7E57C2"></path><path d="M76.2,218.8,80,216.64c.44-.26.81-.07.81.41A1.76,1.76,0,0,1,80,218.4l-3.77,2.16c-.44.26-.81.08-.81-.41A1.78,1.78,0,0,1,76.2,218.8Z" style="fill:#fff;opacity:0.6000000000000001"></path><path d="M76.2,230,80,227.81c.44-.26.81-.07.81.41a1.74,1.74,0,0,1-.81,1.35l-3.77,2.16c-.44.26-.81.08-.81-.41A1.78,1.78,0,0,1,76.2,230Z" style="fill:#7E57C2"></path><path d="M76.2,230,80,227.81c.44-.26.81-.07.81.41a1.74,1.74,0,0,1-.81,1.35l-3.77,2.16c-.44.26-.81.08-.81-.41A1.78,1.78,0,0,1,76.2,230Z" style="fill:#fff;opacity:0.6000000000000001"></path><path d="M84.5,225.28l86.43-50c.45-.26.82-.07.82.41a1.74,1.74,0,0,1-.82,1.35L84.5,227c-.45.26-.82.08-.82-.41A1.76,1.76,0,0,1,84.5,225.28Z" style="fill:#ffa8a7"></path><path d="M84.9,258l23.22-13.4c.45-.26.81-.07.81.41a1.72,1.72,0,0,1-.81,1.35L84.9,259.74c-.45.26-.81.08-.81-.41A1.73,1.73,0,0,1,84.9,258Z" style="fill:#7E57C2"></path><path d="M76.2,263,80,260.79c.44-.26.81-.07.81.41a1.76,1.76,0,0,1-.81,1.35l-3.77,2.16c-.44.26-.81.08-.81-.41A1.78,1.78,0,0,1,76.2,263Z" style="fill:#7E57C2"></path><path d="M76.2,263,80,260.79c.44-.26.81-.07.81.41a1.76,1.76,0,0,1-.81,1.35l-3.77,2.16c-.44.26-.81.08-.81-.41A1.78,1.78,0,0,1,76.2,263Z" style="fill:#fff;opacity:0.6000000000000001"></path><path d="M76.2,267.51,80,265.35c.44-.26.81-.08.81.41a1.76,1.76,0,0,1-.81,1.35l-3.77,2.16c-.44.26-.81.07-.81-.41A1.76,1.76,0,0,1,76.2,267.51Z" style="fill:#7E57C2"></path><path d="M76.2,267.51,80,265.35c.44-.26.81-.08.81.41a1.76,1.76,0,0,1-.81,1.35l-3.77,2.16c-.44.26-.81.07-.81-.41A1.76,1.76,0,0,1,76.2,267.51Z" style="fill:#fff;opacity:0.6000000000000001"></path><path d="M84.87,262.34l85.71-49.46c.45-.26.82-.08.82.41a1.74,1.74,0,0,1-.82,1.35L84.87,264.1c-.45.26-.81.07-.81-.41A1.73,1.73,0,0,1,84.87,262.34Z" style="fill:#ffa8a7"></path><path d="M84.64,236l86.29-49.69c.45-.26.82-.07.82.41a1.74,1.74,0,0,1-.82,1.35L84.64,237.76c-.45.26-.81.08-.81-.41A1.73,1.73,0,0,1,84.64,236Z" style="fill:#7E57C2"></path><path d="M76.2,240.81,80,238.65c.44-.26.81-.08.81.41a1.78,1.78,0,0,1-.81,1.35l-3.77,2.16c-.44.26-.81.07-.81-.41A1.76,1.76,0,0,1,76.2,240.81Z" style="fill:#7E57C2"></path><path d="M76.2,240.81,80,238.65c.44-.26.81-.08.81.41a1.78,1.78,0,0,1-.81,1.35l-3.77,2.16c-.44.26-.81.07-.81-.41A1.76,1.76,0,0,1,76.2,240.81Z" style="fill:#fff;opacity:0.6000000000000001"></path><path d="M84.64,241l86.29-49.69c.45-.26.82-.08.82.41a1.76,1.76,0,0,1-.82,1.35L84.64,242.74c-.45.26-.81.07-.81-.41A1.73,1.73,0,0,1,84.64,241Z" style="fill:#7E57C2"></path><path d="M76.2,245.84,80,243.68c.44-.25.81-.07.81.42a1.74,1.74,0,0,1-.81,1.34l-3.77,2.17c-.44.25-.81.07-.81-.42A1.78,1.78,0,0,1,76.2,245.84Z" style="fill:#7E57C2"></path><path d="M76.2,245.84,80,243.68c.44-.25.81-.07.81.42a1.74,1.74,0,0,1-.81,1.34l-3.77,2.17c-.44.25-.81.07-.81-.42A1.78,1.78,0,0,1,76.2,245.84Z" style="fill:#fff;opacity:0.6000000000000001"></path><path d="M84.64,246l86.29-49.69c.45-.26.82-.08.82.41a1.76,1.76,0,0,1-.82,1.35L84.64,247.8c-.45.26-.81.07-.81-.41A1.72,1.72,0,0,1,84.64,246Z" style="fill:#f28f8f"></path><path d="M76.2,250.88,80,248.72c.44-.26.81-.07.81.41a1.76,1.76,0,0,1-.81,1.35l-3.77,2.16c-.44.26-.81.08-.81-.41A1.78,1.78,0,0,1,76.2,250.88Z" style="fill:#7E57C2"></path><path d="M76.2,250.88,80,248.72c.44-.26.81-.07.81.41a1.76,1.76,0,0,1-.81,1.35l-3.77,2.16c-.44.26-.81.08-.81-.41A1.78,1.78,0,0,1,76.2,250.88Z" style="fill:#fff;opacity:0.6000000000000001"></path></g></g><g id="freepik--code-box--inject-2"><g id="freepik--code-box--inject-2"><path d="M338.72,447.14l-34.9,20.17a5,5,0,0,1-4.54,0l-98-56.48A5,5,0,0,1,199,406.9v-1.63a5,5,0,0,1,2.28-3.93l35-20.12a5,5,0,0,1,4.54,0l97.95,56.43a5,5,0,0,1,2.26,3.93v1.63A5.05,5.05,0,0,1,338.72,447.14Z" style="fill:#f0f0f0"></path><path d="M240.65,381.14c-1.72-1-3.52-.42-5.25.58l-33.25,19.12c-1.72,1-1.73,2.62,0,3.63L298.46,460h0a6.26,6.26,0,0,0,6.24,0L338,440.83a2.09,2.09,0,0,0,0-3.63h0Z" style="fill:#fafafa"></path><path d="M338,439.63a1.16,1.16,0,0,1-.44.44l-33.28,19.12a5.37,5.37,0,0,1-5.37,0l-96.3-55.48c-.35-.21-1.14-.76-.75-1.43a2,2,0,0,1,.75-.68l33.24-19.12c1.86-1.08,3.22-1.26,4.39-.59L337.54,438a1.22,1.22,0,0,1,.44,1.67m.76.44a2.1,2.1,0,0,0-.77-2.87l-97.32-56.06c-1.72-1-3.52-.42-5.25.58l-33.25,19.12a3,3,0,0,0-1.07,1c-.51.89-.16,1.92,1.08,2.63L298.46,460a6.26,6.26,0,0,0,6.24,0L338,440.83a2.16,2.16,0,0,0,.77-.76Z" style="fill:#e0e0e0"></path><path d="M338.75,437.65l-.77-.45a2.1,2.1,0,0,1,0,3.63L304.7,460a6.11,6.11,0,0,1-3.12.83h-.08v7.08a4.63,4.63,0,0,0,2.32-.55l34.9-20.16a5.06,5.06,0,0,0,2.28-3.93v-1.63A5,5,0,0,0,338.75,437.65Z" style="fill:#e6e6e6"></path><path d="M254.8,405.59l4.38-2.53,4.59,13.26-22.94-2.66,4.35-2.51,11.9,1.31Z" style="fill:#e0e0e0"></path><path d="M234.57,405.08l-4.38,2.53-4.58-13.26L248.54,397l-4.34,2.51-11.94-1.33Z" style="fill:#e0e0e0"></path><path d="M321.68,440l-41-23.71a3.64,3.64,0,0,0-3.29-.05c-.89.51-.85,1.36.09,1.9l41.05,23.7a3.65,3.65,0,0,0,3.28.06C322.66,441.41,322.61,440.56,321.68,440Z" style="fill:#e0e0e0"></path><path d="M313.73,444.6l-41-23.71a3.64,3.64,0,0,0-3.29-.05c-.88.51-.84,1.36.09,1.9l41.06,23.69a3.6,3.6,0,0,0,3.27.06C314.71,446,314.66,445.14,313.73,444.6Z" style="fill:#e0e0e0"></path><path d="M305.78,449.18l-41-23.71a3.61,3.61,0,0,0-3.29-.05c-.89.51-.85,1.36.09,1.9L302.61,451a3.62,3.62,0,0,0,3.28.06C306.77,450.56,306.72,449.72,305.78,449.18Z" style="fill:#e0e0e0"></path></g></g><g id="freepik--Symbols--inject-2"><g id="freepik--Box--inject-2"><g id="freepik--Button--inject-2"><path d="M256.84,87.91l27.68-16c1.09-.63,2-.12,2,1.13v32.17a4.37,4.37,0,0,1-2,3.42l-27.68,16c-1.09.63-2,.12-2-1.14V91.32A4.36,4.36,0,0,1,256.84,87.91Z" style="fill:#7E57C2"></path><path d="M256.84,87.91l27.68-16c1.09-.63,2-.12,2,1.13v32.17a4.37,4.37,0,0,1-2,3.42l-27.68,16c-1.09.63-2,.12-2-1.14V91.32A4.36,4.36,0,0,1,256.84,87.91Z" style="fill:#fff;opacity:0.30000000000000004"></path><path d="M255.45,89.38l-5-2.91a4,4,0,0,0-.58,2v32.17a1.42,1.42,0,0,0,.56,1.27c.37.21,4.67,2.67,5,2.89a1.41,1.41,0,0,1-.54-1.25V91.32A4,4,0,0,1,255.45,89.38Z" style="fill:#7E57C2"></path><path d="M285.84,71.72c-.7-.42-4.61-2.67-4.93-2.86a1.39,1.39,0,0,0-1.41.13L251.82,85a4,4,0,0,0-1.4,1.47l5,2.91a3.87,3.87,0,0,1,1.39-1.47l27.69-16A1.44,1.44,0,0,1,285.84,71.72Z" style="fill:#7E57C2"></path><path d="M285.84,71.72c-.7-.42-4.61-2.67-4.93-2.86a1.39,1.39,0,0,0-1.41.13L251.82,85a4,4,0,0,0-1.4,1.47l5,2.91a3.87,3.87,0,0,1,1.39-1.47l27.69-16A1.44,1.44,0,0,1,285.84,71.72Z" style="fill:#fff;opacity:0.45"></path></g><path d="M260.79,104.18l3.82,1.75a1.45,1.45,0,0,1,.36.26.78.78,0,0,1,.18.57V109a1,1,0,0,1-.1.45.69.69,0,0,1-.25.3l-.08,0a.2.2,0,0,1-.11,0L258.7,107a.81.81,0,0,1-.36-.24.87.87,0,0,1-.13-.56v-1.1a1.73,1.73,0,0,1,.13-.71,4.51,4.51,0,0,1,.36-.66l5.91-9.55.11-.13.08,0a.18.18,0,0,1,.25,0,.42.42,0,0,1,.1.33v2.21a1.85,1.85,0,0,1-.18.78c-.13.26-.25.49-.36.67Z" style="fill:#fafafa"></path><path d="M272.26,87a4,4,0,0,1,.25-.68,1.32,1.32,0,0,1,.49-.53l1.25-.72a.2.2,0,0,1,.26,0,.42.42,0,0,1,.11.34,1.29,1.29,0,0,1,0,.25L268.88,110a3.07,3.07,0,0,1-.23.66,1.29,1.29,0,0,1-.51.55l-1.2.69a.19.19,0,0,1-.26,0,.45.45,0,0,1-.11-.33,1.38,1.38,0,0,1,0-.26Z" style="fill:#fafafa"></path><path d="M276.57,91.12a1.54,1.54,0,0,1-.36-.26.78.78,0,0,1-.18-.57V88.08a1,1,0,0,1,.1-.45.63.63,0,0,1,.25-.3.11.11,0,0,1,.08,0h.11L282.48,90a1,1,0,0,1,.36.25.91.91,0,0,1,.13.56v1.09a1.84,1.84,0,0,1-.13.71,5.05,5.05,0,0,1-.36.67l-5.91,9.54a1,1,0,0,1-.11.13l-.08.06c-.1.06-.19.06-.25,0a.42.42,0,0,1-.1-.33v-2.21a1.85,1.85,0,0,1,.18-.78,6.87,6.87,0,0,1,.36-.68l3.81-6.15Z" style="fill:#fafafa"></path></g><g id="freepik--box--inject-2"><g id="freepik--button--inject-2"><path d="M298.52,63.88l27.69-16c1.08-.63,2-.12,2,1.14V81.18a4.33,4.33,0,0,1-2,3.41l-27.69,16c-1.09.63-2,.12-2-1.14V67.29A4.33,4.33,0,0,1,298.52,63.88Z" style="fill:#7E57C2"></path><path d="M298.52,63.88l27.69-16c1.08-.63,2-.12,2,1.14V81.18a4.33,4.33,0,0,1-2,3.41l-27.69,16c-1.09.63-2,.12-2-1.14V67.29A4.33,4.33,0,0,1,298.52,63.88Z" style="fill:#fff;opacity:0.30000000000000004"></path><path d="M297.13,65.35l-5-2.91a4,4,0,0,0-.58,1.94V96.56a1.38,1.38,0,0,0,.57,1.26c.36.22,4.66,2.68,5,2.9a1.43,1.43,0,0,1-.54-1.26V67.29A4,4,0,0,1,297.13,65.35Z" style="fill:#7E57C2"></path><path d="M327.52,47.69c-.7-.43-4.61-2.67-4.93-2.86a1.39,1.39,0,0,0-1.41.13L293.5,61a4,4,0,0,0-1.4,1.47l5,2.91a4.06,4.06,0,0,1,1.39-1.48l27.69-16A1.43,1.43,0,0,1,327.52,47.69Z" style="fill:#7E57C2"></path><path d="M327.52,47.69c-.7-.43-4.61-2.67-4.93-2.86a1.39,1.39,0,0,0-1.41.13L293.5,61a4,4,0,0,0-1.4,1.47l5,2.91a4.06,4.06,0,0,1,1.39-1.48l27.69-16A1.43,1.43,0,0,1,327.52,47.69Z" style="fill:#fff;opacity:0.45"></path></g><path d="M307.93,88.3a1.31,1.31,0,0,1-.13.57.86.86,0,0,1-.32.39,3,3,0,0,1-1.6.47,1.7,1.7,0,0,1-1.23-.64,4.17,4.17,0,0,1-.8-1.77,13,13,0,0,1-.28-2.9,6.28,6.28,0,0,0-.23-2c-.16-.46-.4-.7-.73-.72l-.29,0c-.32,0-.49-.26-.49-.68V79.7a2,2,0,0,1,.49-1.24l.29-.35a3.88,3.88,0,0,0,.73-1.57,9.21,9.21,0,0,0,.23-2.21,18.27,18.27,0,0,1,.28-3.24,12.59,12.59,0,0,1,.8-2.7,8.45,8.45,0,0,1,1.23-2.06,5.91,5.91,0,0,1,1.6-1.38.25.25,0,0,1,.32,0,.57.57,0,0,1,.13.42v1.72a1.31,1.31,0,0,1-.13.57.86.86,0,0,1-.32.39,3.14,3.14,0,0,0-1.27,2,14.25,14.25,0,0,0-.44,3.9,12.4,12.4,0,0,1-.11,1.69,7.94,7.94,0,0,1-.3,1.35A7.12,7.12,0,0,1,305,78c-.15.3-.3.57-.45.82a2,2,0,0,1,.45.3,1.69,1.69,0,0,1,.41.58,3.48,3.48,0,0,1,.3,1,9.65,9.65,0,0,1,.11,1.56,9,9,0,0,0,.44,3.37c.29.64.71.8,1.27.48a.25.25,0,0,1,.32,0,.57.57,0,0,1,.13.42Z" style="fill:#fafafa"></path><path d="M316.61,81.57a1.47,1.47,0,0,1,.13-.57.91.91,0,0,1,.33-.4,3.15,3.15,0,0,0,1.26-1.94,14,14,0,0,0,.44-3.88,12.4,12.4,0,0,1,.11-1.69,7.94,7.94,0,0,1,.3-1.35,7,7,0,0,1,.86-1.87,1.81,1.81,0,0,1-.46-.3,1.89,1.89,0,0,1-.4-.59,3.48,3.48,0,0,1-.3-1,9.47,9.47,0,0,1-.11-1.56,9.08,9.08,0,0,0-.44-3.38c-.29-.65-.71-.81-1.26-.5a.24.24,0,0,1-.33,0,.57.57,0,0,1-.13-.41V60.38a1.47,1.47,0,0,1,.13-.57,1,1,0,0,1,.33-.4,2.91,2.91,0,0,1,1.59-.46,1.67,1.67,0,0,1,1.23.64,4.16,4.16,0,0,1,.8,1.78,13.24,13.24,0,0,1,.28,2.92,6.53,6.53,0,0,0,.23,1.94c.16.46.4.7.73.72l.29,0c.32,0,.49.26.49.68V69a2.06,2.06,0,0,1-.49,1.25l-.29.34a3.88,3.88,0,0,0-.73,1.57,9.74,9.74,0,0,0-.23,2.21,18.07,18.07,0,0,1-.28,3.23,12.41,12.41,0,0,1-.8,2.68,8.34,8.34,0,0,1-1.23,2.07,6,6,0,0,1-1.59,1.37.26.26,0,0,1-.33,0,.62.62,0,0,1-.13-.42Z" style="fill:#fafafa"></path></g><g id="freepik--box--inject-2"><g id="freepik--button--inject-2"><path d="M340.2,39.8l27.69-16c1.09-.63,2-.12,2,1.14V57.11a4.36,4.36,0,0,1-2,3.41l-27.69,16c-1.09.63-2,.12-2-1.14V43.22A4.36,4.36,0,0,1,340.2,39.8Z" style="fill:#7E57C2"></path><path d="M340.2,39.8l27.69-16c1.09-.63,2-.12,2,1.14V57.11a4.36,4.36,0,0,1-2,3.41l-27.69,16c-1.09.63-2,.12-2-1.14V43.22A4.36,4.36,0,0,1,340.2,39.8Z" style="fill:#fff;opacity:0.30000000000000004"></path><path d="M338.81,41.28l-5-2.92a4.14,4.14,0,0,0-.58,2V72.48a1.4,1.4,0,0,0,.57,1.27c.36.22,4.66,2.68,5,2.9a1.43,1.43,0,0,1-.54-1.26V43.22A4,4,0,0,1,338.81,41.28Z" style="fill:#7E57C2"></path><path d="M369.2,23.62c-.7-.43-4.61-2.67-4.93-2.86a1.41,1.41,0,0,0-1.41.12l-27.68,16a4,4,0,0,0-1.4,1.46l5,2.92a4.14,4.14,0,0,1,1.39-1.48l27.69-16A1.44,1.44,0,0,1,369.2,23.62Z" style="fill:#7E57C2"></path><path d="M369.2,23.62c-.7-.43-4.61-2.67-4.93-2.86a1.41,1.41,0,0,0-1.41.12l-27.68,16a4,4,0,0,0-1.4,1.46l5,2.92a4.14,4.14,0,0,1,1.39-1.48l27.69-16A1.44,1.44,0,0,1,369.2,23.62Z" style="fill:#fff;opacity:0.45"></path></g><path id="freepik--Gear--inject-2" d="M363.47,46.87l-2-.1c-.14,0-.25-.2-.24-.44a13,13,0,0,0-.08-1.68,1.16,1.16,0,0,1,.12-.69l2-2.83a.7.7,0,0,0,0-.62l-1-2.14c-.09-.2-.25-.26-.37-.14l-2.22,2.34a.32.32,0,0,1-.44,0,3.57,3.57,0,0,0-1-.58.48.48,0,0,1-.2-.5l.5-3.18c0-.22-.06-.39-.2-.37l-2.35.27a.56.56,0,0,0-.36.4l-1,3.32a.89.89,0,0,1-.35.49,8.56,8.56,0,0,0-1.49,1c-.13.1-.31,0-.43-.13l-1.09-1.67c-.11-.17-.29-.2-.4-.07l-2.32,2.85a.77.77,0,0,0-.07.64l.69,2.17a1,1,0,0,1,0,.69,19.73,19.73,0,0,0-1,2.07.75.75,0,0,1-.39.41L345.6,49a.65.65,0,0,0-.34.46l-.81,3.6c-.05.22,0,.4.17.4l2,.11c.14,0,.25.2.24.44a13,13,0,0,0,.08,1.68,1.18,1.18,0,0,1-.12.69l-2,2.83a.7.7,0,0,0,0,.62l1,2.14c.09.2.25.26.37.14l2.22-2.34a.32.32,0,0,1,.44,0,3.57,3.57,0,0,0,1,.58.48.48,0,0,1,.2.5l-.5,3.18c0,.22.06.39.2.37l2.35-.27a.56.56,0,0,0,.36-.4l1-3.32a.89.89,0,0,1,.35-.49,8.56,8.56,0,0,0,1.49-1c.13-.1.31,0,.43.13l1.09,1.67c.11.17.29.2.39.07l2.33-2.85a.77.77,0,0,0,.07-.64l-.69-2.17a1,1,0,0,1,0-.7,18.66,18.66,0,0,0,1-2.06.75.75,0,0,1,.39-.41l2.22-.61a.65.65,0,0,0,.34-.46l.81-3.6C363.69,47.06,363.61,46.88,363.47,46.87Zm-5.54,2.83c-.74,3.29-3.08,6.16-5.22,6.42s-3.29-2.21-2.55-5.5,3.08-6.15,5.22-6.41S358.67,46.42,357.93,49.7Z" style="fill:#fafafa"></path></g></g><g id="freepik--character-1--inject-2"><g id="freepik--character--inject-2"><g id="freepik--bottom--inject-2"><path d="M82.29,426.61c.56-2.35-1.78-3.84-2.89-5.2-1.7-2.09-2.23-7-2.22-9.46,0-3.1-.34-5.32,1.59-8.13,2.29-3.32,5.47-7.21,16.13-16.74L81.77,373.89C79,378.2,72.09,393.3,72.09,393.3l-.45.93a17.48,17.48,0,0,1-4.14,4l-.73.37c-1.25.86-4.44,1.77-4.38,4.74S63.6,407,65,409.45a8.77,8.77,0,0,1,1.54,5.31c.06,2.4,0,5.07-.07,7.21,0,1.8,1.64,4.43,5.12,5.6C76.59,429.28,81.75,428.93,82.29,426.61Z" style="fill:#ffbda7"></path><path d="M60.59,403.39a33.82,33.82,0,0,0-3.8,6.52l3.49,4.89,2.93-4.93A17.7,17.7,0,0,1,60.59,403.39Z" style="fill:#263238"></path><path d="M60.28,414.8l4.79-.33a4.09,4.09,0,0,0-.47-3,6.2,6.2,0,0,0-1.39-1.64Z"></path><path d="M61.55,402.28a3.65,3.65,0,0,0-.93,1,8.83,8.83,0,0,0,1,5c1,1.48,2.62,3.06,3,5.17s-.44,7,.4,9.94,3.69,6.32,9.9,7.12c4.44.57,6.12-.27,7.6-1.2.54-1.91.48-2.41-1.94-4S61.55,402.28,61.55,402.28Z" style="fill:#263238"></path><path d="M69.82,394.49c-2,2.36-2.71,3.27-4.54,4.34a8.21,8.21,0,0,0-3.73,3.45c-.45,2.56.07,3.62,2.42,6.89A9.56,9.56,0,0,1,66.06,416c-.06,3.72-1.32,7.12,3.21,10.93,3.54,3,11.27,3.16,13.37,1.1,1.79-5.08-3-4.81-4.07-10.2a24.15,24.15,0,0,1,.28-10.46,23.65,23.65,0,0,1,1.57-3.91c.74-1.26,1.4-2.18.8-2.85L80.09,402a8.38,8.38,0,0,1-5.64-1.78c-4.32-3.48-2.81-5.95-2.81-5.95l.45-.93C71.65,392.77,71,393.14,69.82,394.49Z" style="fill:#37474f"></path><path d="M117.87,275.85c1.09,7.34,4.63,16.55,6.6,33.92,1.84,16.3,2.66,24.8,1.49,32.9-.42,2.89-1.9,6.27-4.74,10.54-8.89,13.39-26.4,34.46-26.4,34.46s-4-.07-8.77-3.9a13.34,13.34,0,0,1-4.85-9.17s.46-3.06,7.8-15.39a65.19,65.19,0,0,0,8.28-25.68L92.5,281.19C103.89,282.21,112.56,280.12,117.87,275.85Z" style="fill:#455a64"></path><path d="M86.05,383.77a13.34,13.34,0,0,1-4.85-9.17s.46-3.06,7.8-15.39a65.19,65.19,0,0,0,8.28-25.68l-3.66-40.07c8.91-1.37,21.35-1.26,21.35-1.26.24,5.73-1,12.83-9.29,17.1,0,0,1.52,28.18,1.72,36.43.14,6.29-1.69,22.3-2.57,29.55-5.55,7-10,12.39-10,12.39S90.85,387.6,86.05,383.77Z" style="fill:#37474f"></path><path d="M101.15,413.92l0-1.27,1.25-25.73-18.11,4.52,4,20.63.14,1.07s.19,5.24,8.28,5.54C100.92,418.84,101.15,413.92,101.15,413.92Z" style="fill:#ffbda7"></path><polygon points="91.36 437.38 97.65 435.05 97.85 429.08 91.46 431.49 91.36 437.38"></polygon><path d="M85.25,424c-.26,2.2,1.55,10.62,1.55,10.62l4.56,2.77.1-5.89a12,12,0,0,1,2.61,4.2c1.26,2.94,3,5.77,6,7.26s8.14,2.09,12.53,1.52c3.12-.41,5-1.74,5.56-2.53a2.71,2.71,0,0,0,.18-1.24Z" style="fill:#263238"></path><path d="M101.2,412.65c.86-.07.8.76,1.86,5.69.79,3.69,2.52,10.05,9.24,14.25,2.76,1.73,6.59,2.82,6,8.11-1.92,2.56-8.61,3.24-12.61,2.53-8.09-1.42-9.3-4.62-11.32-9.37-1.62-3.82-3-4.22-5.2-5.75-1.43-1-3.38-2.47-4-4.12-.1-3.62,1.27-6,1.76-7.82s.2-3.83,1.35-4.1l.14,1.07s1.08,2.91,6.71,3,5.94-2.24,5.94-2.24Z" style="fill:#37474f"></path><path d="M117.87,275.85s1.45,9.48-1.64,18.12c-2.68,7.51-7.83,11.73-13.25,13.49,0,0,1.8,33.71,2.28,38.4s-.64,21.69-1.66,32.88-1.33,15-1.33,15-2.39,2.53-9.08,2.65-8.82-2.63-8.82-2.63S80.14,380.85,80,370.7c-.1-5.82,1.18-8.71.07-14.48s-9.29-31.44-10.67-43.62.69-22.87,9.35-35.33C88,283.35,109.39,281.82,117.87,275.85Z" style="fill:#455a64"></path><path d="M82.53,279.15c-4.69,6.48-11.45,19.83-6.66,39q2.05,8.16,4,15.77c3.08,11.89,5.52,21.27,5.84,24.86a28.41,28.41,0,0,1-.29,6,50.77,50.77,0,0,0,0,14.23c.84,6.12,2.06,12.55,2.94,16.91l-.8-.23c-.88-4.36-2-10.62-2.87-16.59a50.73,50.73,0,0,1,0-14.39A28,28,0,0,0,85,358.8c-.32-3.52-2.75-12.89-5.83-24.75-1.31-5.08-2.68-10.33-4-15.77-4.84-19.26,1.91-32.77,6.67-39.4C82.06,279,82.29,279.07,82.53,279.15Z" style="fill:#37474f"></path></g><g id="freepik--top--inject-2"><path d="M167,227.74S198,196,198.46,196.52s-29.66,33-29.66,33Z" style="fill:#37474f"></path><path d="M131.8,251.5a34.54,34.54,0,0,0-5.43,9.94c-1.57,5,.46,10.46,4.09,9.94s8.52-3.62,12.13-8c2.77-3.35,10.54-13.67,13.93-17.93a5.14,5.14,0,0,1,3.76-2A7.62,7.62,0,0,0,163.9,242c2.66-1.71,8.24-12.45,8.24-12.45s-2.58-.27-5.54-.46c1.34-1.62,1.27-3.28.73-3.51-.73-.3-2.83.91-4.36,1.3-2.56.65-5.56.32-6.18.67-1.8,1-3.75,5.12-6.26,7.74C143.14,243,131.8,251.5,131.8,251.5Z" style="fill:#ffbda7"></path><path d="M99.67,231.44a21.63,21.63,0,0,1,16.09,6.77c4.91,4.89,14.21,14.57,14.21,14.57l9.71-8c2.65,5.59,6,9,10,10.69,0,0-6.61,8.8-12.28,13.6-4.73,4-6.75,5.17-12.86.67-5.42-4-21.61-18.53-21.61-18.53Z" style="fill:#ebebeb"></path><path d="M130,252.78a25.31,25.31,0,0,0-5.07,6.6,16.11,16.11,0,0,1,3.8-7.92Z" style="opacity:0.1"></path><path d="M158,243.07a10.89,10.89,0,0,1-.92-.86,1.93,1.93,0,0,1,.63-3.09,4.1,4.1,0,0,0,2.17-2.21c1.23-2.86.41-3.95,2.76-4.91a13.18,13.18,0,0,0,3.43-2.14,2,2,0,0,1,1.45-.47l1.71.16a1.93,1.93,0,0,1,1.62,2.67c-.86,2.1-2.1,5-2.86,6.33-1.24,2.19-3.55,5.72-9,5A2,2,0,0,1,158,243.07Z" style="fill:#f0997a"></path><path d="M167.49,227.27s3.34-.23,5.08.56c.75.35,1.19.88.71,2.41a2.94,2.94,0,0,1-1.87,1.67,2.42,2.42,0,0,1,.71,2.14,3,3,0,0,1-2.44,2.28,1.85,1.85,0,0,1,0,1.88,3.26,3.26,0,0,1-2.44,1.4,2.79,2.79,0,0,1-.61,2c-.73.76-3.3,1.44-5.42,1.47a1.64,1.64,0,0,1-1.53-2.67,4.41,4.41,0,0,1,2.05-1.23,2.11,2.11,0,0,1-.39-1.89c.33-1,2.7-1.44,2.7-1.44s-1.41-1-1-2.2,3.22-1.67,3.22-1.67-1,0-1.29-1.31C166.37,229.5,167.4,228.28,167.49,227.27Z" style="fill:#ffbda7"></path><path d="M69.26,194.94a6.53,6.53,0,0,0-3.21,4.18c-.53,2.5.71,5.2-.15,7.6s-3.25,3.56-4.51,5.62a6.3,6.3,0,0,0,0,6.35c1.27,2.15,2.52,3.8,1.42,6.45-.29.69-.71,1.32-1,2a5.51,5.51,0,0,0,0,3.52,6.69,6.69,0,0,0,6.17,4.58c1.38,0,2.64-.28,4,.22a12.13,12.13,0,0,0,3.44,1.1A10.77,10.77,0,0,0,82.91,234a5.6,5.6,0,0,0,2.19-3.29,14.88,14.88,0,0,0-.24-3.25c-.2-3.42,2.27-6.38,3.2-9.69a10.25,10.25,0,0,0-2.77-10.2c-.89-.8-1.92-1.41-2.8-2.22a4.93,4.93,0,0,1-1.72-3.23c0-.95.31-1.88.35-2.84a5.18,5.18,0,0,0-2-4.15C76.44,193,72.13,193.3,69.26,194.94Z" style="fill:#263238"></path><path d="M73.47,198.76a6.18,6.18,0,0,0-1.35,4.38,1,1,0,0,0,.18.53,1.09,1.09,0,0,0,1,.25,5.43,5.43,0,0,0,3.45-1.78c.88-1,2.14-3.63,1-4.86C76.46,195.9,74.25,197.72,73.47,198.76Z" style="fill:#7E57C2"></path><path d="M69.83,261.1s3.57-1.73,4.54-9.49c.44-3.52-.78-8.12-2.28-13.42l10.14-4.41s3.35-.93,10.75-2.28l6.69-.06s12.53,5.31,17.55,11.89c2.74,3.6,5.58,11.26.76,17.09.37,5.21.44,15.85.44,15.85S115.59,281.41,102,283c-19.55,2.23-25-4.89-25-4.89C76.58,272.47,71.89,266.47,69.83,261.1Z" style="fill:#7E57C2"></path><path d="M69.83,261.1s3.57-1.73,4.54-9.49c.44-3.52-.78-8.12-2.28-13.42l10.14-4.41s3.35-.93,10.75-2.28l6.69-.06s12.53,5.31,17.55,11.89c2.74,3.6,5.58,11.26.76,17.09.37,5.21.44,15.85.44,15.85S115.59,281.41,102,283c-19.55,2.23-25-4.89-25-4.89C76.58,272.47,71.89,266.47,69.83,261.1Z" style="fill:#fff;opacity:0.6000000000000001"></path><path d="M105.47,263.42s-2.82,4.78-10.38,4.6-9.82-5.55-9.82-5.55.58,7.24,9.62,7.42S105.47,263.42,105.47,263.42Z" style="fill:#7E57C2;opacity:0.2"></path><g id="freepik--head--inject-2"><path d="M76.82,195.36a9.47,9.47,0,0,1,1.87-2.4,9.86,9.86,0,0,1,4.79-2.34,14.47,14.47,0,0,1,3-.14,11.31,11.31,0,0,0,3.41-.81,14.38,14.38,0,0,1,6.52-.76,8.15,8.15,0,0,1,5.57,3.24c.83,1.2,1.18,3,2.25,4a29.82,29.82,0,0,1,3.22,2.86c2.26,2.77,1.65,6.34-.12,9.16a11.7,11.7,0,0,1-6.17,4.93,8,8,0,0,1-12.38,7.73A30.84,30.84,0,0,1,82,227.06c.27-.19-1.23-2.89-1.47-3.16-.76-.83-1.54-1.65-2.27-2.53a44.93,44.93,0,0,1-4.71-6.28c-1.85-3.19-2.82-7.18-1.42-10.59a5.62,5.62,0,0,1,3.53-3.43A9.78,9.78,0,0,1,76.82,195.36Z" style="fill:#263238"></path><path d="M75.86,212.37c1.92-.8,3.58-.13,4.68,1.86,1,1.74,2.84,1.05,2.3-1.68,4.22-4.29-.93-6.76,2.52-10.89,2.16-2.57,7-2.06,8.92-.56a4.68,4.68,0,0,1,5.34-2.35c2,.64,3.35,1.79,4.41,4.54s.08,3.45.64,5.48a15.45,15.45,0,0,1,1.16,4.35c.48,9.59-1.43,12.08-3.5,13.73-1.41,1.13-3.25,1.76-6.41,1.9l.29,4.18A21.49,21.49,0,0,1,101,244.11a48.27,48.27,0,0,1-19.22-9.44l-.91-13.91h0c-.41,1.11-2.6,2.38-4.91.62C73,219.16,72.49,213.79,75.86,212.37Z" style="fill:#ffbda7"></path><path d="M103,207.64l-3.12-1.15a1.6,1.6,0,0,1,2.08-1A1.76,1.76,0,0,1,103,207.64Z" style="fill:#263238"></path><path d="M90.84,206.86,88,208.56a1.6,1.6,0,0,1,.53-2.26A1.74,1.74,0,0,1,90.84,206.86Z" style="fill:#263238"></path><path d="M92.54,218.29l4.64,1.44a2.43,2.43,0,0,1-3.26,1.52A2.27,2.27,0,0,1,92.54,218.29Z" style="fill:#b16668"></path><path d="M95.25,221.38a2.54,2.54,0,0,0-2.59-2.24l-.23,0a2.15,2.15,0,0,0,1.49,2.09A2.8,2.8,0,0,0,95.25,221.38Z" style="fill:#f28f8f"></path><polygon points="95.37 208.45 96.38 217.02 101.08 215.25 95.37 208.45" style="fill:#f0997a"></polygon><path d="M91.86,210.93a1.39,1.39,0,1,1-1.48-1.29A1.39,1.39,0,0,1,91.86,210.93Z" style="fill:#263238"></path><path d="M102.67,210.33a1.39,1.39,0,1,1-1.48-1.3A1.39,1.39,0,0,1,102.67,210.33Z" style="fill:#263238"></path><path d="M95.92,228.75c-3.09-.08-8.32-.08-11-3.45,0,0,.39,2,3.58,3.54,2.24,1,7.47,1.36,7.47,1.36Z" style="fill:#f0997a"></path></g><path d="M105.9,280.93c2.3-.26,4.49-2.39,7.43-3.54s5.47-1.2,7.49-2c.84.47.42,2.23-.57,3-1.53,1.2-3.88,2-3.32,2.58.84.93,4,.26,5,.05,3-.64,6.11-2.45,9.23-1.82a1.31,1.31,0,0,1,.85.46,1.05,1.05,0,0,1-.23,1.26,6.14,6.14,0,0,1-1.14.8,1.6,1.6,0,0,0-.78,1.09c0,.42.23.83.18,1.25a1.6,1.6,0,0,1-.35.73,5.07,5.07,0,0,1-1.42,1.23,3.94,3.94,0,0,0-.73.54,10,10,0,0,0-1.75,1.76c-1.61,2.66-5.09,3.49-7.92,4-6,1.1-8.84-.15-12.41-.05s-18.78-.24-26.6-.74c-8.18-.51-9.62-1.91-11.56-9.81-2.32-9.48-4-19.51-4.91-25.92C61,246,67,239.8,72,238.91c1.71,1.49,5.26,10,7,23l3,15S103.61,281.18,105.9,280.93Z" style="fill:#ffbda7"></path><path d="M72.09,238.19c-4.48,2.17-7.54,3.38-9.58,8.68-1.35,3.51-.68,10.31.45,17.37a175.46,175.46,0,0,0,4.34,20.35c1.31,4.06,3,6.69,7.33,7.4s23.45.46,23.45.46-1.83-2.12-1.54-6.38a15.77,15.77,0,0,1,1.55-6.39l-15.83-3.06s-1.24-13.7-2.38-19.44S75.45,242.11,72.09,238.19Z" style="fill:#ebebeb"></path><path d="M82.26,276.62c-2.65-.27-7.29,1.84-8.58,4.31.53-2.59,3.49-5.73,8.34-5.75Z" style="opacity:0.1"></path></g></g></g></svg>