<?xml version="1.0" encoding="UTF-8" standalone="no"?>
<!-- Created with Inkscape (http://www.inkscape.org/) -->

<svg
   width="50.13789mm"
   height="25.4mm"
   viewBox="0 0 50.13789 25.399999"
   version="1.1"
   id="svg1"
   xml:space="preserve"
   inkscape:version="1.3.2 (091e20e, 2023-11-25, custom)"
   sodipodi:docname="logo-sofeve-concept-small.svg"
   xmlns:inkscape="http://www.inkscape.org/namespaces/inkscape"
   xmlns:sodipodi="http://sodipodi.sourceforge.net/DTD/sodipodi-0.dtd"
   xmlns:xlink="http://www.w3.org/1999/xlink"
   xmlns="http://www.w3.org/2000/svg"
   xmlns:svg="http://www.w3.org/2000/svg"><sodipodi:namedview
     id="namedview1"
     pagecolor="#505050"
     bordercolor="#eeeeee"
     borderopacity="1"
     inkscape:showpageshadow="0"
     inkscape:pageopacity="0"
     inkscape:pagecheckerboard="0"
     inkscape:deskcolor="#d1d1d1"
     inkscape:document-units="mm"
     inkscape:zoom="0.98646752"
     inkscape:cx="427.28219"
     inkscape:cy="200.20933"
     inkscape:window-width="1680"
     inkscape:window-height="979"
     inkscape:window-x="-8"
     inkscape:window-y="-8"
     inkscape:window-maximized="1"
     inkscape:current-layer="layer1"
     showgrid="false" /><defs
     id="defs1"><clipPath
       clipPathUnits="userSpaceOnUse"
       id="clipPath3"><use
         x="0"
         y="0"
         xlink:href="#g2"
         id="use3"
         transform="matrix(2.1519154,3.1071029,3.1071029,-2.1519154,1018.2011,196.94955)" /></clipPath></defs><g
     inkscape:label="Calque 1"
     inkscape:groupmode="layer"
     id="layer1"
     transform="matrix(0.06185052,0,0,0.06185052,8.9649957,3.4559718)"><g
       id="g6"
       style="display:inline;fill:#e3e3f4;fill-opacity:1"
       transform="matrix(0.26458333,0,0,0.26458333,-233.84246,-63.167239)"
       inkscape:label="corolle"><path
         d="m 1467.5,736.33 c -17.128,1.8442 -34.102,1.2236 -50.84,-3.1758 -2.3314,-0.6129 -4.2164,-2.0549 -5.9673,-3.5704 -4.5485,-3.9373 -4.3457,-8.2947 0.7544,-11.364 2.8474,-1.7137 6.0725,-3.6066 9.2373,-3.8252 7.5665,-0.5224 14.731,-3.0294 22.228,-3.7106 28.219,-2.5638 56.5,-3.5459 84.822,-3.189 31.978,0.403 63.854,-2.1706 95.725,-3.8749 30.553,-1.6338 61.184,-3.271 91.6,-6.6439 16.508,-1.8307 33.207,-1.2468 49.561,-4.4832 2.0532,-0.4064 4.1534,-0.2097 6.2596,1.0494 -11.352,5.0319 -23.342,6.8012 -35.316,8.5815 -5.8856,0.8751 -11.72,2.2655 -17.47,3.5256 -16.222,3.5555 -32.708,5.355 -49.043,7.9189 -17.11,2.6855 -34.229,5.5524 -51.458,7.6792 -12.325,1.5212 -24.7,3.2542 -37.03,4.6475 -24.712,2.7927 -49.235,7.7792 -74.258,7.4554 -8.8119,-0.3062 -17.585,-0.2006 -26.056,2.7571 -1.5795,0.4257 -3.1622,0.4578 -4.7484,0.0404 -0.5321,-0.8809 -1.0533,-0.8192 -1.5652,0.019 -1.5507,0.444 -3.1047,0.4637 -4.6615,0.0372 -0.6821,-1.2402 -1.2425,-0.753 -1.7753,0.126 z"
         id="path24"
         style="fill:#e3e3f4;fill-opacity:1" /><path
         d="m 1801.8997,697.73209 c -4.3789,7.30891 -12.9131,6.72625 -19.6836,9.28902 -18.9741,7.18226 -38.3565,13.14836 -57.7073,19.09599 -16.9509,5.21045 -34.0713,9.77434 -51.1282,14.5729 -17.0788,4.80384 -34.1504,9.63924 -51.2671,14.28237 -13.4533,3.64884 -26.9433,7.15003 -40.4638,10.48945 -15.3898,3.80097 -30.8273,7.37084 -46.2526,11.00119 -14.4985,3.41245 -28.9616,7.028 -43.5222,10.093 -19.2117,4.04384 -38.4272,8.2188 -57.7865,11.25025 -16.8776,2.64281 -33.9285,4.74825 -50.9537,5.32034 -18.9484,0.63679 -37.9712,1.54326 -56.9524,-0.46327 -4.8679,-0.51451 -9.3833,-2.0513 -13.5717,-4.31007 -6.1667,-3.32528 -5.9859,-9.43547 -0.019,-13.247 4.1682,-2.66248 8.9209,-3.28251 13.446,-4.75552 19.1691,-6.23881 39.0235,-8.1982 58.6695,-11.43989 14.6752,-2.42199 29.3993,-4.5071 44.1148,-6.63724 14.4118,-2.08617 28.8493,-3.96671 43.2588,-6.07295 12.8314,-1.87553 25.6531,-3.83425 38.454,-5.9389 21.2312,-3.49103 42.4527,-7.06037 63.6572,-10.73614 9.0411,-1.5673 18.0422,-3.36768 27.0981,-4.88717 29.6274,-4.97143 59.1719,-10.55628 88.6798,-16.31874 24.8348,-4.84954 49.5012,-10.7516 74.3861,-15.24642 12.5534,-2.26722 24.9434,-6.24872 37.5455,-5.3412 z"
         id="path23"
         style="display:inline;fill:#e3e3f4;fill-opacity:1;stroke-width:1.26904" /><path
         d="m 1833.9,699.68023 c -12.9266,8.33648 -26.5899,13.30487 -39.969,18.72151 -38.6701,15.65687 -77.3962,31.1916 -116.2907,46.29699 -29.1141,11.30731 -58.4818,21.98633 -87.8139,32.74028 -31.1945,11.43764 -62.3942,22.87275 -93.7557,33.84704 -18.6186,6.51507 -37.621,11.95134 -56.3339,18.21283 -22.5157,7.53356 -45.6037,13.15882 -68.7707,17.89177 -29.3309,5.99204 -58.6272,13.09334 -88.8912,13.41693 -4.9834,0.053 -9.8313,-0.15826 -14.5009,-2.43899 -6.8399,-3.34114 -7.5225,-7.49465 -1.4953,-12.31561 5.4601,-4.36768 12.2472,-6.29359 18.477,-9.18574 17.5553,-8.14937 36.1663,-13.6335 54.5962,-19.32965 17.2086,-5.31817 35.0254,-8.7083 52.5616,-12.99891 17.5618,-4.29731 35.1274,-8.5849 52.6547,-13.01403 18.495,-4.67301 36.9809,-9.39009 55.4134,-14.30081 26.4242,-7.03936 52.8255,-14.16988 79.1822,-21.4525 21.905,-6.05247 43.7655,-12.27191 65.5864,-18.61574 24.3271,-7.07246 48.6224,-14.25549 72.8667,-21.60358 19.5199,-5.91574 38.9518,-12.11515 58.4041,-18.24683 19.0227,-5.99619 37.7929,-12.79368 58.079,-17.62609 z"
         id="path22"
         style="display:inline;fill:#e3e3f4;fill-opacity:1;stroke-width:1.26693" /><path
         d="m 1760.4837,743.50709 c 11.1674,-6.9531 24.0638,-10.02812 35.7618,-15.85623 11.02,-5.49075 22.4926,-10.07456 33.6975,-15.20593 3.1709,-1.45198 6.1065,-2.43271 9.9272,-0.34983 -2.3985,4.59988 -6.8537,5.57091 -10.1054,7.41585 -89.2198,50.62232 -178.4024,101.32162 -269.476,148.60893 -54.2364,28.15847 -108.5113,56.32223 -164.9026,79.98844 -27.1995,11.41401 -54.2523,23.64101 -83.6254,29.22281 -9.1846,1.745 -17.7589,1.86285 -26.1453,-2.63763 -9.0185,-4.83981 -10.7483,-10.43964 -6.041,-19.381 5.3716,-10.20302 14.4672,-16.55295 23.7865,-22.42537 39.4066,-24.82876 82.0635,-42.96494 125.3401,-59.79659 34.1799,-13.29358 68.2706,-26.81542 102.4811,-40.02673 41.0551,-15.85357 82.2701,-31.29573 123.2718,-47.28333 25.9934,-10.13508 51.7203,-20.94832 77.5832,-31.41518 1.5685,-0.63488 3.2881,-0.89977 4.9205,-1.33599 2.5793,-0.91915 6.7064,1.65238 7.5395,-3.28643 0.8001,-0.31532 1.6002,-0.63065 2.384,-0.94411 2.9408,-0.19323 6.193,0.29569 7.6818,-3.29691 0.7771,-0.31824 1.5542,-0.63662 2.317,-0.95273 1.2903,-0.0119 2.6839,0.28108 3.6096,-1.04018 z"
         id="path20"
         style="fill:#e3e3f4;fill-opacity:1;stroke-width:1.32987" /><path
         d="m 1896,685.25 c -2.7081,6.33748 -5.8729,9.69484 -8.9241,13.01392 -20.7928,22.62052 -42.6286,44.26335 -65.1747,65.28446 -43.8711,40.90562 -90.6562,78.55648 -139.6131,113.53488 -45.5163,32.52335 -93.1753,62.1149 -142.2011,89.64551 -27.1951,15.26937 -54.6186,29.97423 -83.4166,42.23043 -17.7137,7.5387 -36.2857,11.8178 -55.6445,12.0944 -6.065,0.087 -12.2791,-1.2183 -18.2075,-2.6968 -6.9374,-1.7301 -8.5807,-6.4907 -4.8572,-13.0407 7.2325,-12.72273 18.5839,-21.8157 29.8781,-30.95189 31.1825,-25.22559 67.4642,-42.39058 103.4066,-59.89886 45.672,-22.24928 90.1451,-46.53786 134.7938,-70.5747 56.4249,-30.37853 111.6654,-62.59549 165.241,-97.38572 24.8502,-16.13517 49.5208,-32.64669 71.8742,-52.06331 3.4046,-2.95699 7.3752,-5.30982 12.8443,-9.19137 z"
         id="path18"
         style="fill:#e3e3f4;fill-opacity:1;stroke-width:1.29563" /></g><g
       id="g4"
       transform="matrix(0.26458333,0,0,0.26458333,-233.84246,-63.167239)"
       style="display:inline;fill:#e3e3f4;fill-opacity:1"
       inkscape:label="queue"><path
         d="m 1154.6,842.83 c -15.573,2.5648 -31.134,5.2076 -46.718,7.6973 -8.6578,1.3832 -17.394,2.5869 -26.021,4.378 -9.614,1.9961 -19.374,3.3849 -29.126,4.5889 -7.2048,0.8896 -14.351,2.345 -21.426,3.6396 -15.532,2.8417 -31.149,5.2314 -46.712,7.8013 -14.547,2.402 -28.977,5.434 -43.56,7.66 -14.055,2.1454 -27.92,5.5046 -41.903,8.1495 -13.473,2.5483 -26.997,4.8224 -40.484,7.2943 -13.755,2.5209 -27.492,5.1383 -41.237,7.709 -8.6487,1.6176 -17.319,3.1284 -25.944,4.8641 -12.181,2.4515 -24.339,5.0204 -36.489,7.6241 -12.402,2.6577 -24.776,5.4481 -37.175,8.1266 -17.713,3.8269 -35.436,7.6105 -53.157,11.402 -11.895,2.5454 -23.801,5.0375 -35.688,7.6191 -12.392,2.6916 -24.723,5.6891 -37.162,8.1358 -13.209,2.598 -26.276,5.8485 -39.635,7.7943 -15.882,2.3134 -31.633,5.5063 -47.478,8.0877 -7.6712,1.2496 -15.408,2.1965 -23.15,2.8909 -19.624,1.7602 -39.108,5.1077 -58.903,4.9899 -15.832,-0.0943 -31.66,0.6633 -47.497,-0.4764 -9.8931,-0.712 -19.403,-2.5864 -28.76,-5.9152 -3.9747,-1.4141 -5.6386,-6.3288 -10.389,-6.0704 v -10.912 c 1.032,0.2272 2.1151,0.4094 2.8981,-0.482 12.861,-14.641 30.571,-20.79 48.067,-27.129 11.416,-4.1362 22.993,-7.9357 34.705,-11.125 15.472,-4.2128 31.099,-7.8937 46.748,-11.406 14.378,-3.2271 28.79,-6.4883 43.344,-8.7036 14.831,-2.2574 29.459,-5.5632 44.319,-7.7126 9.7076,-1.4041 19.495,-2.6101 29.172,-4.4857 10.406,-2.017 20.992,-3.1357 31.523,-4.4622 8.73,-1.0996 17.396,-2.6321 26.138,-3.7067 11.555,-1.4205 23.156,-2.7599 34.712,-4.2435 13.351,-1.7143 26.671,-3.7792 40.127,-4.8265 14.978,-1.1656 29.943,-2.7765 44.822,-4.8493 11.823,-1.647 23.75,-2.0963 35.594,-3.3904 14.393,-1.5726 28.829,-3.3163 43.32,-4.3292 16.008,-1.1191 31.943,-3.3041 47.908,-5.0362 1.2881,-0.1395 2.5692,-0.5416 3.8497,-0.5251 20.024,0.257 39.862,-2.6983 59.74,-4.259 18.578,-1.4587 37.314,-1.6356 55.788,-4.6702 11.539,-1.8954 23.284,-1.1842 34.931,-2.2244 26.076,-2.3285 52.175,-4.6587 78.384,-5.1846 12.717,-0.2552 25.276,-2.4527 38,-3.0652 31.601,-1.5212 63.15,-4.0938 94.747,-5.7074 23.578,-1.204 47.161,-2.1598 70.711,-3.9333 6.0631,-0.4567 12.252,0.7598 18.851,1.2417 -1.6136,1.7378 -3.1676,1.7661 -4.6134,1.891 -8.7682,0.7576 -17.466,2.2272 -26.166,3.2157 -12.863,1.4613 -25.666,3.5573 -38.604,4.5194 -8.7654,0.6517 -17.479,2.2274 -26.17,3.5342 -21.256,3.1962 -42.537,6.1667 -63.82,9.1572 -8.1952,1.1517 -16.308,2.9106 -24.606,3.3451 -2.3595,-1.1935 -4.4915,-1.4764 -5.8029,1.4733 z"
         id="path2"
         style="display:inline;fill:#e3e3f4;fill-opacity:1" /><path
         d="m 1470.7,979.54 c -1.3696,3.4737 -4.4116,5.5213 -7.0884,7.6819 -46.091,37.205 -92.262,74.311 -138.4,111.46 -38.158,30.723 -76.307,61.456 -114.44,92.212 -43.191,34.836 -86.426,69.617 -129.51,104.59 -29.771,24.163 -59.171,48.797 -90.092,71.498 -35.322,25.932 -71.998,49.819 -109.81,71.987 -17.847,10.464 -35.996,20.356 -54.625,29.313 -13.455,6.4695 -27.157,12.516 -41.413,17.032 -5.1259,1.6239 -10.658,2.353 -16.053,2.6594 -10.617,0.603 -18.25,-7.4741 -20.066,-19.525 -2.8253,-18.738 3.8623,-34.533 14.565,-49.08 16.12,-21.91 36.422,-39.616 57.435,-56.62 23.003,-18.613 47.371,-35.316 72.138,-51.4 51.659,-33.548 105.07,-64.151 159.01,-93.884 38.28,-21.103 76.362,-42.564 114.79,-63.404 35.405,-19.201 70.785,-38.456 105.95,-58.099 51.973,-29.036 103.98,-58.042 154.54,-89.5 13.589,-8.4537 26.371,-18.184 40.173,-26.341 0.876,-0.5182 1.607,-1.3211 2.8956,-0.5733 z"
         id="path3"
         style="display:inline;fill:#e3e3f4;fill-opacity:1" /><path
         d="m 1354.6,923.18 c -10.902,5.4755 -21.756,11.047 -32.712,16.41 -65.682,32.152 -130.19,66.601 -195.26,99.95 -65.836,33.741 -131.13,68.541 -196.94,102.32 -45.933,23.574 -91.932,47.074 -138.85,68.644 -45.82,21.065 -91.505,42.437 -137.97,62.099 -17.385,7.3568 -34.856,14.54 -52.737,20.412 -21.149,6.9458 -42.637,13.321 -65.518,10.363 -8.6971,-1.1245 -16.508,-4.1218 -23.008,-9.8879 -9.4831,-8.4124 -11.303,-19.696 -5.2708,-30.944 2.8176,-5.2542 6.4448,-9.829 10.799,-14.075 22.458,-21.899 49.809,-36.005 77.533,-49.608 29.204,-14.33 59.613,-25.772 90.034,-37.101 19.773,-7.3635 40.122,-13.165 60.077,-20.06 25.551,-8.8289 50.917,-18.193 76.453,-27.067 22.668,-7.8771 45.522,-15.221 68.177,-23.133 18.556,-6.4806 36.92,-13.51 55.407,-20.192 28.205,-10.193 56.468,-20.228 84.659,-30.459 21.585,-7.8337 43.07,-15.942 64.649,-23.792 21.556,-7.8416 43.217,-15.398 64.754,-23.292 21.25,-7.7881 42.373,-15.922 63.606,-23.756 21.521,-7.9406 43.131,-15.643 64.661,-23.56 15.275,-5.6165 30.437,-11.54 45.739,-17.079 7.0807,-2.563 14.375,-4.5372 21.572,-6.7785 0.049,0.1958 0.097,0.3919 0.1457,0.5879 z"
         id="path4"
         style="fill:#e3e3f4;fill-opacity:1" /><path
         d="m 1437.4074,953.82656 c -0.3663,2.12008 -1.6476,2.69898 -2.8184,3.28834 -44.9313,22.60794 -88.1772,47.8946 -131.0055,73.8211 -71.7503,43.434 -143.4712,86.9119 -215.0274,130.619 -38.0309,23.2298 -75.9066,46.6838 -114.09975,69.6774 -54.5483,32.8376 -110.2926,63.6901 -167.1157,92.8633 -34.307,17.6152 -69.0347,34.4122 -105.0723,48.6281 -20.6453,8.1439 -41.6671,15.4297 -64.1285,17.9869 -5.2168,0.5941 -10.378,0.5891 -15.5177,-0.3936 -10.4211,-1.9927 -15.4598,-8.8534 -15.5515,-18.7652 -0.1865,-20.0897 10.5568,-35.3131 23.8956,-49.2679 24.867,-26.0162 55.5756,-44.6748 87.8376,-61.3582 39.2637,-20.3029 80.7737,-35.9817 121.556,-53.1494 44.7962,-18.8559 89.6293,-37.6401 134.6544,-56.0076 47.91575,-19.5475 95.06165,-40.6945 142.75395,-60.7064 44.5979,-18.7134 88.8025,-38.2689 133.0726,-57.6798 50.625,-22.1984 101.0319,-44.8442 151.7709,-66.81035 9.5588,-4.13831 19.0085,-8.45013 28.459,-12.78187 1.9931,-0.91344 4.052,-1.51487 6.3554,0.03 z"
         id="path5"
         style="fill:#e3e3f4;fill-opacity:1;stroke-width:1.02518" /><path
         d="m 1350.8394,846.79 c -0.038,2.1229 -1.4293,2.7264 -2.6399,2.8434 -12.2761,1.1868 -24.0597,4.7795 -36.0833,7.1312 -11.7473,2.2975 -23.565,4.5481 -35.152,7.7575 -10.7643,2.9815 -21.8018,5.0325 -32.6882,7.6151 -10.1022,2.3967 -20.1794,4.8961 -30.2391,7.4558 -14.4563,3.6783 -28.8856,7.4536 -43.3274,11.185 -13.942,3.6022 -27.9047,7.1341 -41.8229,10.82 -13.9286,3.6883 -27.824,7.4931 -41.7153,11.312 -17.246,4.7408 -34.4815,9.52 -51.7057,14.335 -16.712,4.6725 -33.4219,9.3553 -50.10079,14.138 -16.66647,4.7791 -33.2874,9.7068 -49.93937,14.534 -15.88421,4.6041 -31.79324,9.1314 -47.67434,13.748 -20.47428,5.9521 -40.90304,12.052 -61.40423,17.914 -16.63852,4.757 -33.3681,9.2135 -50.03249,13.883 -12.55753,3.5186 -25.06126,7.2178 -37.61776,10.739 -17.17658,4.817 -34.39249,9.5021 -51.56907,14.318 -16.40675,4.5996 -32.78038,9.3108 -49.17678,13.942 -16.6706,4.709 -33.33706,9.4343 -50.03456,14.054 -17.49632,4.8406 -34.95849,9.8182 -52.56035,14.277 -24.32039,6.1611 -48.11824,14.162 -73.09051,18.1 -10.92473,1.7233 -21.67665,3.1373 -32.72864,2.8335 -19.16017,-0.5271 -21.30828,-12.749 -15.2644,-26.159 4.18478,-9.2842 11.43899,-16.217 19.36402,-22.487 17.36904,-13.74 37.60327,-22.466 57.90785,-31.25 25.1368,-10.875 51.2421,-19.082 77.25739,-27.535 16.37673,-5.3207 33.16322,-9.4162 49.88349,-13.703 13.38118,-3.4308 26.71683,-7.1472 40.08663,-10.672 11.06441,-2.9167 22.31818,-5.1666 33.50159,-7.6566 11.45347,-2.5504 23.0218,-4.6804 34.35938,-7.6419 12.15812,-3.1759 24.56665,-5.1315 36.80859,-7.8783 13.29427,-2.983 26.76961,-5.2064 40.15803,-7.8 13.65125,-2.6445 27.27766,-5.4129 40.94339,-7.9875 15.7797,-2.973 31.56767,-5.9104 47.39289,-8.6471 15.56344,-2.6915 31.17447,-5.129 46.76998,-7.6474 16.11909,-2.603 32.23818,-5.205 48.36968,-7.7386 10.84401,-1.7035 21.70048,-3.3397 32.56718,-4.9063 7.4212,-1.0699 14.7429,-2.6132 22.2013,-3.5979 16.7089,-2.2061 33.2346,-5.6858 49.9166,-8.1222 18.5435,-2.7081 37.1904,-4.7525 55.7691,-7.2437 10.6153,-1.4233 21.1737,-3.239 31.7797,-4.7355 11.3935,-1.608 22.7849,-3.2924 34.2291,-4.4841 8.7942,-0.9158 17.4735,-2.5883 26.2305,-3.6979 12.2109,-1.5473 24.6018,-2.0573 36.6668,-4.716 8.4036,-1.8521 17.0617,-1.5032 25.5652,-2.9617 12.9197,-2.216 26.0277,-3.4587 39.0871,-4.8329 3.2464,-0.3416 6.8638,-0.9268 9.7549,1.1655 z"
         id="path6"
         style="fill:#e3e3f4;fill-opacity:1;stroke-width:1.01722" /><path
         d="m 1405.6479,882.5 c -12.3678,5.3696 -24.4054,9.1402 -36.379,13.084 -27.1444,8.9404 -54.2865,17.889 -81.3247,27.099 -25.2263,8.5931 -50.3151,17.531 -75.4667,26.312 -26.1707,9.136 -52.3523,18.248 -78.5154,27.402 -27.9685,9.7858 -55.9218,19.606 -83.8805,29.416 -25.3119,8.8814 -50.61189,17.79 -75.93352,26.648 -25.35412,8.8693 -50.71149,17.732 -76.09919,26.521 -29.36339,10.166 -58.74519,20.287 -88.14756,30.357 -29.67096,10.162 -59.36467,20.268 -89.07029,30.342 -23.1318,7.8448 -46.29393,15.616 -69.45064,23.397 -23.87042,8.0199 -47.7874,15.926 -71.6199,24.041 -19.45394,6.6241 -39.23277,12.556 -59.60185,15.735 -16.41287,2.5614 -33.14089,5.5293 -50.07035,1.0869 -11.56428,-3.0345 -22.48742,-7.3589 -30.63375,-15.222 -9.58542,-9.2534 -8.49202,-17.3 2.57516,-26.756 10.79307,-9.2212 23.54984,-15.756 36.64115,-21.708 27.64033,-12.568 56.23479,-22.971 85.44656,-31.981 13.82342,-4.2637 27.45623,-9.0719 41.36087,-13.087 14.70606,-4.2466 29.62006,-7.8828 44.46366,-11.715 19.15395,-4.9448 38.31656,-9.8668 57.50083,-14.708 14.57285,-3.6774 29.1966,-7.1779 43.7792,-10.823 14.84144,-3.7101 29.62873,-7.6123 44.49832,-11.226 15.4046,-3.744 30.90775,-7.1456 46.31776,-10.876 14.85769,-3.5964 29.62981,-7.4933 44.47883,-11.12 10.80325,-2.6387 21.68492,-5.0015 32.50517,-7.5814 10.25818,-2.4457 20.4882,-4.9904 30.71931,-7.5348 10.51095,-2.6142 20.96039,-5.4517 31.52181,-7.8787 11.63359,-2.6734 23.24772,-5.3827 34.77952,-8.4246 10.1965,-2.6895 20.5466,-4.8792 30.8189,-7.3284 15.9493,-3.8035 31.8738,-7.6984 47.8394,-11.442 11.0975,-2.6022 22.2697,-4.9337 33.3661,-7.5386 10.5559,-2.4777 21.0492,-5.183 31.5847,-7.7353 15.1587,-3.6725 30.3294,-7.3057 45.499,-10.94 15.7392,-3.7704 31.4698,-7.5737 47.2296,-11.267 16.0219,-3.7548 32.1023,-7.3011 48.108,-11.115 10.5558,-2.5153 21.0037,-5.413 31.538,-8.0096 11.3607,-2.8003 22.7647,-5.4525 34.1514,-8.1631 10.7976,-2.5703 21.6199,-5.056 32.3784,-7.7591 2.2782,-0.5717 4.2799,-0.9453 7.0913,0.4982 z"
         id="path7"
         style="fill:#e3e3f4;fill-opacity:1;stroke-width:1.04067"
         inkscape:label="path7" /><path
         d="m 578.82,685.02 c -11.967,-3.6981 -22.854,-9.4446 -32.826,-17.023 -5.0677,-3.8519 -8.9377,-8.6843 -11.769,-14.247 -4.5488,-8.9374 0.1786,-19.154 9.8217,-22.136 14.368,-4.4442 29.105,-6.8275 43.935,-9.2673 29.54,-4.8596 59.335,-6.1585 89.086,-7.8478 13.662,-0.7757 27.476,0.84 41.206,1.6389 21.749,1.2654 43.388,3.9465 64.881,7.241 15.834,2.427 31.716,4.7834 47.477,7.9199 13.405,2.6675 26.956,4.8698 40.419,7.3563 12.171,2.248 24.117,5.6948 36.22,8.3452 11.581,2.5361 23.264,4.6071 34.854,7.1039 11.598,2.4986 23.146,5.231 34.699,7.9355 10.791,2.5259 21.574,5.0862 32.331,7.7487 10.261,2.5394 20.479,5.2502 30.725,7.8489 10.245,2.5983 20.502,5.1459 30.752,7.7256 9.7451,2.4528 19.512,4.8267 29.224,7.4041 9.9713,2.6462 19.881,5.5231 29.831,8.2521 13.938,3.8228 27.892,7.5862 41.831,11.404 13.195,3.6145 26.41,7.1589 39.56,10.93 16.351,4.6891 32.644,9.5791 48.962,14.383 15.134,4.4548 30.244,8.9918 45.411,13.331 8.0043,2.2902 16.028,4.4456 23.168,9.3318 -7.1731,-1.729 -14.544,-1.3837 -21.772,-2.883 -17.519,-3.634 -35.167,-6.5254 -52.958,-8.5504 -12.103,-1.3774 -24.141,-3.3411 -36.252,-4.6222 -14.184,-1.5004 -28.23,-4.0722 -42.512,-4.8644 -11.644,-0.646 -23.255,-2.2627 -34.808,-3.6879 -14.164,-1.7471 -28.396,-2.913 -42.566,-4.3538 -16.75,-1.7032 -33.51,-3.6542 -50.373,-4.5212 -16.304,-0.8384 -32.536,-3.0178 -48.815,-4.4213 -19.637,-1.6929 -39.293,-3.1666 -58.938,-4.7758 -22.492,-1.8425 -44.952,-4.252 -67.478,-5.4318 -17.886,-0.9367 -35.651,-3.0964 -53.529,-4.0764 -20.972,-1.1497 -41.884,-3.3725 -62.839,-4.8959 -23.8,-1.7303 -47.681,-2.5772 -71.41,-4.9687 -21.953,-2.2125 -44.023,-2.5149 -65.961,-5.0832 -8.9935,-1.0529 -17.912,-2.2663 -26.818,-3.8094 -2.9082,-0.504 -5.4309,-1.6692 -7.858,-3.2057 -1.3031,-1.7433 -3.1689,-1.2377 -4.9112,-1.2273 z"
         id="path8"
         style="fill:#e3e3f4;fill-opacity:1" /><path
         d="m 1356.2,775.24 c -5.0447,1.3232 -10.107,1.6626 -15.168,1.1281 -19.927,-2.1045 -39.94,-1.9088 -59.925,-2.259 -32.717,-0.5734 -65.439,-1.2189 -98.158,-1.1493 -51.166,0.1089 -102.33,0.8035 -153.5,1.2222 -32.206,0.2635 -64.432,-0.146 -96.615,0.857 -49.323,1.5374 -98.665,1.9439 -147.98,3.2429 -46.202,1.2169 -92.424,1.9662 -138.61,3.8635 -25.172,1.0341 -50.338,1.8047 -75.533,1.9307 -18.615,0.0931 -36.534,-3.5215 -54.351,-8.4519 -12.533,-3.4681 -24.752,-7.7048 -35.936,-14.28 -6.9905,-4.1097 -14.145,-8.1301 -18.316,-16.046 -2.4248,-4.601 -0.8954,-6.0423 2.4712,-8.4325 9.47,-6.7237 20.398,-10.153 31.221,-13.337 10.351,-3.0451 20.853,-5.7757 31.607,-7.5805 14.343,-2.4072 28.636,-4.9028 43.194,-5.1771 34.283,-0.6459 68.641,-1.733 102.83,0.5689 32.382,2.1804 64.84,1.8157 97.217,4.7088 20.366,1.8198 40.89,3.0632 61.326,4.5032 21.198,1.4939 42.473,2.3263 63.623,5.0071 19.286,2.4446 38.769,3.3015 58.143,5.094 19.629,1.816 39.276,3.5107 58.881,5.489 15.469,1.561 30.971,3.0752 46.425,4.9549 12.844,1.5622 25.739,3.0995 38.669,4.1712 15.249,1.2641 30.441,3.2141 45.657,4.8793 13.402,1.4667 26.804,2.9417 40.204,4.4297 16.239,1.8032 32.492,3.4915 48.707,5.4846 10.302,1.2662 20.66,1.7372 30.971,3.1535 20.802,2.8576 41.713,5.0726 62.642,6.7878 10.321,0.8461 19.819,5.5741 30.302,5.2361 z"
         id="path9"
         style="fill:#e3e3f4;fill-opacity:1" /><path
         d="m 479.29805,856.48 c -17.6562,0.2695 -34.45766,-3.8792 -51.25807,-8.5963 -8.63723,-2.425 -16.37926,-6.3172 -24.09484,-10.434 -2.77877,-1.4826 -5.39302,-3.3717 -7.4076,-5.8749 -4.71918,-5.8638 -4.12821,-8.075 2.61207,-11.928 7.55491,-4.3186 16.19463,-5.4059 24.38944,-7.5685 18.65514,-4.9232 37.92438,-7.3706 57.07639,-9.1865 25.68401,-2.4351 51.50495,-3.9017 77.38605,-3.8843 54.13249,0.0363 108.18198,-3.2111 162.33001,-3.6475 47.64095,-0.384 95.285,-2.4211 142.96328,-2.7637 48.46664,-0.3482 96.8835,-3.5191 145.38022,-2.9711 33.6766,0.3806 67.35,-0.4149 100.9861,-1.5723 44.975,-1.5476 89.9531,-1.087 134.924,-1.6697 56.0163,-0.7257 112.0304,-1.862 168.0456,-2.7766 5.6178,-0.0917 11.2727,-0.5299 16.9052,1.0921 -11.7725,2.4827 -23.4745,4.9726 -35.635,5.6924 -19.0565,1.1282 -38.0581,3.0964 -57.0857,4.681 -18.7609,1.5626 -37.5322,3.0172 -56.287,4.6538 -19.8263,1.7302 -39.6255,3.7447 -59.457,5.4103 -31.3582,2.634 -62.7806,4.6373 -94.0817,7.7846 -16.8606,1.6954 -33.7814,2.5922 -50.6284,4.4761 -18.9632,2.1203 -38.0603,3.1134 -57.0919,4.6791 -16.6127,1.3669 -33.20982,2.9122 -49.82352,4.2628 -21.71108,1.765 -43.43668,3.3682 -65.14881,5.1318 -15.81184,1.2845 -31.6071,2.7699 -47.41791,4.0691 -21.97663,1.8059 -44.00513,3.1296 -65.92886,5.4001 -17.39585,1.8018 -34.84251,2.8602 -52.25701,4.3417 -20.62397,1.7548 -41.23239,3.6986 -61.89889,5.0897 -15.81081,1.0641 -31.63822,2.3601 -47.41168,3.9359 -38.58827,3.8549 -77.20556,6.634 -116.03448,5.2656 -6.90429,-0.2434 -13.90319,0.6475 -20.66339,-1.4126 -4.15997,-2.7189 -8.86793,-1.4901 -13.38349,-1.6805 z"
         id="path10"
         style="fill:#e3e3f4;fill-opacity:1;stroke-width:1.01849" /><path
         d="m 1295.3,731.33 c -1.9663,2.5721 -4.2202,2.1643 -6.0594,1.6184 -11.855,-3.5191 -23.579,-7.4999 -35.491,-10.803 -13.92,-3.8604 -27.994,-7.1671 -41.993,-10.747 -9.7517,-2.4935 -19.478,-5.0881 -29.236,-7.5529 -10.758,-2.7172 -21.532,-5.3705 -32.314,-7.9911 -11.78,-2.8635 -23.571,-5.6865 -35.37,-8.4741 -10.306,-2.4349 -20.631,-4.7906 -30.945,-7.1918 -10.826,-2.5201 -21.658,-5.0157 -32.471,-7.5897 -11.314,-2.6933 -22.597,-5.5139 -33.914,-8.1942 -16.583,-3.9277 -33.171,-7.8414 -49.783,-11.644 -11.096,-2.5395 -22.245,-4.8521 -33.36,-7.3079 -12.119,-2.6774 -24.228,-5.4028 -36.34,-8.1074 -11.36,-2.5363 -22.721,-5.0668 -34.08,-7.6104 -12.62,-2.8262 -25.222,-5.7371 -37.861,-8.4757 -11.635,-2.5211 -23.304,-4.8913 -34.969,-7.2757 -13.69,-2.7983 -27.391,-5.5441 -41.088,-8.306 -12.437,-2.5078 -24.909,-4.8568 -37.306,-7.5458 -17.381,-3.7698 -35.291,-5.4321 -51.816,-12.687 -14.091,-6.1868 -26.987,-14.074 -37.032,-26.047 -2.893,-3.4481 -4.694,-7.5217 -6.1032,-11.607 -2.5436,-7.3724 1.4203,-15.341 8.835,-19.647 10.663,-6.1922 22.539,-7.2066 34.379,-7.7674 18.078,-0.8563 35.948,1.5266 53.906,3.5707 14.182,1.6144 28.11,4.2223 41.876,7.4408 16.546,3.8688 33.028,8.205 49.226,13.49 15.455,5.0417 31.033,9.7038 46.509,14.682 7.6798,2.4703 15.256,5.263 22.871,7.9323 11.109,3.8939 22.409,7.4472 33.3,11.696 10.269,4.0062 20.807,7.4488 31.104,11.315 9.3033,3.493 19.058,6.229 28.419,9.7888 15.618,5.9395 31.178,12.088 46.721,18.182 14.774,5.7925 29.907,10.939 44.792,16.593 19.287,7.3263 38.424,15.053 57.556,22.78 19.542,7.8929 38.98,16.04 58.496,23.996 31.056,12.662 62.288,24.91 93.116,38.104 8.6482,3.7013 17.939,5.9997 26.427,11.383 z"
         id="path11"
         style="fill:#e3e3f4;fill-opacity:1" /><path
         d="m 1265.3,697.28 c -10.374,-2.3778 -19.927,-6.7717 -29.23,-11.244 -11.904,-5.722 -24.347,-9.9196 -36.483,-14.936 -33.197,-13.722 -67.275,-25.129 -100.98,-37.516 -38.579,-14.179 -77.375,-27.778 -116.22,-41.226 -32.191,-11.146 -64.683,-21.424 -96.857,-32.618 -25.286,-8.7971 -50.752,-16.993 -76.285,-25.019 -19.445,-6.1122 -38.909,-12.214 -58.093,-19.081 -8.7064,-3.1165 -16.798,-7.887 -22.329,-16.031 -3.5017,-5.1561 -5.2766,-10.467 -4.8637,-16.743 0.6514,-9.9032 6.8596,-16.271 16.725,-18.038 27.377,-4.9036 54.474,-1.0218 81.07,4.1791 25.268,4.9411 49.32,14.794 72.88,25.391 17.612,7.9224 35.437,15.404 52.818,23.803 43.073,20.813 85.571,42.767 127.35,66.078 52.838,29.481 105.07,60.018 157.01,91.051 8.9169,5.3278 17.506,11.242 26.744,16.022 2.8531,1.476 4.4938,3.8739 6.7388,5.9276 z"
         id="path12"
         style="fill:#e3e3f4;fill-opacity:1" /><path
         d="m 887.05,411.74 c 16.1,1.2404 35.289,2.7027 53.366,9.7479 10.39,4.0493 19.524,10.706 28.966,16.574 33.665,20.922 65.314,44.644 96.227,69.434 38.059,30.522 74.987,62.332 111.16,95.042 7.484,6.7668 14.428,14.208 22.064,20.637 8.2911,6.98 16.669,13.86 24.613,21.248 4.4963,4.1811 8.8932,8.469 13.343,12.7 0.9465,0.9001 2.2,2.0267 1.1263,3.1948 -1.0476,1.1399 -2.5222,1.093 -4.0682,-0.0973 -8.7753,-6.7562 -18.055,-12.742 -27.445,-18.643 -35.061,-22.03 -71.471,-41.704 -107.48,-62.075 -56.895,-32.191 -114.64,-62.826 -172.77,-92.72 -17.938,-9.2243 -36.013,-18.18 -54.021,-27.268 -3.9287,-1.9825 -7.6665,-4.204 -11.211,-6.8942 -12.261,-9.3055 -9.6071,-27.896 1.8159,-35.153 7.7493,-4.923 9.3453,-5.6946 24.306,-5.7284 z"
         id="path15"
         style="fill:#e3e3f4;fill-opacity:1" /><path
         d="m 1237.1,636.42 c -8.0122,-5.3685 -13.188,-13.125 -19.571,-19.79 -19.021,-19.859 -39.361,-38.318 -59.43,-57.077 -33.718,-31.515 -68.834,-61.436 -103.89,-91.417 -18.51,-15.829 -37.392,-31.233 -56.38,-46.489 -9.7593,-7.8412 -12.524,-15.198 -9.4286,-27.075 2.1542,-8.2663 12.38,-16.548 23.605,-17.437 26.375,-2.0888 48.774,6.1157 66.236,26.513 16.004,18.694 31.769,37.579 45.987,57.69 29.292,41.431 57.511,83.575 83.996,126.87 7.9314,12.964 15.998,25.846 23.914,38.82 1.8413,3.0179 3.3199,6.2572 4.9651,9.3947 z"
         id="path19"
         transform="translate(-2.0472441e-6)"
         style="fill:#e3e3f4;fill-opacity:1" /></g><g
       id="g7"
       style="display:inline;fill:#e3e3f4;fill-opacity:1"
       transform="matrix(0.26458333,0,0,0.26458333,-233.84246,-63.167239)"
       inkscape:label="queue bas"><path
         d="m 1541.1,1056.4 c -2.4698,-1.8252 -3.4404,-0.1262 -4.7906,1.717 -8.864,12.102 -17.848,24.117 -26.808,36.148 -18.148,24.367 -34.395,49.963 -47.675,77.273 -9.8157,20.186 -19.017,40.676 -25.686,62.251 -4.2588,13.777 -9.8102,27.158 -13.437,41.16 -3.7531,14.49 -7.1166,29.094 -11.352,43.442 -5.0635,17.152 -7.8292,34.79 -11.562,52.203 -4.6563,21.724 -8.4791,43.634 -10.521,65.863 -2.2731,24.746 -6.3986,49.273 -15.737,72.532 -3.9868,9.9294 -9.8793,18.611 -17.886,25.999 -11.392,10.512 -32.362,10.726 -43.718,3.571 -9.2925,-5.8544 -14.162,-14.84 -17.581,-24.819 -4.2208,-12.317 -6.6724,-24.959 -6.5568,-38.029 0.099,-11.154 -0.5037,-22.338 0.9879,-33.442 4.223,-31.439 12.709,-61.668 25.426,-90.756 20.412,-46.689 46.533,-89.944 76.154,-131.37 18.877,-26.399 38.879,-51.854 59.662,-76.672 15.963,-19.062 32.761,-37.475 50.077,-55.384 11,-11.376 21.902,-22.837 33.458,-33.654 2.9954,-2.8038 6.0153,-5.626 9.9425,-7.1726 -0.5951,3.0952 1.6297,6.9371 -2.3974,9.1361 z"
         id="path37"
         style="display:inline;fill:#e3e3f4;fill-opacity:1" /><path
         d="m 1541.1,1056.4 c 4.0271,-2.199 1.8022,-6.0409 2.3975,-9.136 0.4395,-0.2678 0.8831,-0.5403 1.322,-0.8112 3.1775,1.9565 0.023,5.7754 2.3435,7.9836 0.7799,15.653 -2.4905,31.005 -3.5508,46.526 -2.4392,35.71 -5.8553,71.354 -8.2438,107.07 -1.4543,21.746 -1.42,43.588 -2.6162,65.356 -1.7852,32.483 -0.309,64.896 2.2017,97.23 1.4851,19.125 4.3602,38.174 3.9133,57.394 -0.5082,21.853 -3.6614,43.138 -13.776,63.094 -10.573,20.861 -29.941,32.004 -53.454,29.206 -11.213,-1.3346 -18.729,-8.349 -24.102,-17.802 -6.0792,-10.695 -8.7312,-22.562 -11.661,-34.375 -3.8354,-15.464 -3.8168,-31.342 -5.3774,-47.024 -0.9958,-10.007 1.2289,-20.232 3.3195,-30.06 4.4109,-20.735 9.4968,-41.342 14.929,-61.837 3.906,-14.737 8.6904,-29.248 13.315,-43.787 6.9797,-21.942 13.952,-43.891 21.316,-65.706 7.6868,-22.77 15.841,-45.382 23.777,-68.068 5.7068,-16.315 11.116,-32.74 17.185,-48.919 3.7745,-10.062 5.9601,-20.765 11.675,-30.067 3.2212,-1.8904 1.1494,-5.0153 1.74,-7.5229 0.7997,-3.0348 1.0996,-6.261 3.348,-8.7409 z"
         id="path38"
         style="display:inline;fill:#e3e3f4;fill-opacity:1" /><path
         d="m 1583.8,1045.1 c 0.7833,9.921 3.016,18.216 3.5089,26.59 0.6277,10.663 2.8046,21.088 4.219,31.575 1.5189,11.261 2.9081,22.612 4.5808,33.874 1.5925,10.723 3.0638,21.54 4.4447,32.321 1.4778,11.538 2.6935,23.141 4.9442,34.607 2.8411,14.473 4.6943,29.138 7.4148,43.638 3.8657,20.604 6.2401,41.475 11.621,61.818 2.511,9.4934 4.0305,19.262 6.8295,28.702 4.7771,16.11 9.7371,32.165 14.553,48.263 6.3754,21.31 9.7332,43.049 7.2172,65.258 -1.1021,9.7274 -3.832,19.278 -9.42,27.677 -8.9088,13.39 -21.194,16.498 -35.255,12.504 -6.7157,-1.9075 -11.468,-8.0227 -15.218,-13.917 -8.2295,-12.934 -13.353,-27.167 -15.694,-42.33 -0.8304,-5.3789 -2.5994,-10.507 -3.6904,-15.831 -8.0149,-39.105 -9.5048,-78.657 -8.7585,-118.36 0.7609,-40.473 2.9532,-80.877 5.4708,-121.29 1.2899,-20.705 3.0295,-41.394 4.3138,-62.101 1.3466,-21.712 2.2975,-43.522 5.4448,-65.109 0.328,-2.2497 0.1148,-4.7048 3.4732,-7.8869 z"
         id="path39"
         style="display:inline;fill:#e3e3f4;fill-opacity:1" /></g><g
       id="g1"
       style="display:inline"
       transform="matrix(1,0,0,0.99547471,0,1.6055332)"><g
         id="g27"
         inkscape:label="corps"><path
           d="m 1890.3,23.966 c 13.722,0.4865 26.329,5.8441 38.57,10.666 25.053,9.8679 47.076,24.856 65.98,44.545 12.096,12.599 19.689,27.729 26.8,43 5.0785,10.906 7.4221,23.236 7.0844,35.579 -0.1375,5.0235 1.8722,7.2602 6.524,7.6181 8.7501,0.673 16.342,4.4086 23.686,8.8177 12.288,7.3772 20.866,18.507 29.254,29.663 13.014,17.309 24.211,36.023 41.643,49.719 9.0784,7.1324 18.711,12.765 29.67,16.389 7.6917,2.5435 15.837,3.7069 23.232,7.1364 0.9446,0.4379 0.6584,1.8515 -0.3823,1.8721 -0.01,2e-4 -0.014,2e-4 -0.022,4e-4 -5.9666,0.1246 -11.935,0.1618 -17.902,0.2783 -45.917,0.8965 -91.889,-0.4979 -137.73,3.6671 -19.373,1.7602 -38.876,2.2539 -58.184,4.5002 -19.027,2.2136 -38.057,4.558 -56.98,7.8481 -13.779,2.3957 -27.575,4.86 -41.169,7.9309 -23.147,5.2289 -45.976,11.813 -67.978,20.981 -20.665,8.6104 -40.239,18.864 -56.641,34.487 -10.138,9.6566 -18.369,20.729 -21.97,34.206 -6.8011,25.449 0.9338,48.485 15.343,69.122 9.8933,14.17 21.914,26.878 35.779,37.496 9.0219,6.9097 17.639,14.804 27.646,19.873 18.228,9.2327 36.414,19.232 57.347,21.545 1.2754,0.1409 2.5077,0.6407 3.7719,0.9201 7.5569,1.6704 15.086,4.5401 22.683,4.7355 16.498,0.4245 32.764,3.2736 49.593,1.2025 17.362,-2.1365 33.968,-6.4382 50.416,-11.521 17.98,-5.5558 35.942,-11.328 54.547,-13.834 27.58,-3.7148 55.264,-3.4441 82.81,1.4935 8.9382,1.6023 17.464,4.5987 26.227,6.7013 18.197,4.3665 34.077,13.186 48.602,24.506 12.799,9.975 20.568,23.668 26.397,38.539 0.3154,12.548 0.6021,23.961 0.9172,36.509 -3.7659,11.234 -7.668,22.317 -13.848,32.587 -9.8577,16.378 -21.999,30.73 -36.174,43.447 -32.869,29.486 -70.834,51.141 -109.64,71.56 -33.9,17.839 -68.842,33.437 -103.99,48.576 -31.48,13.561 -63.214,26.534 -94.829,39.781 -32.842,13.76 -65.971,26.885 -98.408,41.541 -20.947,9.4647 -40.828,21.275 -61.271,31.872 -28.472,14.76 -56.729,29.923 -84.27,46.352 -38.219,22.801 -75.664,46.797 -111.48,73.281 -27.564,20.381 -54.053,42.054 -79.121,65.409 -26.028,24.249 -49.844,50.564 -71.443,78.862 -24.778,32.463 -45.808,67.218 -63.109,104.18 -9.957,21.269 -18.561,43.09 -26.1,65.389 -3.4142,10.1 -6.8785,20.29 -7.9956,30.618 -1.4189,13.12 -3.3368,26.263 -3.7565,39.5 -0.864,27.252 -3.6217,54.27 -9.5244,80.931 -5.192,23.451 -19.511,38.626 -41.633,47.302 -11.209,4.3959 -22.796,6.6545 -34.588,8.3297 -0.047,0.01 -0.094,0.01 -0.1418,0.01 h -40.366 c -0.062,0 -0.1235,-0.01 -0.1843,-0.017 -11.143,-2.0685 -22.111,-4.6881 -33.016,-7.925 -13.632,-4.046 -25.902,-10.359 -37.253,-18.605 -15.697,-11.402 -27.188,-26.162 -32.527,-44.941 -2.163,-7.6074 -4.5034,-15.295 -4.5229,-23.508 -0.034,-14.296 -0.2621,-28.589 3.5334,-42.498 3.8806,-14.222 9.4121,-27.797 16.055,-41.016 19.286,-38.378 46.017,-71.138 75.486,-101.95 27.119,-28.354 56.369,-54.324 86.436,-79.499 34.225,-28.657 70.566,-54.419 106.71,-80.484 39.283,-28.327 80.139,-54.294 120.91,-80.377 23.983,-15.344 48.934,-29.206 72.611,-44.992 25.187,-16.793 49.438,-34.997 73.998,-52.723 26.051,-18.802 52.127,-37.576 77.936,-56.707 32.904,-24.39 65.329,-49.397 97.187,-75.162 35.322,-28.566 69.786,-58.07 101.84,-90.259 20.328,-20.411 39.358,-42.016 55.244,-66.188 0.5699,-0.8668 1.1836,-1.7094 1.6927,-2.6107 1.4093,-2.4937 0.9192,-4.0492 -2.2114,-3.8414 -10.869,0.7214 -21.782,1.1026 -32.588,2.3731 -22.055,2.5931 -44.028,1.1668 -66.013,-0.5424 -9.3043,-0.7233 -18.541,-2.0692 -27.797,-3.3101 -19.334,-2.5923 -37.988,-7.6163 -56.266,-14.125 -18.598,-6.6232 -36,-15.645 -51.99,-27.328 -25.73,-18.8 -43.539,-42.986 -52.095,-74.008 -4.4175,-16.017 -5.8762,-32.342 -4.6248,-48.539 1.2495,-16.169 4.4186,-32.255 9.3906,-47.928 9.1667,-28.896 23.114,-55.46 40.238,-80.138 20.284,-29.231 44.202,-55.388 70.856,-79.201 28.389,-25.362 59.362,-46.834 91.992,-66.152 5.8086,-3.4388 12.157,-5.9468 17.852,-9.8499 0.901,-0.6175 0.2354,-2.0335 -0.8173,-1.7421 -17.288,4.7868 -34.743,6.1475 -52.507,3.3374 -0.2813,-0.0445 -0.5206,-0.2168 -0.6823,-0.4514 -1.8772,-2.7271 -4.7931,-1.0393 -7.2367,-1.3693 -10.462,0.4766 -19.837,-4.0327 -28.892,-7.8995 -17.239,-7.362 -32.565,-17.877 -44.283,-33.096 -14.278,-18.546 -19.539,-39.317 -14.65,-62.008 5.4325,-25.215 19.581,-45.13 39.858,-61.009 10.891,-8.5289 22.752,-15.212 35.375,-20.541 8.7411,-3.69 17.745,-6.8238 27.116,-8.718 m 36.585,97.663 c -1.163,-1.3466 -2.3566,-1.4533 -3.5795,-0.3751 -1.1366,-0.001 -1.8557,-0.002 -2.9923,-0.003 -1.1907,-1.0368 -2.358,-0.9829 -3.4987,0.3002 -0.16,0.1799 -0.3746,0.3041 -0.6132,0.3365 -7.3108,0.9956 -12.889,5.8645 -19.097,9.1651 -0.5641,0.2999 -1.2963,-0.021 -1.4073,-0.6502 -0.1483,-0.84 0.327,-1.4005 0.7657,-2.0107 9.7524,-13.563 32.161,-17.72 46.151,-8.5443 12.474,8.1816 16.071,24.075 7.3435,35.072 -7.6486,9.6378 -18.109,15.434 -30.076,17.857 -17.204,3.4832 -32.794,-0.6625 -46.906,-11.079 -7.6506,-5.647 -13.866,-20.035 -11.941,-28.841 3.3644,-15.393 12.083,-26.718 26.11,-33.794 14.98,-7.5564 30.536,-10.012 47.405,-7.1457 15.521,2.6378 29.443,8.056 41.299,18.173 13.275,11.328 21.365,25.778 19.428,43.561 -1.8572,17.047 -10.385,31.092 -23.785,42.11 -2.2953,1.8874 -5.8452,2.6996 -6.8558,5.9808 -0.1241,0.4035 0.016,0.8602 0.3671,1.0949 1.0269,0.6868 2.1146,0.5259 3.1429,0.0725 16.474,-7.2641 32.9,-14.638 50.228,-19.742 12.314,-3.6272 24.266,-8.4123 36.85,-11.204 7.557,-1.6765 14.976,-3.9683 22.483,-5.884 1.8792,-0.4796 3.7638,-0.9627 3.6324,-3.2541 -0.2826,-4.9264 1.2283,-9.7031 0.5601,-14.717 -1.778,-13.337 -4.7625,-26.098 -11.028,-38.282 -10.527,-20.472 -26.862,-34.996 -45.593,-47.289 -10.073,-6.6114 -21.243,-11.139 -32.392,-15.622 -0.1488,-0.0598 -0.2769,-0.1623 -0.3822,-0.2832 -0.9963,-1.1434 -2.278,-1.0503 -3.6018,-0.7733 -0.1458,0.0305 -0.297,0.0284 -0.441,-0.009 -9.3721,-2.4333 -18.795,-4.5126 -28.322,-6.3761 -21.116,-4.1305 -41.978,-2.8352 -62.479,1.8938 -17.38,4.009 -33.596,11.488 -48.01,22.556 -14.771,11.343 -25.779,25.201 -31.743,42.97 -7.4814,22.292 -3.2297,43.021 11.33,60.433 16.585,19.835 39.628,29.561 64.942,32.722 13.828,1.7266 27.961,1.5333 41.611,-2.8364 15.364,-4.9183 28.951,-12.516 38.928,-25.566 5.8015,-7.588 9.3984,-16.352 9.9861,-25.732 0.85,-13.57 -5.0503,-24.921 -15.498,-33.18 -20.644,-16.319 -43.367,-20.479 -68.405,-10.532 -10.815,4.2964 -18.655,11.112 -22.669,21.887 -2.7291,7.3265 -2.4769,14.612 2.2365,21.492 7.6495,11.166 18.668,15.92 31.564,16.958 9.9912,0.8041 19.185,-1.9833 26.246,-9.2201 9.7085,-9.9507 9.0181,-21.116 -3.2085,-28.316 -2.4265,-1.4289 -5.0234,-2.2355 -7.6414,-3.074 -0.1729,-0.0557 -0.3264,-0.1667 -0.4453,-0.3043 z m -563.69,1107.7 c -1.3923,-1.4542 -0.8547,-0.8927 -2.2471,-2.347 -3.7661,3.0825 -7.4834,6.2156 -10.971,9.5867 -37.855,36.595 -75.116,73.76 -107.16,115.74 -18.426,24.14 -34.921,49.408 -45.174,78.243 -6.5378,18.387 -11.107,36.882 -4.5886,56.508 4.8307,14.545 14.266,25.136 26.276,33.925 1.2988,0.9506 2.7256,1.8052 4.1996,0.6382 1.1703,-0.9264 0.692,-2.3749 0.4354,-3.6335 -1.9877,-9.7504 -1.1854,-19.57 -1.0785,-29.414 0.1768,-16.277 3.4783,-31.999 8.0538,-47.402 8.063,-27.144 19.876,-52.708 33.654,-77.459 24.804,-44.557 55.098,-85.097 88.712,-123.28 3.2763,-3.7211 6.5803,-7.4174 9.8906,-11.108 z m 757.97,-1008.8 c -0.1017,-0.0312 -0.2041,-0.0477 -0.3102,-0.0463 -4.382,0.0613 -9.9233,3.4723 -10.378,6.5786 -0.5345,3.6524 1.9653,5.9501 4.6738,8.1119 3.1125,2.4842 6.5513,3.0907 10.248,2.5044 6.1656,-0.9778 8.3992,-6.0556 5.3518,-11.454 -2.3092,-4.0915 -6.365,-4.7057 -9.5856,-5.6945 z m -318.39,-62.678 c 0.255,-0.1564 0.4432,-0.4238 0.4668,-0.7221 0.072,-0.9195 -0.6638,-1.4375 -1.4481,-1.815 -0.2911,-0.1401 -0.8533,0.2825 -1.2914,0.4476 0.2811,0.571 0.562,1.142 0.843,1.713 0.2542,0.5164 0.8956,0.7037 1.3865,0.4028 0.014,-0.009 0.029,-0.0175 0.043,-0.0263 z"
           id="path1"
           style="display:inline;fill:#a7a7dc;fill-opacity:1"
           inkscape:label="corps"
           transform="matrix(0.26458333,0,0,0.26458333,-233.84246,-63.167239)" /><ellipse
           style="fill:#a7a7dc;fill-opacity:1;stroke:none;stroke-width:0.428048;stroke-dasharray:none;stroke-opacity:1"
           id="path27"
           cx="255.18256"
           cy="-54.246342"
           rx="12.689565"
           ry="1.6298525"
           transform="matrix(1,0,0,1.0045459,9.5643534e-7,-1.6128318)" /><ellipse
           style="fill:none;fill-opacity:1;stroke:none;stroke-width:0.649648;stroke-dasharray:none;stroke-opacity:1"
           id="path26"
           cx="253.20345"
           cy="-52.053097"
           rx="8.614934"
           ry="3.1432867"
           transform="matrix(1,0,0,1.0045459,9.5643534e-7,-1.6128318)" /><rect
           style="fill:#a7a7dc;fill-opacity:1;stroke:none;stroke-width:0.649648;stroke-dasharray:none;stroke-opacity:1"
           id="rect27"
           width="3.2597046"
           height="3.6089587"
           x="218.86014"
           y="-21.78441"
           transform="matrix(1,0,0,1.0045459,9.5643534e-7,-1.6128318)" /><ellipse
           style="fill:#a7a7dc;fill-opacity:1;stroke:none;stroke-width:0.736533;stroke-dasharray:none;stroke-opacity:1"
           id="path28"
           cx="235.33453"
           cy="-44.036915"
           rx="4.0138054"
           ry="1.4648293"
           transform="matrix(0.98798466,0.15455196,-0.19372105,0.98105665,0,0)" /></g></g><g
       inkscape:label="queue haut"
       id="g2"
       style="display:inline;fill:#e3e3f4;fill-opacity:1"
       transform="matrix(0.15064342,0.21751069,0.21751069,-0.15064342,-196.22393,-191.80047)"><path
         d="m 1744.2904,307.06077 c -6.2357,7.16015 -15.1684,9.43366 -23.1278,13.24506 -43.8371,20.99683 -86.6217,43.80925 -128.1911,68.86028 -24.0759,14.51031 -47.0632,30.58195 -69.629,47.23253 -19.607,14.46783 -37.6174,30.99546 -52.3551,50.78076 -6.6495,8.92639 -11.9085,19.03988 -17.4568,28.83957 -7.7476,13.68614 -18.8893,23.18946 -33.598,27.96533 -9.3285,3.02921 -19.2518,3.57237 -29.3866,1.16319 -2.1711,-0.51597 -4.3379,-1.09184 -6.5198,-1.49431 -11.1787,-2.06205 -17.5721,-8.25273 -19.65,-19.65905 -1.8413,-10.10813 -1.9275,-20.27192 -0.8494,-30.13385 0.9559,-8.74322 5.617,-16.04884 10.5119,-22.76749 13.7838,-18.9167 32.0071,-32.69983 51.042,-45.60074 33.5201,-22.71776 70.7396,-38.55932 107.6225,-54.96538 18.4897,-8.2256 37.6699,-15.07331 56.793,-21.91775 14.6409,-5.24002 29.7961,-9.20828 44.5142,-14.26867 16.9582,-5.83076 34.4589,-10.03783 51.7562,-14.83325 12.7792,-3.54237 25.6396,-6.90058 38.8307,-9.24144 6.5145,-1.15587 13.0696,-2.17939 19.6934,-3.20498 z"
         id="path13"
         style="display:inline;fill:#e3e3f4;fill-opacity:1;stroke-width:0.954294" /><path
         d="m 1717.1,292.87 c -9.7185,2.5927 -19.092,2.1403 -28.309,3.0666 -12.378,1.2438 -24.766,2.471 -37.088,4.1541 -19.506,2.6642 -38.981,5.5729 -58.431,8.6199 -15.867,2.4856 -31.667,5.3938 -47.519,7.9815 -9.7174,1.5862 -19.504,2.7555 -29.209,4.4091 -13.783,2.3486 -27.527,4.9351 -41.275,7.4855 -14.254,2.6442 -28.492,5.3727 -42.74,8.0528 -14.749,2.7745 -29.495,5.5688 -44.254,8.2922 -13.756,2.5385 -27.534,4.9617 -41.291,7.4997 -9.1617,1.6903 -18.257,3.7943 -27.463,5.1778 -15.85,2.382 -31.548,5.6037 -47.89,2.5075 -9.7189,-1.8414 -19.4,-3.2015 -28.156,-7.9792 -6.2418,-3.4059 -11.362,-7.98 -14.092,-14.913 -1.077,-2.7358 -0.9569,-4.7948 0.6337,-7.2349 3.5114,-5.3866 8.5792,-9.115 13.822,-12.31 14.513,-8.8447 30.391,-13.982 47.169,-16.881 17.415,-3.0091 34.94,-4.5156 52.508,-6.1676 85.5,-8.0402 171.21,-6.3617 256.88,-5.9855 35.046,0.1538 70.116,-0.3168 105.14,1.594 3.7456,0.2041 7.6175,-0.1088 11.556,2.6302 z"
         id="path16"
         transform="translate(-2.0472441e-6)"
         style="display:inline;fill:#e3e3f4;fill-opacity:1" /><path
         d="m 1724.9375,333.43311 c -1.3831,5.298 -5.912,5.9386 -9.0486,7.6609 -34.228,18.795 -64.258,43.007 -92.447,69.819 -23.654,22.499 -44.194,47.398 -60.808,75.48 -12.029,20.332 -21.923,41.62 -28.083,64.547 -2.6146,9.7316 -5.443,19.426 -8.6719,28.968 -9.754,28.828 -38.05,40.17 -65.136,32.569 -9.4973,-2.6652 -12.33,-11.207 -14.815,-19.428 -4.3101,-14.257 0.2946,-27.499 5.6763,-40.405 9.3019,-22.307 24.222,-40.767 40.147,-58.669 22.501,-25.296 47.538,-47.789 73.922,-68.831 27.981,-22.315 57.412,-42.614 88.563,-60.245 19.514,-11.045 39.449,-21.379 60.44,-29.494 3.2347,-1.2506 6.5932,-0.9752 10.262,-1.9729 z"
         id="path17"
         style="display:inline;fill:#e3e3f4;fill-opacity:1" /><path
         d="m 1632.5929,322.63301 c -18.9961,7.28275 -38.6652,13.08879 -57.9057,19.82692 -11.8514,4.15066 -23.2256,9.32585 -34.9134,13.83918 -18.9854,7.33144 -37.6879,15.20949 -55.7482,24.24271 -16.4579,8.23174 -32.55,17.07185 -48.2468,26.5587 -20.7238,12.52558 -39.9532,26.94013 -57.8608,43.04097 -5.9077,5.31146 -11.4519,11.15389 -16.3299,17.47063 -6.432,8.32811 -15.2285,12.7289 -25.4387,14.76056 -7.8341,1.55848 -15.9821,2.26733 -24.3955,1.44855 -2.0328,-0.19783 -3.6626,-0.89331 -5.3498,-2.25859 -13.1616,-10.65116 -19.0566,-25.92023 -15.4068,-40.46457 4.399,-17.53088 15.4228,-29.67231 29.7792,-38.84805 14.3797,-9.19087 30.5017,-15.32267 46.0292,-22.51571 14.1271,-6.54423 29.3363,-10.75475 43.903,-16.31234 11.494,-4.3854 23.2208,-8.24641 35.111,-11.54875 13.2469,-3.67952 26.405,-7.61917 39.6642,-11.27477 11.3265,-3.12239 22.8514,-5.7287 34.2612,-8.57009 11.8458,-2.9501 23.7718,-5.82249 35.8115,-8.33188 8.2397,-1.71738 16.8011,-2.6069 24.7541,-5.24748 5.7722,-1.9163 12.1371,-2.2819 18.1804,-3.44127 8.9581,-1.71862 17.7109,-4.1168 26.9893,-5.03123 11.051,-1.08901 21.8412,-3.28649 32.6733,-5.23121 16.732,-3.00411 33.7624,-4.85869 50.9084,-6.28277 2.9798,-0.24756 6.0285,0.17569 9.1991,1.39182 -27.023,6.45858 -53.5087,14.12248 -80.0325,21.65716 -1.9345,0.17681 -4.2551,-0.76623 -5.6345,1.121 z"
         id="path14"
         style="display:inline;fill:#e3e3f4;fill-opacity:1;stroke-width:0.923381"
         inkscape:label="path14" /><path
         d="m 1666.6455,487.74326 c 1.4329,-20.754 4.0354,-37.202 8.8339,-53.467 4.8921,-16.582 11.86,-31.912 21.744,-46.024 2.8679,-4.0943 6.3315,-7.5271 10.169,-10.644 0.7877,-0.6399 1.6699,-1.4648 2.7649,-0.8083 1.3313,0.7981 1.3793,2.1836 0.839,3.4034 -3.1581,7.1321 -4.6002,14.754 -6.6604,22.215 -5.0854,18.415 -6.3333,37.165 -5.7791,56.127 0.076,2.5906 0.3948,5.175 0.4395,7.7651 0.3502,20.3 7.6482,37.987 21.126,52.855 6.5947,7.2742 9.744,15.92 12.501,24.758 2.1776,6.9808 -6.6666,16.049 -15.314,17.322 -10.726,1.5788 -18.586,-3.9823 -25.754,-10.388 -12.822,-11.457 -19.78,-26.079 -21.893,-43.206 -0.9791,-7.9365 -3.9574,-15.641 -3.0171,-19.908 z"
         id="path25"
         style="display:inline;fill:#e3e3f4;fill-opacity:1"
         inkscape:label="path25"
         inkscape:transform-center-x="-3.7931034"
         inkscape:transform-center-y="-6.0689655" /><path
         d="m 1701.8238,364.02992 c -1.6501,5.642 -4.9,8.687 -7.4286,12.153 -28.115,38.538 -54.45,78.211 -73.064,122.34 -10.168,24.102 -17.244,49.167 -19.857,75.511 -2.1462,21.642 -12.094,38.917 -33.48,47.567 -6.4098,2.5923 -13.261,2.721 -19.886,2.314 -8.3669,-0.5143 -12.907,-5.4427 -13.732,-14.134 -1.4263,-15.017 0.821,-29.606 7.5079,-43.169 19.165,-38.873 41.846,-75.637 67.906,-110.25 23.32,-30.974 49.064,-59.758 79.271,-84.291 3.559,-2.8909 6.9667,-6.0971 12.764,-8.0373 z"
         id="path21"
         style="display:inline;fill:#e3e3f4;fill-opacity:1" /></g><text
       xml:space="preserve"
       style="font-style:normal;font-weight:normal;font-size:51.9324px;line-height:1.25;font-family:sans-serif;fill:#e3e3f4;fill-opacity:1;stroke:none;stroke-width:1.29832"
       x="452.9903"
       y="220.57553"
       id="text1"
       transform="matrix(0.75056891,0,-0.24466589,1.3323227,0,0)"><tspan
         sodipodi:role="line"
         id="tspan1"
         style="font-style:normal;font-variant:normal;font-weight:normal;font-stretch:normal;font-size:138.486px;font-family:'Merienda One';-inkscape-font-specification:'Merienda One, Normal';font-variant-ligatures:normal;font-variant-caps:normal;font-variant-numeric:normal;font-variant-east-asian:normal;fill:#e3e3f4;fill-opacity:1;stroke-width:1.29832"
         x="452.9903"
         y="220.57553">oncept</tspan></text><text
       xml:space="preserve"
       style="font-style:normal;font-variant:normal;font-weight:normal;font-stretch:normal;font-size:140.791px;line-height:1.25;font-family:Merienda;-inkscape-font-specification:'Merienda, @wght=600';font-variant-ligatures:normal;font-variant-caps:normal;font-variant-numeric:normal;font-variant-east-asian:normal;font-variation-settings:'wght' 600;display:inline;fill:#a7a7dc;fill-opacity:1;stroke:none;stroke-width:0.263984"
       x="218.50761"
       y="293.88565"
       id="text14-4-0"
       transform="matrix(1.0022704,0,-0.08083351,0.99773475,0,0)"><tspan
         sodipodi:role="line"
         id="tspan14-8-7"
         style="font-style:normal;font-variant:normal;font-weight:normal;font-stretch:normal;font-size:140.791px;font-family:'Merienda One';-inkscape-font-specification:'Merienda One, @wght=600';font-variant-ligatures:normal;font-variant-caps:normal;font-variant-numeric:normal;font-variant-east-asian:normal;font-variation-settings:'wght' 600;fill:#a7a7dc;fill-opacity:1;stroke-width:0.263984"
         x="218.50761"
         y="293.88565">C</tspan></text><text
       xml:space="preserve"
       style="font-style:normal;font-variant:normal;font-weight:normal;font-stretch:normal;font-size:139.231px;line-height:1.25;font-family:'Merienda One';-inkscape-font-specification:'Merienda One, Normal';font-variant-ligatures:normal;font-variant-caps:normal;font-variant-numeric:normal;font-variant-east-asian:normal;fill:#e3e3f4;fill-opacity:1;stroke:none;stroke-width:1.30528"
       x="466.99536"
       y="117.10942"
       id="text2"
       transform="matrix(0.80851865,0,-0.24598086,1.2368298,0,0)"><tspan
         sodipodi:role="line"
         id="tspan2"
         style="font-style:normal;font-variant:normal;font-weight:normal;font-stretch:normal;font-size:139.231px;font-family:'Merienda One';-inkscape-font-specification:'Merienda One, Normal';font-variant-ligatures:normal;font-variant-caps:normal;font-variant-numeric:normal;font-variant-east-asian:normal;fill:#e3e3f4;fill-opacity:1;stroke-width:1.30528"
         x="466.99536"
         y="117.10942">ofève</tspan></text></g></svg>
